SplineFontDB: 3.0
FontName: Sahel
FullName: Sahel
FamilyName: Sahel
Weight: Regular
Copyright: Copyright (c) 2016 by Saber Rastikerdar. All Rights Reserved.\nBased on DejaVu font.\nNon-Arabic(latin) glyphs and data are imported from Open Sans font under the Apache License, Version 2.0.
Version: 1.0.0-alpha3
ItalicAngle: 0
UnderlinePosition: -500
UnderlineWidth: 100
Ascent: 1638
Descent: 410
InvalidEm: 0
LayerCount: 2
Layer: 0 1 "Back" 1
Layer: 1 1 "Fore" 0
XUID: [1021 502 1027637223 5453938]
UniqueID: 4028628
UseUniqueID: 1
FSType: 0
OS2Version: 1
OS2_WeightWidthSlopeOnly: 0
OS2_UseTypoMetrics: 1
CreationTime: 1431850356
ModificationTime: 1470226699
PfmFamily: 17
TTFWeight: 400
TTFWidth: 5
LineGap: 0
VLineGap: 0
Panose: 2 11 6 3 3 8 4 2 2 4
OS2TypoAscent: 2350
OS2TypoAOffset: 0
OS2TypoDescent: -1200
OS2TypoDOffset: 0
OS2TypoLinegap: 0
OS2WinAscent: 2350
OS2WinAOffset: 0
OS2WinDescent: 1200
OS2WinDOffset: 0
HheadAscent: 2350
HheadAOffset: 0
HheadDescent: -1200
HheadDOffset: 0
OS2SubXSize: 1331
OS2SubYSize: 1433
OS2SubXOff: 0
OS2SubYOff: 286
OS2SupXSize: 1331
OS2SupYSize: 1433
OS2SupXOff: 0
OS2SupYOff: 983
OS2StrikeYSize: 102
OS2StrikeYPos: 530
OS2Vendor: 'PfEd'
OS2CodePages: 00000040.20080000
OS2UnicodeRanges: 00002000.80000000.00000008.00000000
Lookup: 1 9 0 "'fina' Terminal Forms in Arabic lookup 9" { "'fina' Terminal Forms in Arabic lookup 9 subtable"  } ['fina' ('arab' <'KUR ' 'SND ' 'URD ' 'dflt' > ) ]
Lookup: 1 9 0 "'medi' Medial Forms in Arabic lookup 11" { "'medi' Medial Forms in Arabic lookup 11 subtable"  } ['medi' ('arab' <'KUR ' 'SND ' 'URD ' 'dflt' > ) ]
Lookup: 1 9 0 "'init' Initial Forms in Arabic lookup 13" { "'init' Initial Forms in Arabic lookup 13 subtable"  } ['init' ('arab' <'KUR ' 'SND ' 'URD ' 'dflt' > ) ]
Lookup: 4 1 1 "'rlig' Required Ligatures in Arabic lookup 14" { "'rlig' Required Ligatures in Arabic lookup 14 subtable"  } ['rlig' ('arab' <'KUR ' 'dflt' > ) ]

StartChar: afii57388
Encoding: 1548 1548 2
Width: 748
VWidth: 3387
GlyphClass: 2
Flags: W
LayerCount: 2
Fore
SplineSet
351.693359375 300.504882812 m 5,0,-1
 378.088867188 296.405273438 l 5,1,2
 484.275390625 278.424804688 484.275390625 278.424804688 498.997070312 184.306640625 c 132,-1,3
 513.71875 90.1884765625 513.71875 90.1884765625 464.587890625 42.1494140625 c 132,-1,4
 415.45703125 -5.8896484375 415.45703125 -5.8896484375 343.662109375 -0.232421875 c 4,5,6
 183.463867188 13.8046875 183.463867188 13.8046875 200.25 211.008789062 c 4,7,8
 221.62890625 466.758789062 221.62890625 466.758789062 493.293945312 630.275390625 c 4,9,10
 527.725585938 651.049804688 527.725585938 651.049804688 539 641.2421875 c 4,11,12
 545.021484375 636.00390625 545.021484375 636.00390625 547.141601562 633.666992188 c 4,13,14
 558.405273438 621.258789062 558.405273438 621.258789062 524.732421875 595.818359375 c 132,-1,15
 491.059570312 570.377929688 491.059570312 570.377929688 466.55859375 543.62109375 c 4,16,17
 341.04296875 406.549804688 341.04296875 406.549804688 351.693359375 300.504882812 c 5,0,-1
EndSplineSet
EndChar

StartChar: uni0615
Encoding: 1557 1557 3
Width: 0
VWidth: 3435
GlyphClass: 4
Flags: W
AnchorPoint: "Anchor-10" 770.381 1853.78 mark 0
AnchorPoint: "Anchor-9" 770.381 1853.78 mark 0
AnchorPoint: "Anchor-1" 770.381 2946.96 basemark 0
AnchorPoint: "Anchor-1" 770.381 1853.78 mark 0
LayerCount: 2
Fore
SplineSet
675.7578125 2118.23925781 m 1,0,-1
 777.056640625 2118.23925781 l 2,1,2
 972.34375 2118.12011719 972.34375 2118.12011719 1041.34375 2195.97753906 c 0,3,4
 1075.53243379 2233.65827656 1075.53243379 2233.65827656 1068.41894531 2294.65332031 c 0,5,6
 1059.97753906 2366.99609375 1059.97753906 2366.99609375 976.935058593 2357.20507812 c 0,7,8
 862.056635205 2343.66048707 862.056635205 2343.66048707 675.7578125 2118.23925781 c 1,0,-1
727.256835938 2018.17675781 m 2,9,-1
 419.657226562 2017.98730469 l 1,10,-1
 367.364257812 2118.23925781 l 1,11,-1
 504.23828125 2118.23925781 l 1,12,-1
 504.23828125 2789.27636719 l 1,13,-1
 605.983398438 2789.27636719 l 1,14,-1
 605.983398438 2168.59765625 l 1,15,16
 854.297036647 2527.98689602 854.297036647 2527.98689602 1059.34863281 2465.60351562 c 0,17,18
 1144.40249715 2439.72814741 1144.40249715 2439.72814741 1164.1484375 2341.31640625 c 0,19,20
 1192.36887166 2200.90998523 1192.36887166 2200.90998523 1087.50717281 2109.62164407 c 128,-1,21
 982.64547397 2018.3333029 982.64547397 2018.3333029 727.256835938 2018.17675781 c 2,9,-1
EndSplineSet
EndChar

StartChar: uni061B
Encoding: 1563 1563 4
Width: 748
VWidth: 3387
GlyphClass: 2
Flags: W
LayerCount: 2
Fore
SplineSet
214 158.837890625 m 128,-1,1
 214 215.537109375 214 215.537109375 254.5 256.037109375 c 128,-1,2
 295 296.537109375 295 296.537109375 351.700195312 296.537109375 c 128,-1,3
 408.400390625 296.537109375 408.400390625 296.537109375 449.912109375 257.049804688 c 0,4,5
 489.400390625 215.537109375 489.400390625 215.537109375 489.400390625 158.837890625 c 128,-1,6
 489.400390625 102.137695312 489.400390625 102.137695312 448.900390625 61.6376953125 c 128,-1,7
 408.400390625 21.1376953125 408.400390625 21.1376953125 351.700195312 21.1376953125 c 128,-1,8
 295 21.1376953125 295 21.1376953125 254.5 61.6376953125 c 128,-1,0
 214 102.137695312 214 102.137695312 214 158.837890625 c 128,-1,1
351.692382812 820.504882812 m 5,9,-1
 378.088867188 816.404296875 l 5,10,11
 484 798 484 798 498.99609375 704.306640625 c 4,12,13
 514 610 514 610 464.416015625 561.979492188 c 132,-1,14
 415 514 415 514 339.401367188 520.127929688 c 4,15,16
 183 533 183 533 200.25 731.008789062 c 4,17,18
 222 987 222 987 493.293945312 1150.27441406 c 4,19,20
 528 1171 528 1171 539 1161.2578125 c 4,21,22
 545 1156 545 1156 547.141601562 1153.66699219 c 4,23,24
 558 1141 558 1141 524.728515625 1115.81542969 c 4,25,26
 453 1062 453 1062 398.717773438 976.794921875 c 4,27,28
 345 892 345 892 351.692382812 820.504882812 c 5,9,-1
EndSplineSet
EndChar

StartChar: uni061F
Encoding: 1567 1567 5
Width: 1024
VWidth: 3375
GlyphClass: 2
Flags: W
LayerCount: 2
Fore
SplineSet
433 158.837890625 m 128,-1,1
 433 215.537109375 433 215.537109375 473.5 256.037109375 c 128,-1,2
 514 296.537109375 514 296.537109375 570.700195312 296.537109375 c 128,-1,3
 627.400390625 296.537109375 627.400390625 296.537109375 668.912109375 257.049804688 c 0,4,5
 708.400390625 215.537109375 708.400390625 215.537109375 708.400390625 158.837890625 c 128,-1,6
 708.400390625 102.137695312 708.400390625 102.137695312 667.900390625 61.6376953125 c 128,-1,7
 627.400390625 21.1376953125 627.400390625 21.1376953125 570.700195312 21.1376953125 c 128,-1,8
 514 21.1376953125 514 21.1376953125 473.5 61.6376953125 c 128,-1,0
 433 102.137695312 433 102.137695312 433 158.837890625 c 128,-1,1
540.051757812 516.077148438 m 2,9,10
 513.529296875 516.077148438 513.529296875 516.077148438 513.529296875 543.2421875 c 2,11,-1
 513.529296875 563.87109375 l 6,12,13
 513.998016757 651.628681032 513.998016757 651.628681032 373.383789062 759.024414062 c 6,14,-1
 296.193359375 817.979492188 l 6,15,16
 152 928 152 928 150.665039062 1100.1796875 c 4,17,18
 150 1185 150 1185 181.15625 1253.17578125 c 4,19,20
 212 1321 212 1321 273.763671875 1372.72265625 c 4,21,22
 368 1451 368 1451 515.973632812 1451.18847656 c 4,23,24
 716 1451 716 1451 815.376953125 1312.05664062 c 4,25,26
 873 1231 873 1231 878.436523438 1101.76953125 c 4,27,28
 879 1087 879 1087 878.161132812 1072.50292969 c 4,29,30
 878 1058 878 1058 877.111328125 1044.93261719 c 5,31,-1
 779.184570312 1044.37109375 l 5,32,33
 738 1264 738 1264 527.547851562 1263.82714844 c 4,34,35
 403 1264 403 1264 350.168945312 1181.92773438 c 4,36,37
 326 1145 326 1145 325.96875 1091.19042969 c 4,38,39
 326 1044 326 1044 363.03515625 990.0078125 c 4,40,41
 398.762193298 937.350498202 398.762193298 937.350498202 473.865234375 876.099609375 c 6,42,-1
 521.946289062 836.88671875 l 6,43,44
 648.461914062 733.622979586 648.461914062 733.622979586 648.461914062 569.729492188 c 6,45,-1
 648.461914062 546.629882812 l 2,46,47
 648.001163437 516.077148438 648.001163437 516.077148438 620.461914062 516.077148438 c 2,48,-1
 540.051757812 516.077148438 l 2,9,10
EndSplineSet
EndChar

StartChar: uni0621
Encoding: 1569 1569 6
Width: 891
VWidth: 3739
GlyphClass: 2
Flags: W
AnchorPoint: "Anchor-7" 458.756 -196.488 basechar 0
AnchorPoint: "Anchor-10" 436.642 1142.47 basechar 0
LayerCount: 2
Fore
SplineSet
682.145507812 534.395507812 m 1,0,1
 551 580 551 580 481.441933892 574.798114667 c 0,2,3
 412 570 412 570 362.8515625 518.044921875 c 0,4,5
 314 467 314 467 315.790039062 446.228027344 c 0,6,7
 320 405 320 405 393.878838089 355.659898584 c 0,8,9
 468 306 468 306 481.899414062 303.730957031 c 0,10,11
 496 302 496 302 513.8515625 304.16015625 c 0,12,13
 546.623255984 308.429780669 546.623255984 308.429780669 627.692382812 329.021484375 c 2,14,-1
 728.904296875 354.729492188 l 2,15,16
 782 368 782 368 785.163574219 361.052246094 c 0,17,18
 789.013910013 353.97443015 789.013910013 353.97443015 783.5703125 316.017578125 c 2,19,-1
 767.729492188 205.563476562 l 1,20,-1
 105.375976562 23.3291015625 l 1,21,-1
 173.591796875 207.422851562 l 1,22,-1
 274.09765625 235.237304688 l 1,23,24
 131 359 131 359 194.079101562 549.317382812 c 4,25,26
 239 687 239 687 372.892578125 735.233398438 c 4,27,28
 509.946784123 784.049590404 509.946784123 784.049590404 654.284179688 711.356445312 c 4,29,30
 687 695 687 695 721.829101562 661.774414062 c 5,31,32
 717 639 717 639 682.145507812 534.395507812 c 1,0,1
EndSplineSet
EndChar

StartChar: uni0627
Encoding: 1575 1575 12
Width: 484
VWidth: 3705
GlyphClass: 2
Flags: W
AnchorPoint: "Anchor-10" 223.583 1686.65 basechar 0
AnchorPoint: "Anchor-7" 235.098 -224.043 basechar 0
LayerCount: 2
Fore
SplineSet
187.284179688 -13.3427734375 m 1,0,1
 176 1268 176 1268 150.795898438 1428.72265625 c 5,2,-1
 266.068359375 1486.0078125 l 6,3,4
 326 1516 326 1516 329.93359375 1443.15136719 c 4,5,6
 345 1146 345 1146 336.541015625 614.708984375 c 0,7,8
 328 75 328 75 324.44140625 66.7333984375 c 0,9,10
 287 -12 287 -12 187.284179688 -13.3427734375 c 1,0,1
EndSplineSet
Substitution2: "'fina' Terminal Forms in Arabic lookup 9 subtable" uniFE8E
EndChar

StartChar: uni062D
Encoding: 1581 1581 18
Width: 1335
VWidth: 3739
GlyphClass: 2
Flags: W
AnchorPoint: "Anchor-7" 464.402 -842.641 basechar 0
AnchorPoint: "Anchor-10" 609.972 1253.02 basechar 0
LayerCount: 2
Fore
SplineSet
1208.58300781 -403.70703125 m 5,0,1
 1226 -406 1226 -406 1210.47460938 -512.251953125 c 4,2,3
 1200 -584 1200 -584 1172.16992188 -588.37890625 c 4,4,5
 1019 -613 1019 -613 841.9921875 -613.255859375 c 4,6,7
 699 -613 699 -613 584.427734375 -594.079101562 c 4,8,9
 400 -564 400 -564 298.9609375 -476.314453125 c 4,10,11
 142 -340 142 -340 142.25390625 -113.3515625 c 4,12,13
 142 283 142 283 488.01171875 496.65234375 c 4,14,15
 613 574 613 574 794.43359375 609.942382812 c 1,16,17
 677 632 677 632 608.021274728 647.972009009 c 0,18,19
 474 678 474 678 408.571289062 678.428710938 c 0,20,21
 301 678 301 678 203.560546875 559.346679688 c 1,22,23
 155 577 155 577 111.53125 606.78515625 c 1,24,25
 175 759 175 759 274.556640625 828.467773438 c 0,26,27
 326 865 326 865 382.6796875 864.798339844 c 0,28,29
 439 865 439 865 548.143554688 840.106445312 c 0,30,31
 657 815 657 815 998.66796875 717.557617188 c 0,32,33
 1119 683 1119 683 1222.37109375 686.41796875 c 0,34,35
 1241.05969105 687.001864954 1241.05969105 687.001864954 1234.45898438 671.40625 c 2,36,-1
 1163.33007812 503.348632812 l 1,37,38
 848 494 848 494 609.952148438 371.383789062 c 4,39,40
 289 206 289 206 288.989257812 -83.6806640625 c 4,41,42
 290 -436 290 -436 807.822265625 -433.583984375 c 4,43,44
 959 -433 959 -433 1041.796875 -423.38671875 c 4,45,46
 1125 -413 1125 -413 1208.58300781 -403.70703125 c 5,0,1
EndSplineSet
Substitution2: "'fina' Terminal Forms in Arabic lookup 9 subtable" uniFEA2
Substitution2: "'medi' Medial Forms in Arabic lookup 11 subtable" uniFEA4
Substitution2: "'init' Initial Forms in Arabic lookup 13 subtable" uniFEA3
EndChar

StartChar: uni062F
Encoding: 1583 1583 20
Width: 1031
VWidth: 3737
GlyphClass: 2
Flags: W
AnchorPoint: "Anchor-10" 413.795 1308.18 basechar 0
AnchorPoint: "Anchor-7" 400.949 -226.827 basechar 0
LayerCount: 2
Fore
SplineSet
230.859375 325.612304688 m 1,0,1
 228 268 228 268 248.879882812 241.4453125 c 0,2,3
 298 180 298 180 417.994140625 179.999023438 c 4,4,5
 617 180 617 180 737.555664062 253.502929688 c 0,6,7
 803.261434159 292.504750441 803.261434159 292.504750441 751.274414062 398.422851562 c 0,8,9
 665 571 665 571 353.720703125 787.817382812 c 1,10,-1
 411.606445312 942.17578125 l 2,11,12
 428 987 428 987 470.560546875 953.236328125 c 0,13,14
 919 602 919 602 919.126953125 350.834960938 c 0,15,16
 919 277 919 277 890.487304688 218.8046875 c 0,17,18
 784 2 784 2 416.579101562 2.798828125 c 0,19,20
 40 3 40 3 119.606445312 336.571289062 c 1,21,-1
 230.859375 325.612304688 l 1,0,1
EndSplineSet
Substitution2: "'fina' Terminal Forms in Arabic lookup 9 subtable" uniFEAA
EndChar

StartChar: uni0631
Encoding: 1585 1585 22
Width: 778
VWidth: 3744
GlyphClass: 2
Flags: W
AnchorPoint: "Anchor-7" 224.313 -719.669 basechar 0
AnchorPoint: "Anchor-10" 485.411 1050.21 basechar 0
LayerCount: 2
Fore
SplineSet
29.212890625 -400.844726562 m 4,0,1
 504.869140625 -275.553710938 504.869140625 -275.553710938 540.05859375 70.9892578125 c 4,2,3
 552 187 552 187 430.515625 417.907226562 c 5,4,5
 528 545 528 545 536.064453125 549.168945312 c 4,6,7
 548 556 548 556 559.153320312 553.880859375 c 4,8,9
 570 552 570 552 581.081054688 541.51953125 c 132,-1,10
 592 531 592 531 617.84765625 486.040039062 c 4,11,12
 644 441 644 441 665.732421875 363.053710938 c 4,13,14
 697.389648438 247.3125 697.389648438 247.3125 697.15625 140 c 4,15,16
 696.74609375 -48.5048828125 696.74609375 -48.5048828125 597.930664062 -211 c 4,17,18
 508 -359 508 -359 344.763671875 -454.211914062 c 4,19,20
 237 -517 237 -517 141.038085938 -539.3515625 c 4,21,22
 89 -551 89 -551 72.755859375 -529.8359375 c 4,23,24
 33 -479 33 -479 22.13671875 -459.24609375 c 4,25,26
 -5 -410 -5 -410 29.212890625 -400.844726562 c 4,0,1
EndSplineSet
PairPos2: "'kern' Horizontal Kerning lookup 15-1" uniFEF3 dx=70 dy=0 dh=70 dv=0 dx=0 dy=0 dh=0 dv=0
PairPos2: "'kern' Horizontal Kerning lookup 15-1" uniFB58 dx=53 dy=0 dh=53 dv=0 dx=0 dy=0 dh=0 dv=0
PairPos2: "'kern' Horizontal Kerning lookup 15-1" uniFBFE dx=70 dy=0 dh=70 dv=0 dx=0 dy=0 dh=0 dv=0
PairPos2: "'kern' Horizontal Kerning lookup 15-4" uni0621 dx=-196 dy=0 dh=-196 dv=0 dx=0 dy=0 dh=0 dv=0
PairPos2: "'kern' Horizontal Kerning lookup 15-3" uni0648 dx=-43 dy=0 dh=-43 dv=0 dx=0 dy=0 dh=0 dv=0
PairPos2: "'kern' Horizontal Kerning lookup 15-1" uni0632 dx=-43 dy=0 dh=-43 dv=0 dx=0 dy=0 dh=0 dv=0
PairPos2: "'kern' Horizontal Kerning lookup 15-1" uni0631 dx=-43 dy=0 dh=-43 dv=0 dx=0 dy=0 dh=0 dv=0
PairPos2: "'kern' Horizontal Kerning lookup 15-1" uni06CC dx=-43 dy=0 dh=-43 dv=0 dx=0 dy=0 dh=0 dv=0
PairPos2: "'kern' Horizontal Kerning lookup 15-1" uniFEEB dx=-128 dy=0 dh=-128 dv=0 dx=0 dy=0 dh=0 dv=0
PairPos2: "'kern' Horizontal Kerning lookup 15-1" uniFB7C dx=-115 dy=0 dh=-115 dv=0 dx=0 dy=0 dh=0 dv=0
PairPos2: "'kern' Horizontal Kerning lookup 15-1" uniFEDF dx=-128 dy=0 dh=-128 dv=0 dx=0 dy=0 dh=0 dv=0
PairPos2: "'kern' Horizontal Kerning lookup 15-1" uniFB90 dx=-213 dy=0 dh=-213 dv=0 dx=0 dy=0 dh=0 dv=0
PairPos2: "'kern' Horizontal Kerning lookup 15-1" uni06A9 dx=-213 dy=0 dh=-213 dv=0 dx=0 dy=0 dh=0 dv=0
PairPos2: "'kern' Horizontal Kerning lookup 15-1" uni0649 dx=-43 dy=0 dh=-43 dv=0 dx=0 dy=0 dh=0 dv=0
PairPos2: "'kern' Horizontal Kerning lookup 15-1" uni0647 dx=-128 dy=0 dh=-128 dv=0 dx=0 dy=0 dh=0 dv=0
PairPos2: "'kern' Horizontal Kerning lookup 15-1" uniFEE7 dx=-128 dy=0 dh=-128 dv=0 dx=0 dy=0 dh=0 dv=0
PairPos2: "'kern' Horizontal Kerning lookup 15-1" uniFEE3 dx=-128 dy=0 dh=-128 dv=0 dx=0 dy=0 dh=0 dv=0
PairPos2: "'kern' Horizontal Kerning lookup 15-1" uni0645 dx=-128 dy=0 dh=-128 dv=0 dx=0 dy=0 dh=0 dv=0
PairPos2: "'kern' Horizontal Kerning lookup 15-1" uni0644 dx=-43 dy=0 dh=-43 dv=0 dx=0 dy=0 dh=0 dv=0
PairPos2: "'kern' Horizontal Kerning lookup 15-1" uniFEDB dx=-213 dy=0 dh=-213 dv=0 dx=0 dy=0 dh=0 dv=0
PairPos2: "'kern' Horizontal Kerning lookup 15-1" uniFED7 dx=-128 dy=0 dh=-128 dv=0 dx=0 dy=0 dh=0 dv=0
PairPos2: "'kern' Horizontal Kerning lookup 15-1" uni0642 dx=-43 dy=0 dh=-43 dv=0 dx=0 dy=0 dh=0 dv=0
PairPos2: "'kern' Horizontal Kerning lookup 15-1" uniFED3 dx=-128 dy=0 dh=-128 dv=0 dx=0 dy=0 dh=0 dv=0
PairPos2: "'kern' Horizontal Kerning lookup 15-1" uni0641 dx=-128 dy=0 dh=-128 dv=0 dx=0 dy=0 dh=0 dv=0
PairPos2: "'kern' Horizontal Kerning lookup 15-1" uniFECF dx=-128 dy=0 dh=-128 dv=0 dx=0 dy=0 dh=0 dv=0
PairPos2: "'kern' Horizontal Kerning lookup 15-1" uniFECB dx=-128 dy=0 dh=-128 dv=0 dx=0 dy=0 dh=0 dv=0
PairPos2: "'kern' Horizontal Kerning lookup 15-1" uniFEC7 dx=-128 dy=0 dh=-128 dv=0 dx=0 dy=0 dh=0 dv=0
PairPos2: "'kern' Horizontal Kerning lookup 15-1" uni0638 dx=-128 dy=0 dh=-128 dv=0 dx=0 dy=0 dh=0 dv=0
PairPos2: "'kern' Horizontal Kerning lookup 15-1" uniFEC3 dx=-128 dy=0 dh=-128 dv=0 dx=0 dy=0 dh=0 dv=0
PairPos2: "'kern' Horizontal Kerning lookup 15-1" uni0637 dx=-128 dy=0 dh=-128 dv=0 dx=0 dy=0 dh=0 dv=0
PairPos2: "'kern' Horizontal Kerning lookup 15-1" uniFEBF dx=-128 dy=0 dh=-128 dv=0 dx=0 dy=0 dh=0 dv=0
PairPos2: "'kern' Horizontal Kerning lookup 15-1" uni0636 dx=-128 dy=0 dh=-128 dv=0 dx=0 dy=0 dh=0 dv=0
PairPos2: "'kern' Horizontal Kerning lookup 15-1" uniFEBB dx=-128 dy=0 dh=-128 dv=0 dx=0 dy=0 dh=0 dv=0
PairPos2: "'kern' Horizontal Kerning lookup 15-1" uni0635 dx=-128 dy=0 dh=-128 dv=0 dx=0 dy=0 dh=0 dv=0
PairPos2: "'kern' Horizontal Kerning lookup 15-1" uniFEB7 dx=-128 dy=0 dh=-128 dv=0 dx=0 dy=0 dh=0 dv=0
PairPos2: "'kern' Horizontal Kerning lookup 15-1" uni0634 dx=-128 dy=0 dh=-128 dv=0 dx=0 dy=0 dh=0 dv=0
PairPos2: "'kern' Horizontal Kerning lookup 15-1" uniFEB3 dx=-128 dy=0 dh=-128 dv=0 dx=0 dy=0 dh=0 dv=0
PairPos2: "'kern' Horizontal Kerning lookup 15-1" uni0633 dx=-128 dy=0 dh=-128 dv=0 dx=0 dy=0 dh=0 dv=0
PairPos2: "'kern' Horizontal Kerning lookup 15-1" uni0630 dx=-128 dy=0 dh=-128 dv=0 dx=0 dy=0 dh=0 dv=0
PairPos2: "'kern' Horizontal Kerning lookup 15-1" uni062F dx=-128 dy=0 dh=-128 dv=0 dx=0 dy=0 dh=0 dv=0
PairPos2: "'kern' Horizontal Kerning lookup 15-1" uniFEA7 dx=-128 dy=0 dh=-128 dv=0 dx=0 dy=0 dh=0 dv=0
PairPos2: "'kern' Horizontal Kerning lookup 15-1" uniFEA3 dx=-128 dy=0 dh=-128 dv=0 dx=0 dy=0 dh=0 dv=0
PairPos2: "'kern' Horizontal Kerning lookup 15-1" uniFE9F dx=-128 dy=0 dh=-128 dv=0 dx=0 dy=0 dh=0 dv=0
PairPos2: "'kern' Horizontal Kerning lookup 15-1" uniFE9B dx=-128 dy=0 dh=-128 dv=0 dx=0 dy=0 dh=0 dv=0
PairPos2: "'kern' Horizontal Kerning lookup 15-1" uni062B dx=-128 dy=0 dh=-128 dv=0 dx=0 dy=0 dh=0 dv=0
PairPos2: "'kern' Horizontal Kerning lookup 15-1" uniFE97 dx=-128 dy=0 dh=-128 dv=0 dx=0 dy=0 dh=0 dv=0
PairPos2: "'kern' Horizontal Kerning lookup 15-1" uni062A dx=-128 dy=0 dh=-128 dv=0 dx=0 dy=0 dh=0 dv=0
PairPos2: "'kern' Horizontal Kerning lookup 15-1" uni0629 dx=-128 dy=0 dh=-128 dv=0 dx=0 dy=0 dh=0 dv=0
PairPos2: "'kern' Horizontal Kerning lookup 15-1" uniFE91 dx=-53 dy=0 dh=-53 dv=0 dx=0 dy=0 dh=0 dv=0
PairPos2: "'kern' Horizontal Kerning lookup 15-1" uni0628 dx=-128 dy=0 dh=-128 dv=0 dx=0 dy=0 dh=0 dv=0
PairPos2: "'kern' Horizontal Kerning lookup 15-1" uni0627 dx=-196 dy=0 dh=-196 dv=0 dx=0 dy=0 dh=0 dv=0
PairPos2: "'kern' Horizontal Kerning lookup 15-1" uni0622 dx=-196 dy=0 dh=-196 dv=0 dx=0 dy=0 dh=0 dv=0
PairPos2: "'kern' Horizontal Kerning lookup 15-1" uniFB94 dx=-235 dy=0 dh=-235 dv=0 dx=0 dy=0 dh=0 dv=0
PairPos2: "'kern' Horizontal Kerning lookup 15-1" afii57509 dx=-235 dy=0 dh=-235 dv=0 dx=0 dy=0 dh=0 dv=0
PairPos2: "'kern' Horizontal Kerning lookup 15-1" uniFB56 dx=-128 dy=0 dh=-128 dv=0 dx=0 dy=0 dh=0 dv=0
PairPos2: "'kern' Horizontal Kerning lookup 15-1" afii57506 dx=-128 dy=0 dh=-128 dv=0 dx=0 dy=0 dh=0 dv=0
Substitution2: "'fina' Terminal Forms in Arabic lookup 9 subtable" uniFEAE
EndChar

StartChar: uni0633
Encoding: 1587 1587 24
Width: 2350
VWidth: 3744
GlyphClass: 2
Flags: W
AnchorPoint: "Anchor-7" 471.746 -804.065 basechar 0
AnchorPoint: "Anchor-10" 654.203 981.759 basechar 0
LayerCount: 2
Fore
SplineSet
1924.19726562 0.93359375 m 16,0,1
 1768 1 1768 1 1679.984375 129.227539062 c 1,2,3
 1584 1 1584 1 1473.74121094 1.98046875 c 0,4,5
 1352 3 1352 3 1307 49.8779296875 c 1,6,7
 1310 -1 1310 -1 1293 -85.017578125 c 0,8,9
 1199 -541 1199 -541 665.975585938 -538.853515625 c 0,10,11
 455 -538 455 -538 308 -444.66796875 c 0,12,13
 108 -317 108 -317 106.9378438 -38 c 0,14,15
 106 157 106 157 209.79296875 384.94140625 c 1,16,-1
 320.0546875 352.40234375 l 1,17,18
 263 165 263 165 262.880859375 13.18359375 c 0,19,20
 263 -359 263 -359 677.813476562 -359.276367188 c 0,21,22
 993 -359 993 -359 1113.19140625 -164.387695312 c 0,23,24
 1155 -97 1155 -97 1155 -18 c 0,25,26
 1155 47 1155 47 1037.66699219 338.455078125 c 1,27,-1
 1134.31640625 484.686523438 l 1,28,29
 1158 516 1158 516 1185.24511719 455.676757812 c 0,30,31
 1261 291 1261 291 1261.33007812 289.373046875 c 0,32,33
 1324 180 1324 180 1448.89160156 185.19921875 c 0,34,35
 1592.78794628 190.991464223 1592.78794628 190.991464223 1603.50683594 321.958007812 c 2,36,-1
 1619.83105469 521.412109375 l 5,37,-1
 1743.29882812 521.412109375 l 5,38,-1
 1758.85449219 325.776367188 l 2,39,40
 1770 183 1770 183 1921.20703125 182.44140625 c 8,41,42
 2089 182 2089 182 2086.90234375 345.39453125 c 0,43,44
 2086 399 2086 399 2008.48828125 615.358398438 c 1,45,-1
 2088.99707031 708.455078125 l 1,46,47
 2134 759 2134 759 2160.66503906 703.78515625 c 0,48,49
 2241 538 2241 538 2238.48828125 376.721679688 c 0,50,51
 2236 234 2236 234 2157.19238281 125.884765625 c 0,52,53
 2065 1 2065 1 1924.19726562 0.93359375 c 16,0,1
EndSplineSet
Substitution2: "'fina' Terminal Forms in Arabic lookup 9 subtable" uniFEB2
Substitution2: "'medi' Medial Forms in Arabic lookup 11 subtable" uniFEB4
Substitution2: "'init' Initial Forms in Arabic lookup 13 subtable" uniFEB3
EndChar

StartChar: uni0635
Encoding: 1589 1589 26
Width: 2629
VWidth: 3745
GlyphClass: 2
Flags: W
AnchorPoint: "Anchor-7" 481.746 -812.466 basechar 0
AnchorPoint: "Anchor-10" 654.203 979.759 basechar 0
LayerCount: 2
Fore
SplineSet
1602.10058594 181.791015625 m 1,0,-1
 1913.24121094 181.791015625 l 2,1,2
 2172.60742188 181.986328125 2172.60742188 181.986328125 2277.30664062 263.028320312 c 0,3,4
 2351.25976562 320.271484375 2351.25976562 320.271484375 2351.52636719 422 c 0,5,6
 2351.69238281 485.348632812 2351.69238281 485.348632812 2312.75878906 534.0078125 c 0,7,8
 2267.91601562 590.052734375 2267.91601562 590.052734375 2166.30664062 590.014648438 c 0,9,10
 1939.56152344 589.927734375 1939.56152344 589.927734375 1602.10058594 181.791015625 c 1,0,-1
1261.33007812 279.373046875 m 24,11,12
 1316 186 1316 186 1452.34082031 184.841796875 c 1,13,14
 1818 768 1818 768 2174.01171875 766.310546875 c 0,15,16
 2282 766 2282 766 2358 721.756835938 c 0,17,18
 2519 629 2519 629 2513.99902344 427.048828125 c 0,19,20
 2510 244 2510 244 2348.49316406 125.741210938 c 0,21,22
 2177.0468624 0.0343601709374 2177.0468624 0.0343601709374 1821.74902344 0.013671875 c 2,23,-1
 1586.95019531 0 l 2,24,25
 1369 -0 1369 -0 1306 49.8779296875 c 1,26,27
 1310 -9 1310 -9 1293 -88.0849609375 c 0,28,29
 1196 -540 1196 -540 665.975585938 -538.853515625 c 4,30,31
 454 -538 454 -538 310 -446.41796875 c 0,32,33
 108 -318 108 -318 106.513589611 -42 c 0,34,35
 105 152 105 152 209.79296875 384.94140625 c 1,36,-1
 320.0546875 352.40234375 l 1,37,38
 263 165 263 165 262.880859375 13.18359375 c 0,39,40
 263 -359 263 -359 677.813476562 -359.276367188 c 0,41,42
 993 -359 993 -359 1113.19140625 -164.387695312 c 0,43,44
 1155 -97 1155 -97 1155 -18 c 0,45,46
 1155 47 1155 47 1037.66699219 338.455078125 c 1,47,-1
 1134.31640625 484.686523438 l 1,48,49
 1159 517 1159 517 1185.24511719 455.676757812 c 0,50,51
 1261 280 1261 280 1261.33007812 279.373046875 c 24,11,12
EndSplineSet
Substitution2: "'fina' Terminal Forms in Arabic lookup 9 subtable" uniFEBA
Substitution2: "'medi' Medial Forms in Arabic lookup 11 subtable" uniFEBC
Substitution2: "'init' Initial Forms in Arabic lookup 13 subtable" uniFEBB
EndChar

StartChar: uni0637
Encoding: 1591 1591 28
Width: 1608
VWidth: 3745
GlyphClass: 2
Flags: W
AnchorPoint: "Anchor-10" 495.708 1623.06 basechar 0
AnchorPoint: "Anchor-7" 722.507 -219.535 basechar 0
LayerCount: 2
Fore
SplineSet
579.793945312 183.791015625 m 1,0,-1
 890.934570312 183.791015625 l 2,1,2
 1150.30078125 183.986328125 1150.30078125 183.986328125 1255 265.028320312 c 0,3,4
 1328.953125 322.271484375 1328.953125 322.271484375 1329.21972656 424 c 0,5,6
 1329.38574219 487.348632812 1329.38574219 487.348632812 1290.45214844 536.0078125 c 0,7,8
 1245.609375 592.052734375 1245.609375 592.052734375 1144 592.014648438 c 0,9,10
 917.254882812 591.927734375 917.254882812 591.927734375 579.793945312 183.791015625 c 1,0,-1
270.19921875 1.2568359375 m 1,11,12
 108 128 108 128 106.317382812 164 c 0,13,14
 106 170 106 170 114.256835938 176.383789062 c 0,15,16
 119.649428897 181.6571783 119.649428897 181.6571783 134.399414062 181.657226562 c 2,17,-1
 432.862304688 181.658203125 l 1,18,19
 465 234 465 234 497.7890625 286.39453125 c 1,20,21
 498 310 498 310 475.507438683 777.770809725 c 0,22,23
 450 1312 450 1312 425.522460938 1429.796875 c 5,24,-1
 559.055664062 1494.75 l 6,25,26
 613.76340359 1520.88696459 613.76340359 1520.88696459 614.880859375 1452.04882812 c 6,27,-1
 631.05859375 455.458984375 l 1,28,29
 899 769 899 769 1137 769 c 128,-1,30
 1375 769 1375 769 1462.57421875 581.594726562 c 0,31,32
 1492 518 1492 518 1491.91894531 435.375 c 0,33,34
 1492 249 1492 249 1328.30078125 130.112304688 c 0,35,36
 1152.04706896 2.03420355325 1152.04706896 2.03420355325 799.443359375 2.013671875 c 2,37,-1
 564.647460938 2 l 1,38,-1
 270.19921875 1.2568359375 l 1,11,12
EndSplineSet
Substitution2: "'fina' Terminal Forms in Arabic lookup 9 subtable" uniFEC2
Substitution2: "'medi' Medial Forms in Arabic lookup 11 subtable" uniFEC4
Substitution2: "'init' Initial Forms in Arabic lookup 13 subtable" uniFEC3
EndChar

StartChar: uni0639
Encoding: 1593 1593 30
Width: 1285
VWidth: 3739
GlyphClass: 2
Flags: W
AnchorPoint: "Anchor-7" 428.136 -855.44 basechar 0
AnchorPoint: "Anchor-10" 716.051 1499.67 basechar 0
LayerCount: 2
Fore
SplineSet
1167.13085938 -423.568359375 m 1,0,1
 1173 -437 1173 -437 1173.33789062 -488.723632812 c 0,2,3
 1173 -605 1173 -605 1140.71679688 -610.404296875 c 0,4,5
 1007 -633 1007 -633 791.497070312 -633.19140625 c 0,6,7
 611 -633 611 -633 463.669921875 -594.03125 c 0,8,9
 335 -561 335 -561 262.694335938 -496.314453125 c 0,10,11
 106 -359 106 -359 105.989257812 -152.729492188 c 0,12,13
 106 234 106 234 447.766601562 413.391601562 c 1,14,15
 240 566 240 566 299.127929688 803.736328125 c 0,16,17
 332 935 332 935 441.2578125 1014 c 0,18,19
 554 1096 554 1096 700.419921875 1096.00878906 c 0,20,21
 881 1097 881 1097 995.583984375 992.750976562 c 0,22,23
 1003 986 1003 986 1011.28808594 977.672851562 c 1,24,25
 1007 958 1007 958 964.852539062 848.501953125 c 1,26,27
 624 980 624 980 463.205078125 797.178710938 c 0,28,29
 429 758 429 758 428.647460938 727.791992188 c 0,30,31
 429 657 429 657 541.40625 570.189453125 c 0,32,33
 618 511 618 511 752.333007812 533.08984375 c 0,34,35
 800 541 800 541 938.5625 561.759765625 c 1,36,-1
 1077.60449219 579.389648438 l 2,37,38
 1111 584 1111 584 1100.6086846 547 c 4,39,40
 1089.34325559 504.985958989 1089.34325559 504.985958989 1042.72167969 364.971679688 c 1,41,42
 673 361 673 361 480.227822604 246.634438579 c 0,43,44
 252 112 252 112 252.719726562 -123.53515625 c 0,45,46
 254 -456 254 -456 775.825195312 -453.583984375 c 0,47,48
 904 -453 904 -453 1167.13085938 -423.568359375 c 1,0,1
EndSplineSet
Substitution2: "'fina' Terminal Forms in Arabic lookup 9 subtable" uniFECA
Substitution2: "'medi' Medial Forms in Arabic lookup 11 subtable" uniFECC
Substitution2: "'init' Initial Forms in Arabic lookup 13 subtable" uniFECB
EndChar

StartChar: afii57440
Encoding: 1600 1600 32
Width: 245
VWidth: 3772
GlyphClass: 2
Flags: W
AnchorPoint: "Anchor-10" 139.034 1344.08 basechar 0
AnchorPoint: "Anchor-7" 124.768 -197.603 basechar 0
LayerCount: 2
Fore
SplineSet
-12.3662109375 0 m 1,0,-1
 -12.3662109375 179.999023438 l 1,1,-1
 259.340820312 179.999023438 l 1,2,-1
 259.340820312 0 l 1,3,-1
 -12.3662109375 0 l 1,0,-1
EndSplineSet
EndChar

StartChar: uni0643
Encoding: 1603 1603 35
Width: 1888
VWidth: 3705
GlyphClass: 2
Flags: W
AnchorPoint: "Anchor-10" 572.253 1604.45 basechar 0
AnchorPoint: "Anchor-7" 594.494 -204.19 basechar 0
LayerCount: 2
Fore
SplineSet
859.633789062 1197.10546875 m 0,0,1
 858.53515625 1151.81640625 858.53515625 1151.81640625 995.580566406 1127.65185547 c 128,-1,2
 1132.62597656 1103.48730469 1132.62597656 1103.48730469 1163.32421875 1010.41601562 c 0,3,4
 1199.23925781 901.521484375 1199.23925781 901.521484375 1137.52832031 815.630859375 c 0,5,6
 1064.34863281 713.770507812 1064.34863281 713.770507812 873.654296875 720.818359375 c 0,7,8
 779.21815107 724.307490243 779.21815107 724.307490243 680.5234375 755.338867188 c 1,9,-1
 694.244140625 895.8828125 l 1,10,11
 858.845391746 838.310280613 858.845391746 838.310280613 997.969726562 867.603515625 c 0,12,13
 1077.30178165 884.304899789 1077.30178165 884.304899789 1085.86621094 929.4765625 c 0,14,15
 1093.1015625 977.317382812 1093.1015625 977.317382812 950.265625 1008 c 0,16,17
 776.973632812 1044.90820312 776.973632812 1044.90820312 781.475585938 1213.74121094 c 0,18,19
 786.880859375 1397.54882812 786.880859375 1397.54882812 1099.30761719 1436.13964844 c 0,20,21
 1120.19042969 1438.78222656 1120.19042969 1438.78222656 1135.88964844 1433.35205078 c 128,-1,22
 1151.58886719 1427.921875 1151.58886719 1427.921875 1142.29296875 1401.31835938 c 2,23,-1
 1105.76660156 1296.78027344 l 1,24,25
 861.824094849 1272.36097733 861.824094849 1272.36097733 859.633789062 1197.10546875 c 0,0,1
288.557617188 732.236328125 m 1,26,27
 220 477 220 477 296.94921875 362.341796875 c 0,28,29
 414 190 414 190 760.633789062 181.987304688 c 0,30,31
 1113 174 1113 174 1315.89550781 225.599609375 c 0,32,33
 1428 254 1428 254 1535.30078125 321.086914062 c 0,34,35
 1581 350 1581 350 1584.56933594 526.73828125 c 0,36,37
 1588 694 1588 694 1585.88720703 724.09765625 c 0,38,39
 1581 791 1581 791 1574.0231904 996.764439161 c 0,40,41
 1567 1203 1567 1203 1543.86523438 1409.42089844 c 5,42,-1
 1695.09472656 1502.51171875 l 6,43,44
 1731.89941406 1524.93870781 1731.89941406 1524.93870781 1731.89941406 1479.92382812 c 6,45,-1
 1731.89941406 711.608398438 l 1,46,47
 1750 257 1750 257 1591.63085938 152.662109375 c 0,48,49
 1364 2 1364 2 875.678710938 2 c 0,50,51
 486 2 486 2 307.030273438 100.591796875 c 0,52,53
 104 212 104 212 106.384765625 457.866210938 c 0,54,55
 108 610 108 610 186.997070312 766.758789062 c 1,56,-1
 288.557617188 732.236328125 l 1,26,27
EndSplineSet
Substitution2: "'fina' Terminal Forms in Arabic lookup 9 subtable" uniFEDA
Substitution2: "'medi' Medial Forms in Arabic lookup 11 subtable" uniFEDC
Substitution2: "'init' Initial Forms in Arabic lookup 13 subtable" uniFEDB
EndChar

StartChar: uni0644
Encoding: 1604 1604 36
Width: 1375
VWidth: 3705
GlyphClass: 2
Flags: W
AnchorPoint: "Anchor-10" 570.799 1191.28 basechar 0
AnchorPoint: "Anchor-7" 572.152 -848.482 basechar 0
LayerCount: 2
Fore
SplineSet
679.438476562 -315.000976562 m 24,0,1
 946 -309 946 -309 1045.3125 -141.010742188 c 0,2,3
 1084 -75 1084 -75 1079.58104872 143 c 0,4,5
 1062 982 1062 982 1018.40039062 1423.98046875 c 5,6,-1
 1139 1487 l 6,7,8
 1194.46342309 1516.24435036 1194.46342309 1516.24435036 1195.86132812 1458.37304688 c 6,9,-1
 1227.12597656 164.060546875 l 2,10,11
 1243 -487 1243 -487 676.587890625 -495.586914062 c 24,12,13
 460 -499 460 -499 311 -405.897460938 c 0,14,15
 106 -276 106 -276 107.5390625 13 c 0,16,17
 109 202 109 202 209.825195312 425.009765625 c 1,18,-1
 320.032226562 392.3203125 l 1,19,20
 262 201 262 201 261.076171875 61 c 0,21,22
 259 -324 259 -324 679.438476562 -315.000976562 c 24,0,1
EndSplineSet
Substitution2: "'fina' Terminal Forms in Arabic lookup 9 subtable" uniFEDE
Substitution2: "'medi' Medial Forms in Arabic lookup 11 subtable" uniFEE0
Substitution2: "'init' Initial Forms in Arabic lookup 13 subtable" uniFEDF
EndChar

StartChar: uni0645
Encoding: 1605 1605 37
Width: 1116
VWidth: 3775
GlyphClass: 2
Flags: W
AnchorPoint: "Anchor-10" 585.394 1297.86 basechar 0
AnchorPoint: "Anchor-7" 206.665 -888.897 basechar 0
LayerCount: 2
Fore
SplineSet
667.024414062 68.6806640625 m 0,0,1
 517 95 517 95 399.590602687 94.7998046875 c 0,2,3
 282 95 282 95 250.184570312 76.5595703125 c 1,4,-1
 263.3984375 -517.263671875 l 2,5,6
 265 -607 265 -607 177.186523438 -696.890625 c 0,7,8
 122.075615216 -752.923120315 122.075615216 -752.923120315 120.072265625 -692.62890625 c 2,9,-1
 106.69140625 -289.909179688 l 2,10,11
 99 -46 99 -46 130.040039062 75.455078125 c 0,12,13
 171 234 171 234 290.078125 276.318359375 c 1,14,15
 363 556 363 556 456.986328125 667.043945312 c 4,16,17
 581 813 581 813 779.755859375 697.823242188 c 4,18,19
 970 588 970 588 1015.14550781 345.657226562 c 0,20,21
 1039 216 1039 216 909.490234375 90.28125 c 0,22,23
 853 35 853 35 821.215820312 42.0224609375 c 0,24,25
 817 43 817 43 667.024414062 68.6806640625 c 0,0,1
412.135742188 283.193359375 m 1,26,27
 584.8203125 273.713867188 584.8203125 273.713867188 685.897460938 254.643554688 c 128,-1,28
 786.974609375 235.573242188 786.974609375 235.573242188 821.884277344 235.573242188 c 128,-1,29
 856.793945312 235.573242188 856.793945312 235.573242188 856.793945312 258.25390625 c 0,30,31
 856.793945312 307.635742188 856.793945312 307.635742188 823.18359375 381.678710938 c 0,32,33
 763.46875 513.228515625 763.46875 513.228515625 645.223632812 544.03515625 c 0,34,35
 630.70703125 547.81640625 630.70703125 547.81640625 612.718261719 547.81640625 c 128,-1,36
 594.729492188 547.81640625 594.729492188 547.81640625 572.344726562 540.4921875 c 0,37,38
 527.6497944 525.867520548 527.6497944 525.867520548 492.280951888 470.798506368 c 128,-1,39
 456.912109375 415.729492188 456.912109375 415.729492188 412.135742188 283.193359375 c 1,26,27
EndSplineSet
Substitution2: "'init' Initial Forms in Arabic lookup 13 subtable" uniFEE3
Substitution2: "'medi' Medial Forms in Arabic lookup 11 subtable" uniFEE4
Substitution2: "'fina' Terminal Forms in Arabic lookup 9 subtable" uniFEE2
EndChar

StartChar: uni0647
Encoding: 1607 1607 39
Width: 873
VWidth: 3738
GlyphClass: 2
Flags: W
AnchorPoint: "Anchor-10" 377.369 1133.95 basechar 0
AnchorPoint: "Anchor-7" 420.886 -224.499 basechar 0
LayerCount: 2
Fore
SplineSet
368.119140625 596.525390625 m 1,0,1
 245 431 245 431 243.873046875 312.25390625 c 0,2,3
 243 186 243 186 447.697265625 185.846679688 c 0,4,5
 621 186 621 186 642.94921875 293.65625 c 0,6,7
 669 424 669 424 436.822265625 559.926757812 c 0,8,9
 382 592 382 592 368.119140625 596.525390625 c 1,0,1
312.573242188 775.623046875 m 0,10,11
 331.541015625 802.034179688 331.541015625 802.034179688 348.365554853 802.034179688 c 128,-1,12
 365.19009408 802.034179688 365.19009408 802.034179688 375.379882812 798.002929688 c 0,13,14
 776.360351562 646.233398438 776.360351562 646.233398438 776.360351562 332.854492188 c 0,15,16
 776.360351562 180.600957614 776.360351562 180.600957614 684.12890625 93.462890625 c 128,-1,17
 591.920365809 6.345703125 591.920365809 6.345703125 432.374023438 6.345703125 c 128,-1,18
 272.774414062 6.345703125 272.774414062 6.345703125 173.868164062 118.68359375 c 0,19,20
 109.25 190.743164062 109.25 190.743164062 109.25 296.484375 c 0,21,22
 109.25 493.137695312 109.25 493.137695312 312.573242188 775.623046875 c 0,10,11
EndSplineSet
Substitution2: "'fina' Terminal Forms in Arabic lookup 9 subtable" uniFEEA
Substitution2: "'medi' Medial Forms in Arabic lookup 11 subtable" uniFEEC
Substitution2: "'init' Initial Forms in Arabic lookup 13 subtable" uniFEEB
EndChar

StartChar: uni0648
Encoding: 1608 1608 40
Width: 823
VWidth: 3773
GlyphClass: 2
Flags: W
AnchorPoint: "Anchor-10" 377.254 1167.8 basechar 0
AnchorPoint: "Anchor-7" 294.319 -722.576 basechar 0
LayerCount: 2
Fore
SplineSet
75.4892578125 -401.139648438 m 4,0,1
 525 -284 525 -284 577.234375 1.3994140625 c 5,2,-1
 435.596679688 -2.8583984375 l 2,3,4
 239 -9 239 -9 163.696289062 87.0751953125 c 0,5,6
 88 184 88 184 115.00390625 351.259765625 c 0,7,8
 140 510 140 510 223.411132812 605.16796875 c 0,9,10
 305 698 305 698 405.264648438 697.603515625 c 0,11,12
 573 697 573 697 665.154296875 515.181640625 c 0,13,14
 733 381 733 381 735.228515625 168 c 0,15,16
 735.988770438 78.7341823957 735.988770438 78.7341823957 723.007456641 1 c 4,17,18
 706.692056276 -96.6992258036 706.692056276 -96.6992258036 668.669921875 -176.182617188 c 4,19,20
 586 -349 586 -349 397.126953125 -450.125976562 c 4,21,22
 271.802184367 -519.843066468 271.802184367 -519.843066468 187.512695312 -539.489257812 c 4,23,24
 137 -551 137 -551 119.215820312 -530.079101562 c 4,25,26
 82 -486 82 -486 68.50390625 -459.551757812 c 4,27,28
 43.5699588376 -410.129725809 43.5699588376 -410.129725809 75.4892578125 -401.139648438 c 4,0,1
584.149414062 177.405273438 m 1,29,30
 571 381 571 381 513.8671875 454 c 0,31,32
 468 512 468 512 394.814453125 511.741210938 c 0,33,34
 310 512 310 512 273.006835938 405.997070312 c 0,35,36
 248 336 248 336 254.434570312 273.140625 c 0,37,38
 269 143 269 143 584.149414062 177.405273438 c 1,29,30
EndSplineSet
Substitution2: "'fina' Terminal Forms in Arabic lookup 9 subtable" uniFEEE
EndChar

StartChar: uni0649
Encoding: 1609 1609 41
Width: 1474
VWidth: 3745
GlyphClass: 2
Flags: W
AnchorPoint: "Anchor-10" 580.513 1094.08 basechar 0
AnchorPoint: "Anchor-7" 518.071 -692.887 basechar 0
LayerCount: 2
Fore
SplineSet
1385.69921875 712.220703125 m 1,0,1
 1380 651 1380 651 1347.77441406 516.538085938 c 1,2,-1
 1301.8515625 518.766601562 l 2,3,4
 1110 528 1110 528 1018.12109375 436.591796875 c 0,5,6
 931 350 931 350 899.73046875 204.78125 c 1,7,-1
 1162 154.534597685 l 2,8,9
 1315 125 1315 125 1314.2265625 3.7255859375 c 0,10,11
 1313 -138 1313 -138 1227.57226562 -250 c 0,12,13
 1048 -483 1048 -483 685.8359375 -485.000976562 c 0,14,15
 372 -487 372 -487 225.265625 -333.978515625 c 4,16,17
 71 -172 71 -172 116.545898438 119.610351562 c 0,18,19
 143 289 143 289 215.346679688 425.509765625 c 1,20,-1
 325.611328125 395.131835938 l 1,21,22
 212 43 212 43 295.248046875 -122.543945312 c 0,23,24
 387 -306 387 -306 691.28125 -303.990234375 c 0,25,26
 1000 -302 1000 -302 1148.43554688 -130.353515625 c 0,27,28
 1229 -38 1229 -38 1157.15625 -26.005859375 c 0,29,-1
 913 17 l 0,30,31
 790 38 790 38 766.2890625 100.896484375 c 0,32,33
 743 161 743 161 789.98046875 320.5 c 0,34,35
 875 609 875 609 1104.56054688 702.146484375 c 0,36,37
 1239 757 1239 757 1385.69921875 712.220703125 c 1,0,1
EndSplineSet
Substitution2: "'fina' Terminal Forms in Arabic lookup 9 subtable" uniFEF0
Substitution2: "'medi' Medial Forms in Arabic lookup 11 subtable" uniFBE9
Substitution2: "'init' Initial Forms in Arabic lookup 13 subtable" uniFBE8
EndChar

StartChar: uni064B
Encoding: 1611 1611 43
Width: -25
VWidth: 2402
GlyphClass: 4
Flags: W
AnchorPoint: "Anchor-10" 637 1153.3 mark 0
AnchorPoint: "Anchor-9" 637 1153.3 mark 0
AnchorPoint: "Anchor-1" 595.196 1727 basemark 0
AnchorPoint: "Anchor-1" 637 1153.3 mark 0
LayerCount: 2
Fore
SplineSet
326.28125 1112.92480469 m 1,0,-1
 326.28125 1209.83007812 l 1,1,-1
 831.359375 1416.36132812 l 1,2,-1
 831.359375 1319.453125 l 1,3,-1
 326.28125 1112.92480469 l 1,0,-1
326.28125 1398.76171875 m 1,4,-1
 326.28125 1495.66699219 l 1,5,-1
 831.359375 1702.19628906 l 1,6,-1
 831.359375 1605.29003906 l 1,7,-1
 326.28125 1398.76171875 l 1,4,-1
EndSplineSet
EndChar

StartChar: uni064C
Encoding: 1612 1612 44
Width: -25
VWidth: 2402
GlyphClass: 4
Flags: W
AnchorPoint: "Anchor-10" 706.932 1262.33 mark 0
AnchorPoint: "Anchor-9" 706.932 1262.33 mark 0
AnchorPoint: "Anchor-1" 593.593 1985.74 basemark 0
AnchorPoint: "Anchor-1" 706.932 1262.33 mark 0
LayerCount: 2
Fore
SplineSet
682.081054688 1807.66210938 m 0,0,1
 635.4140625 1807.66210938 635.4140625 1807.66210938 612.619140625 1787.10839844 c 128,-1,2
 589.82421875 1766.5546875 589.82421875 1766.5546875 589.82421875 1724.77636719 c 0,3,4
 589.82421875 1662.24414062 589.82421875 1662.24414062 671.62109375 1632.5 c 0,5,6
 691.80078125 1625.15917969 691.80078125 1625.15917969 734.59765625 1611.84960938 c 1,7,-1
 750.127929688 1648.07714844 l 2,8,9
 753.275390625 1655.41894531 753.275390625 1655.41894531 755.631835938 1662.59375 c 128,-1,10
 757.989257812 1669.76953125 757.989257812 1669.76953125 759.5546875 1676.76660156 c 128,-1,11
 761.119140625 1683.76367188 761.119140625 1683.76367188 761.899414062 1690.58398438 c 128,-1,12
 762.6796875 1697.40429688 762.6796875 1697.40429688 762.6796875 1704.06542969 c 0,13,14
 762.6796875 1730.89160156 762.6796875 1730.89160156 755.590820312 1751.54394531 c 0,15,16
 745.873046875 1779.85546875 745.873046875 1779.85546875 727.615234375 1793.75878906 c 128,-1,17
 709.357421875 1807.66210938 709.357421875 1807.66210938 682.081054688 1807.66210938 c 0,0,1
331.27734375 1567.06640625 m 2,18,19
 337.979492188 1470.17773438 337.979492188 1470.17773438 347.932617188 1437.5625 c 0,20,21
 380.119140625 1332.10449219 380.119140625 1332.10449219 461.352539062 1334.04101562 c 0,22,23
 502.084960938 1335.01171875 502.084960938 1335.01171875 542.538085938 1354.87304688 c 128,-1,24
 582.9921875 1374.73339844 582.9921875 1374.73339844 623.202148438 1413.64648438 c 0,25,26
 669.795898438 1458.98242188 669.795898438 1458.98242188 696.400390625 1512.19335938 c 2,27,-1
 710.188476562 1539.77441406 l 1,28,-1
 680.01953125 1546.17675781 l 2,29,30
 553.680664062 1572.95605469 553.680664062 1572.95605469 512.194335938 1674.70019531 c 0,31,32
 505.251953125 1691.72070312 505.251953125 1691.72070312 505.251953125 1724.09570312 c 0,33,34
 505.251953125 1756.26171875 505.251953125 1756.26171875 514.016601562 1782.41113281 c 0,35,36
 550.029296875 1889.87402344 550.029296875 1889.87402344 671.806640625 1889.87402344 c 128,-1,37
 793.41796875 1889.87402344 793.41796875 1889.87402344 832.646484375 1785.16113281 c 0,38,39
 844.892578125 1752.47265625 844.892578125 1752.47265625 844.892578125 1710.29882812 c 128,-1,40
 844.892578125 1668.29785156 844.892578125 1668.29785156 831.830078125 1626.85449219 c 2,41,-1
 822.553710938 1597.48730469 l 1,42,-1
 853.311523438 1595.87207031 l 2,43,44
 873.525390625 1594.80566406 873.525390625 1594.80566406 911.638671875 1593.8515625 c 2,45,-1
 914.563476562 1593.77832031 l 1,46,-1
 914.563476562 1511.375 l 1,47,-1
 911.51171875 1511.42773438 l 2,48,49
 876.284179688 1512.04101562 876.284179688 1512.04101562 861.571289062 1513.51855469 c 2,50,-1
 782.775390625 1521.09179688 l 1,51,52
 721.950195312 1383.44628906 721.950195312 1383.44628906 600.155273438 1297.7421875 c 0,53,54
 538.19140625 1254.13867188 538.19140625 1254.13867188 470.0390625 1253.82128906 c 0,55,56
 279.547851562 1252.93457031 279.547851562 1252.93457031 272.821289062 1566.79492188 c 2,57,-1
 272.754882812 1569.859375 l 1,58,-1
 331.083984375 1569.859375 l 1,59,-1
 331.27734375 1567.06640625 l 2,18,19
EndSplineSet
EndChar

StartChar: uni064D
Encoding: 1613 1613 45
Width: -24
VWidth: 2231
GlyphClass: 4
Flags: W
AnchorPoint: "Anchor-7" 534.761 70.6797 mark 0
AnchorPoint: "Anchor-6" 534.761 70.6797 mark 0
AnchorPoint: "Anchor-0" 614.975 -455.578 basemark 0
AnchorPoint: "Anchor-0" 534.761 70.6797 mark 0
LayerCount: 2
Fore
SplineSet
301.962890625 -494.516601562 m 1,0,-1
 301.962890625 -393.424804688 l 1,1,-1
 780.14453125 -197.892578125 l 1,2,-1
 780.14453125 -298.983398438 l 1,3,-1
 301.962890625 -494.516601562 l 1,0,-1
301.962890625 -229.854492188 m 1,4,-1
 301.962890625 -128.76171875 l 1,5,-1
 780.14453125 66.7705078125 l 1,6,-1
 780.14453125 -34.3212890625 l 1,7,-1
 301.962890625 -229.854492188 l 1,4,-1
EndSplineSet
EndChar

StartChar: uni064E
Encoding: 1614 1614 46
Width: -24
VWidth: 2231
GlyphClass: 4
Flags: W
AnchorPoint: "Anchor-10" 541.027 1314.54 mark 0
AnchorPoint: "Anchor-9" 541.027 1314.54 mark 0
AnchorPoint: "Anchor-1" 520.452 1629.02 basemark 0
AnchorPoint: "Anchor-1" 541.027 1314.54 mark 0
LayerCount: 2
Fore
SplineSet
267.21875 1291.70019531 m 1,0,-1
 267.21875 1392.79296875 l 1,1,-1
 745.401367188 1588.32519531 l 1,2,-1
 745.401367188 1487.23339844 l 1,3,-1
 267.21875 1291.70019531 l 1,0,-1
EndSplineSet
EndChar

StartChar: uni064F
Encoding: 1615 1615 47
Width: -24
VWidth: 2231
GlyphClass: 4
Flags: W
AnchorPoint: "Anchor-10" 597.961 1261.64 mark 0
AnchorPoint: "Anchor-9" 597.961 1261.64 mark 0
AnchorPoint: "Anchor-1" 528.853 1858.42 basemark 0
AnchorPoint: "Anchor-1" 597.961 1261.64 mark 0
LayerCount: 2
Fore
SplineSet
791.53125 1418.96386719 m 1,0,1
 737.403118743 1420.05195662 737.403118743 1420.05195662 666.219726562 1427.66113281 c 1,2,3
 613.530911695 1353.51764752 613.530911695 1353.51764752 523.468092566 1297.92483938 c 128,-1,4
 433.388997783 1242.32198483 433.388997783 1242.32198483 305.546875 1235.00097656 c 1,5,-1
 305.546875 1311.64160156 l 1,6,7
 459.386702053 1319.56060433 459.386702053 1319.56060433 554.650390625 1423.61230469 c 1,8,-1
 581.120117188 1451.4921875 l 1,9,10
 482.564496235 1478.18002467 482.564496235 1478.18002467 444 1526 c 4,11,12
 412 1565 412 1565 412.155761719 1623.29785156 c 0,13,14
 412 1699 412 1699 470 1743 c 0,15,16
 533 1791 533 1791 609.870117188 1769.41308594 c 0,17,18
 648.516601562 1758.59375 648.516601562 1758.59375 677.844726562 1729.57128906 c 0,19,20
 726.754969688 1681.17079907 726.754969688 1681.17079907 727.021484375 1603.67773438 c 0,21,22
 726.756835938 1571.12988281 726.756835938 1571.12988281 712.696289062 1525.93945312 c 2,23,-1
 704.4375 1499.3984375 l 1,24,-1
 732.193359375 1497.75878906 l 2,25,26
 763.574501539 1495.91399151 763.574501539 1495.91399151 791.53125 1495.62890625 c 1,27,-1
 791.53125 1418.96386719 l 1,0,1
624.38671875 1512.61425781 m 1,28,29
 649.851791442 1573.25598795 649.851791442 1573.25598795 648.895719723 1614 c 0,30,31
 647.485729449 1674.0882336 647.485729449 1674.0882336 604 1688.80306403 c 0,32,33
 565 1702 565 1702 536 1688 c 0,34,35
 501 1670 501 1670 492.629882812 1633.48925781 c 0,36,37
 476.825808147 1559.57427236 476.825808147 1559.57427236 600.418945312 1520.04785156 c 0,38,39
 611.1174251 1516.62503855 611.1174251 1516.62503855 624.38671875 1512.61425781 c 1,28,29
EndSplineSet
EndChar

StartChar: uni0650
Encoding: 1616 1616 48
Width: -24
VWidth: 2231
GlyphClass: 4
Flags: W
AnchorPoint: "Anchor-7" 549.05 -18.2773 mark 0
AnchorPoint: "Anchor-6" 549.05 -18.2773 mark 0
AnchorPoint: "Anchor-0" 595.143 -318.976 basemark 0
AnchorPoint: "Anchor-0" 549.05 -18.2773 mark 0
LayerCount: 2
Fore
SplineSet
312.181640625 -337.149414062 m 1,0,-1
 312.181640625 -236.056640625 l 1,1,-1
 790.362304688 -40.5263671875 l 1,2,-1
 790.362304688 -141.6171875 l 1,3,-1
 312.181640625 -337.149414062 l 1,0,-1
EndSplineSet
EndChar

StartChar: uni0651
Encoding: 1617 1617 49
Width: -24
VWidth: 2231
GlyphClass: 4
Flags: W
AnchorPoint: "Anchor-10" 589.815 1342.68 mark 0
AnchorPoint: "Anchor-9" 589.815 1342.68 mark 0
AnchorPoint: "Anchor-1" 560.134 1778.24 basemark 0
AnchorPoint: "Anchor-1" 589.815 1342.68 mark 0
LayerCount: 2
Fore
SplineSet
589.624023438 1609.57910156 m 0,0,1
 589.001953125 1501.4296875 589.001953125 1501.4296875 693.940429688 1501.37597656 c 0,2,3
 734.927734375 1501.40332031 734.927734375 1501.40332031 755.041992188 1522.78125 c 128,-1,4
 775.155273438 1544.16015625 775.155273438 1544.16015625 775.155273438 1587.88769531 c 0,5,6
 775.155273438 1677.109375 775.155273438 1677.109375 768.518554688 1719.46484375 c 2,7,-1
 768.274414062 1721.01953125 l 1,8,-1
 769.415039062 1722.10351562 l 2,9,10
 805.2890625 1756.20898438 805.2890625 1756.20898438 846.075195312 1722.88671875 c 2,11,-1
 846.989257812 1722.140625 l 1,12,-1
 847.149414062 1720.97070312 l 2,13,14
 857.791015625 1643.27148438 857.791015625 1643.27148438 857.391601562 1583.41015625 c 0,15,16
 857.592773438 1483.8359375 857.592773438 1483.8359375 818.15234375 1433.35351562 c 128,-1,17
 778.712890625 1382.87207031 778.712890625 1382.87207031 699.985351562 1382.79101562 c 0,18,19
 605.83984375 1382.9453125 605.83984375 1382.9453125 566.563476562 1453.55566406 c 1,20,21
 530.669921875 1312.39160156 530.669921875 1312.39160156 412.158203125 1312.39160156 c 0,22,23
 406.493164062 1312.39160156 406.493164062 1312.39160156 401.021484375 1312.62402344 c 128,-1,24
 395.549804688 1312.85644531 395.549804688 1312.85644531 390.272460938 1313.32128906 c 0,25,26
 230.986328125 1327.36425781 230.986328125 1327.36425781 251.323242188 1550.8203125 c 0,27,28
 252.833984375 1567.01464844 252.833984375 1567.01464844 255.591796875 1587.50878906 c 128,-1,29
 258.349609375 1608.00195312 258.349609375 1608.00195312 262.356445312 1632.82421875 c 2,30,-1
 262.515625 1633.80957031 l 1,31,-1
 263.233398438 1634.50390625 l 2,32,33
 302.798828125 1672.72265625 302.798828125 1672.72265625 336.203125 1633.71777344 c 2,34,-1
 337.091796875 1632.68066406 l 1,35,-1
 336.892578125 1631.33007812 l 2,36,37
 330.797851562 1589.92285156 330.797851562 1589.92285156 327.86328125 1562.61914062 c 128,-1,38
 324.9296875 1535.31640625 324.9296875 1535.31640625 325.171875 1522.50195312 c 0,39,40
 324.924804688 1473.40332031 324.924804688 1473.40332031 348.555664062 1449.36523438 c 128,-1,41
 372.186523438 1425.32714844 372.186523438 1425.32714844 420.577148438 1425.38183594 c 0,42,43
 464.064453125 1425.32714844 464.064453125 1425.32714844 487.010742188 1456.87109375 c 128,-1,44
 509.958007812 1488.4140625 509.958007812 1488.4140625 512.455078125 1552.94238281 c 0,45,46
 514.1796875 1598.54785156 514.1796875 1598.54785156 513.706054688 1686.78710938 c 2,47,-1
 513.69921875 1688.17871094 l 1,48,-1
 514.756835938 1689.08300781 l 2,49,50
 553.583007812 1722.28125 553.583007812 1722.28125 586.87890625 1688.79394531 c 2,51,-1
 587.708007812 1687.95996094 l 1,52,-1
 587.749023438 1686.78417969 l 2,53,54
 589.006835938 1650.92871094 589.006835938 1650.92871094 589.624023438 1609.57910156 c 0,0,1
EndSplineSet
EndChar

StartChar: uni0652
Encoding: 1618 1618 50
Width: -31
VWidth: 2789
GlyphClass: 4
Flags: W
AnchorPoint: "Anchor-10" 711.878 1488.92 mark 0
AnchorPoint: "Anchor-9" 711.878 1488.92 mark 0
AnchorPoint: "Anchor-1" 702.956 2081.45 basemark 0
AnchorPoint: "Anchor-1" 711.878 1488.92 mark 0
LayerCount: 2
Fore
SplineSet
713.103515625 1613.2265625 m 128,-1,1
 775.150376836 1613.2265625 775.150376836 1613.2265625 817.670898438 1655.75488281 c 128,-1,2
 860.19921875 1698.27930448 860.19921875 1698.27930448 860.19921875 1759.484375 c 128,-1,3
 860.19921875 1820.69140625 860.19921875 1820.69140625 817.672851562 1863.21777344 c 128,-1,4
 775.146484375 1905.74511719 775.146484375 1905.74511719 713.099609375 1905.74511719 c 128,-1,5
 651.052744008 1905.74511719 651.052744008 1905.74511719 608.952148438 1863.63867188 c 128,-1,6
 566.844726562 1821.53320312 566.844726562 1821.53320312 566.844726562 1759.48583984 c 0,7,8
 566.844726562 1697.43847656 566.844726562 1697.43847656 608.951171875 1655.33203125 c 128,-1,0
 651.056640625 1613.2265625 651.056640625 1613.2265625 713.103515625 1613.2265625 c 128,-1,1
938.178710938 1760.04003906 m 128,-1,10
 938.178710938 1665.77050781 938.178710938 1665.77050781 873.120117188 1600.29492188 c 128,-1,11
 808.119140625 1534.88378906 808.119140625 1534.88378906 713.916015625 1534.88378906 c 128,-1,12
 619.706054688 1534.88378906 619.706054688 1534.88378906 554.71484375 1600.29492188 c 128,-1,13
 489.654296875 1665.77246094 489.654296875 1665.77246094 489.654296875 1760.04003906 c 128,-1,14
 489.654296875 1854.26855469 489.654296875 1854.26855469 554.666992188 1919.29296875 c 128,-1,15
 619.676757812 1984.30371094 619.676757812 1984.30371094 713.916015625 1984.30371094 c 128,-1,16
 808.156252321 1984.30371094 808.156252321 1984.30371094 873.165039062 1919.29296875 c 128,-1,9
 938.178710938 1854.26953125 938.178710938 1854.26953125 938.178710938 1760.04003906 c 128,-1,10
EndSplineSet
EndChar

StartChar: uni0653
Encoding: 1619 1619 51
Width: -3
VWidth: 2759
GlyphClass: 4
Flags: W
AnchorPoint: "Anchor-10" 485.314 1565.6 mark 0
AnchorPoint: "Anchor-9" 485.314 1565.6 mark 0
AnchorPoint: "Anchor-1" 455.074 2023.52 basemark 0
AnchorPoint: "Anchor-1" 485.314 1565.6 mark 0
LayerCount: 2
Fore
SplineSet
362.12890625 1670.21582031 m 1,0,1
 268 1662 268 1662 177.368164062 1582.37890625 c 1,2,3
 150 1600 150 1600 134.283203125 1620.86230469 c 1,4,5
 215 1831 215 1831 314.73828125 1831.14941406 c 4,6,7
 384 1831 384 1831 465.94140625 1820.47558594 c 132,-1,8
 548 1810 548 1810 582.85546875 1809.96875 c 4,9,10
 708 1810 708 1810 757.977539062 1822.60351562 c 4,11,12
 811 1836 811 1836 820.592773438 1829.48730469 c 5,13,14
 833 1816 833 1816 801.384765625 1769.48925781 c 4,15,16
 776 1733 776 1733 728.657226562 1698.57617188 c 0,17,18
 653 1645 653 1645 362.12890625 1670.21582031 c 1,0,1
EndSplineSet
EndChar

StartChar: uni0657
Encoding: 1623 1623 54
Width: -34
VWidth: 3005
GlyphClass: 4
Flags: W
AnchorPoint: "Anchor-10" 743.995 1752.27 mark 0
AnchorPoint: "Anchor-9" 743.995 1752.27 mark 0
AnchorPoint: "Anchor-1" 743.995 2711.73 basemark 0
AnchorPoint: "Anchor-1" 743.995 1752.27 mark 0
LayerCount: 2
Fore
SplineSet
346.939453125 2337.88791595 m 1,0,1
 417.403375079 2335.96334391 417.403375079 2335.96334391 513.786977564 2326.01391817 c 1,2,3
 596.644642021 2449.75296673 596.644642021 2449.75296673 711.51958869 2521.26743707 c 0,4,5
 871.884004803 2620.16984344 871.884004803 2620.16984344 1014.69238281 2633.57649374 c 1,6,-1
 1014.69238281 2539.58189734 l 1,7,8
 895.963038063 2530.16866458 895.963038063 2530.16866458 724.589569309 2399.0105334 c 0,9,10
 688.65353045 2370.90141887 688.65353045 2370.90141887 658.857611413 2339.53569478 c 2,11,-1
 617.522009126 2296.02409756 l 1,12,-1
 676.403024639 2282.92686625 l 2,13,14
 686.237733178 2280.75670371 686.237733178 2280.75670371 733.408748699 2256.07347266 c 0,15,16
 830.209071663 2204.53763515 830.209071663 2204.53763515 848.677334118 2108.90087834 c 128,-1,17
 867.145596573 2013.26412154 867.145596573 2013.26412154 810.16577341 1943.09467376 c 128,-1,18
 753.185950247 1872.92522599 753.185950247 1872.92522599 653.797822658 1873.45370496 c 128,-1,19
 554.409695068 1873.98218393 554.409695068 1873.98218393 494.203509735 1932.07586924 c 128,-1,20
 433.997324401 1990.16955456 433.997324401 1990.16955456 434.028319766 2093.24464192 c 0,21,22
 433.997294914 2135.23096282 433.997294914 2135.23096282 453.159700588 2196.82184085 c 2,23,-1
 466.05073013 2238.25410581 l 1,24,-1
 422.730291066 2240.81188851 l 2,25,26
 386.110891581 2242.99392773 386.110891581 2242.99392773 346.939453125 2243.61609684 c 1,27,-1
 346.939453125 2337.88791595 l 1,0,1
627.271484375 1967.77539062 m 0,28,29
 752.862304688 1967.77539062 752.862304688 1967.77539062 752.862304688 2075.53710938 c 0,30,31
 752.862304688 2153.13917103 752.862304688 2153.13917103 665.095793259 2188.2493423 c 0,32,33
 634.607589685 2200.45363058 634.607589685 2200.45363058 565.395678366 2221.77574768 c 1,34,-1
 544.508414709 2173.05059243 l 2,35,36
 528.478515625 2135.65078296 528.478515625 2135.65078296 528.478515625 2093.93759995 c 0,37,38
 528.478515625 2052.22441695 528.478515625 2052.22441695 545.744264664 2022.14173716 c 0,39,40
 576.947458757 1967.77539062 576.947458757 1967.77539062 627.271484375 1967.77539062 c 0,28,29
EndSplineSet
EndChar

StartChar: uni065A
Encoding: 1626 1626 55
Width: 1473
VWidth: 3008
GlyphClass: 4
Flags: W
AnchorPoint: "Anchor-10" 743.995 1755.27 mark 0
AnchorPoint: "Anchor-9" 743.995 1755.27 mark 0
AnchorPoint: "Anchor-1" 741.044 2419.52 basemark 0
AnchorPoint: "Anchor-1" 743.995 1755.27 mark 0
LayerCount: 2
Fore
SplineSet
652.322265625 1877.75097656 m 1,0,-1
 401.5234375 2297.03613281 l 1,1,-1
 535.5390625 2297.03613281 l 1,2,-1
 743.995117188 1984.34179688 l 1,3,-1
 952.453125 2297.03613281 l 1,4,-1
 1086.47070312 2297.03613281 l 1,5,-1
 835.666992188 1877.75097656 l 1,6,-1
 652.322265625 1877.75097656 l 1,0,-1
EndSplineSet
EndChar

StartChar: afii57392
Encoding: 1632 1632 56
Width: 924
VWidth: 3201
GlyphClass: 2
Flags: W
LayerCount: 2
Fore
SplineSet
471.256835938 829.943359375 m 1,0,-1
 696.0390625 605.161132812 l 1,1,-1
 465.84765625 374.969726562 l 1,2,-1
 241.065429688 599.752929688 l 1,3,-1
 471.256835938 829.943359375 l 1,0,-1
EndSplineSet
EndChar

StartChar: afii57393
Encoding: 1633 1633 57
Width: 771
VWidth: 3192
GlyphClass: 2
Flags: W
LayerCount: 2
Fore
SplineSet
307.123046875 1342.89160156 m 4,0,1
 541 656 541 656 548.705078125 290.237304688 c 0,2,3
 553 63 553 63 538.919921875 51.4033203125 c 128,-1,4
 525 40 525 40 437.716796875 17.373046875 c 1,5,6
 405 542 405 542 149.161132812 1239.36523438 c 5,7,-1
 242.915039062 1354.15136719 l 6,8,9
 286 1407 286 1407 307.123046875 1342.89160156 c 4,0,1
EndSplineSet
EndChar

StartChar: afii57394
Encoding: 1634 1634 58
Width: 1045
VWidth: 3192
GlyphClass: 2
Flags: W
LayerCount: 2
Fore
SplineSet
429.48046875 812.087890625 m 5,0,1
 517 402 517 402 517.547851562 217.125976562 c 0,2,3
 518 80 518 80 510.966796875 65.2177734375 c 0,4,5
 504 50 504 50 498.016601562 47.0654296875 c 0,6,7
 473 35 473 35 403.328125 17.546875 c 1,8,9
 371 539 371 539 115.827148438 1232.97460938 c 5,10,-1
 237.677734375 1382.15917969 l 6,11,12
 249 1396 249 1396 259.684570312 1370.43945312 c 4,13,14
 271 1346 271 1346 273.59765625 1336.25 c 4,15,16
 277 1327 277 1327 288.884765625 1295.56445312 c 4,17,18
 325 1203 325 1203 336.79296875 1174.97558594 c 4,19,20
 404 1007 404 1007 571.317382812 1007.43457031 c 4,21,22
 791.954665768 1007.00008927 791.954665768 1007.00008927 824.557617188 1323.85839844 c 6,23,-1
 829.456054688 1371.46484375 l 5,24,-1
 951.645507812 1354.99316406 l 5,25,-1
 949.405273438 1300.97363281 l 6,26,27
 929 803 929 803 539.541015625 804.7734375 c 4,28,29
 492 805 492 805 429.48046875 812.087890625 c 5,0,1
EndSplineSet
EndChar

StartChar: afii57395
Encoding: 1635 1635 59
Width: 1245
VWidth: 3192
GlyphClass: 2
Flags: W
LayerCount: 2
Fore
SplineSet
897.158203125 816.416015625 m 4,0,1
 768 816 768 816 700.791992188 925.0078125 c 5,2,3
 613 791 613 791 430.7734375 818.020507812 c 5,4,5
 520 390 520 390 519.729980469 249.528320312 c 0,6,7
 520 75 520 75 509.20703125 53.439453125 c 0,8,9
 504 43 504 43 406.61328125 17.548828125 c 1,10,11
 374 534 374 534 118.0625 1232.9765625 c 5,12,-1
 235.918945312 1376.94824219 l 6,13,14
 254 1399 254 1399 263.727539062 1370.6953125 c 4,15,16
 298 1272 298 1272 321.822265625 1212.25390625 c 4,17,18
 401 1008 401 1008 516.903320312 1007.4453125 c 4,19,20
 661.11619274 1006.99964092 661.11619274 1006.99964092 670.673828125 1205.43945312 c 6,21,-1
 676.778320312 1332.18359375 l 5,22,-1
 799.91796875 1329.74707031 l 5,23,-1
 804.6328125 1189.51074219 l 6,24,25
 811 996 811 996 911.743164062 995.64453125 c 4,26,27
 1054.77322418 995.999437292 1054.77322418 995.999437292 1055.55371094 1307.04199219 c 6,28,-1
 1055.67675781 1356.07910156 l 5,29,-1
 1177.74707031 1350.83496094 l 5,30,-1
 1177.61523438 1278.93945312 l 6,31,32
 1177 817 1177 817 897.158203125 816.416015625 c 4,0,1
EndSplineSet
EndChar

StartChar: afii57396
Encoding: 1636 1636 60
Width: 951
VWidth: 3198
GlyphClass: 2
Flags: W
LayerCount: 2
Fore
SplineSet
265.868164062 367.783203125 m 1,0,1
 483.928710938 278.483398438 483.928710938 278.483398438 833.866210938 290.00390625 c 1,2,-1
 829.522460938 110.3984375 l 2,3,4
 828.447265625 54.6884765625 828.447265625 54.6884765625 784.1875 56.896484375 c 0,5,6
 420.52734375 73.830078125 420.52734375 73.830078125 170.844726562 238.487304688 c 0,7,8
 97.2626953125 287.404296875 97.2626953125 287.404296875 132.114257812 348.624023438 c 0,9,10
 250.2265625 559.081054688 250.2265625 559.081054688 478.111328125 683.904296875 c 1,11,12
 264.126953125 776.407226562 264.126953125 776.407226562 175.875 879.651367188 c 0,13,14
 110.708007812 954.71484375 110.708007812 954.71484375 126.05078125 999.676757812 c 0,15,16
 190.32421875 1198.58203125 190.32421875 1198.58203125 676.075195312 1407.875 c 0,17,18
 711.268554688 1423.0078125 711.268554688 1423.0078125 714.65625 1409.72949219 c 0,19,20
 717.184570312 1399.80957031 717.184570312 1399.80957031 711.428710938 1372.83105469 c 2,21,-1
 689.149414062 1268.37304688 l 2,22,23
 675.290039062 1203.38574219 675.290039062 1203.38574219 661.697265625 1139.32421875 c 1,24,25
 424.337890625 1126.28417969 424.337890625 1126.28417969 258.137695312 1057.65722656 c 1,26,27
 443.8828125 901.575195312 443.8828125 901.575195312 721.173828125 779.940429688 c 1,28,-1
 721.169921875 778.014648438 l 2,29,30
 721.083007812 738.778320312 721.083007812 738.778320312 720.05078125 695.622070312 c 1,31,32
 400.963867188 557.657226562 400.963867188 557.657226562 265.868164062 367.783203125 c 1,0,1
EndSplineSet
EndChar

StartChar: afii57397
Encoding: 1637 1637 61
Width: 1180
VWidth: 3521
GlyphClass: 2
Flags: W
LayerCount: 2
Fore
SplineSet
588.083984375 1085.37695312 m 1,0,1
 274.443359375 726.84765625 274.443359375 726.84765625 273.653320312 531.059570312 c 0,2,3
 272.505859375 293.645507812 272.505859375 293.645507812 579.124023438 296.450195312 c 0,4,5
 929.049804688 300.444335938 929.049804688 300.444335938 925.840820312 530.348632812 c 0,6,7
 922.251953125 780.153320312 922.251953125 780.153320312 588.083984375 1085.37695312 c 1,0,1
181.6171875 272.970703125 m 0,8,9
 84.62109375 436.297851562 84.62109375 436.297851562 184.657226562 699.337890625 c 0,10,11
 265.619140625 912.22265625 265.619140625 912.22265625 459.086914062 1138.11523438 c 6,12,-1
 485.235351562 1168.64550781 l 1,13,-1
 406.828125 1227.45214844 l 1,14,-1
 531.092773438 1440.69238281 l 1,15,16
 1021.2109375 983.538085938 1021.2109375 983.538085938 1046.05664062 554.466796875 c 0,17,18
 1060.41113281 303.41796875 1060.41113281 303.41796875 899.911132812 175.606445312 c 0,19,20
 791.890625 89.7783203125 791.890625 89.7783203125 583.512695312 89.1376953125 c 0,21,22
 291.111328125 88.7978515625 291.111328125 88.7978515625 181.6171875 272.970703125 c 0,8,9
EndSplineSet
EndChar

StartChar: afii57398
Encoding: 1638 1638 62
Width: 1326
VWidth: 3201
GlyphClass: 2
Flags: W
LayerCount: 2
Fore
SplineSet
960.790039062 1336.5625 m 1,0,1
 980 362 980 362 1168.42871094 162.818359375 c 1,2,-1
 1042.62597656 15.7109375 l 1,3,4
 947 112 947 112 891.220703125 330.23828125 c 0,5,6
 835 552 835 552 826.083984375 1096.27929688 c 5,7,8
 313 1052 313 1052 171.764648438 1131.45800781 c 4,9,10
 130.226390493 1155.69291215 130.226390493 1155.69291215 127.368164062 1361.57324219 c 0,11,12
 127 1394 127 1394 152.750976562 1384.79003906 c 0,13,14
 459 1270 459 1270 960.790039062 1336.5625 c 1,0,1
EndSplineSet
EndChar

StartChar: afii57399
Encoding: 1639 1639 63
Width: 1171
VWidth: 3202
GlyphClass: 2
Flags: W
LayerCount: 2
Fore
SplineSet
1102.85058594 1220.16992188 m 5,0,1
 784 591 784 591 647.041992188 19.7314453125 c 1,2,-1
 536.290039062 19.7314453125 l 1,3,4
 400 556 400 556 80.8798828125 1221.49804688 c 5,5,-1
 178.580078125 1385.19824219 l 6,6,7
 188 1401 188 1401 198.03515625 1379.60546875 c 4,8,9
 490 773 490 773 591.544921875 373.686523438 c 1,10,11
 711 863 711 863 964.40625 1374.61132812 c 4,12,13
 975 1396 975 1396 986.2578125 1383.78027344 c 5,14,-1
 1102.85058594 1220.16992188 l 5,0,1
EndSplineSet
EndChar

StartChar: afii57400
Encoding: 1640 1640 64
Width: 1171
VWidth: 3202
GlyphClass: 2
Flags: W
LayerCount: 2
Fore
SplineSet
985.959960938 21.2333984375 m 6,0,1
 975.922851562 7.1572265625 975.922851562 7.1572265625 964.412109375 30.705078125 c 4,2,3
 718 508 718 508 591.546875 1031.64257812 c 5,4,5
 491 631 491 631 198.028320312 25.7138671875 c 4,6,7
 187.826171875 4.640625 187.826171875 4.640625 178.583984375 20.126953125 c 6,8,-1
 80.8798828125 183.834960938 l 5,9,10
 400 851 400 851 536.290039062 1385.59960938 c 5,11,-1
 647.041992188 1385.59960938 l 5,12,13
 784 813 784 813 1102.85058594 185.16015625 c 5,14,-1
 985.959960938 21.2333984375 l 6,0,1
EndSplineSet
EndChar

StartChar: afii57401
Encoding: 1641 1641 65
Width: 1044
VWidth: 3202
GlyphClass: 2
Flags: W
LayerCount: 2
Fore
SplineSet
643.711914062 649.280273438 m 5,0,1
 114 564 114 564 120.8671875 914.969726562 c 4,2,3
 125.043498599 1146.41058502 125.043498599 1146.41058502 210.135742188 1266.31933594 c 4,4,5
 327 1431 327 1431 491.137695312 1391.51074219 c 4,6,7
 568 1373 568 1373 629.024414062 1304.21191406 c 4,8,9
 754 1161 754 1161 763.05859375 926.52734375 c 4,10,11
 787 309 787 309 944.734375 162.061523438 c 1,12,-1
 820.612304688 15.9990234375 l 1,13,14
 760 68 760 68 718.923828125 168.674804688 c 0,15,16
 655 329 655 329 643.711914062 649.280273438 c 5,0,1
314.877929688 849.94140625 m 4,17,18
 415 806 415 806 623.646484375 851.412109375 c 5,19,-1
 617.950195312 910.599609375 l 6,20,21
 592 1176 592 1176 419.46484375 1175.91699219 c 4,22,23
 349 1176 349 1176 313.006835938 1120.77636719 c 4,24,25
 277 1066 277 1066 268.498046875 1002.39453125 c 4,26,27
 252 877 252 877 314.877929688 849.94140625 c 4,17,18
EndSplineSet
EndChar

StartChar: afii57381
Encoding: 1642 1642 66
Width: 1517
VWidth: 3432
GlyphClass: 2
Flags: W
LayerCount: 2
Fore
SplineSet
923.860351562 389.670898438 m 0,0,1
 923.860351562 453.270507812 923.860351562 453.270507812 968.379882812 498.850585938 c 0,2,3
 1015.02050781 544.430664062 1015.02050781 544.430664062 1078.62011719 544.430664062 c 0,4,5
 1121.02050781 544.430664062 1121.02050781 544.430664062 1156 523.23046875 c 0,6,7
 1192.04003906 502.030273438 1192.04003906 502.030273438 1212.18066406 467.05078125 c 0,8,9
 1233.37988281 432.0703125 1233.37988281 432.0703125 1233.37988281 389.670898438 c 0,10,11
 1233.37988281 326.0703125 1233.37988281 326.0703125 1187.79980469 279.430664062 c 0,12,13
 1142.22070312 234.911132812 1142.22070312 234.911132812 1078.62011719 234.911132812 c 0,14,15
 1036.22070312 234.911132812 1036.22070312 234.911132812 1000.18066406 255.05078125 c 0,16,17
 964.140625 276.250976562 964.140625 276.250976562 944 311.23046875 c 0,18,19
 923.860351562 347.270507812 923.860351562 347.270507812 923.860351562 389.670898438 c 0,0,1
291.024414062 1246.92871094 m 0,20,21
 291.024414062 1310.52832031 291.024414062 1310.52832031 335.543945312 1356.10839844 c 0,22,23
 382.184570312 1401.68847656 382.184570312 1401.68847656 445.784179688 1401.68847656 c 0,24,25
 488.184570312 1401.68847656 488.184570312 1401.68847656 523.1640625 1380.48828125 c 0,26,27
 559.204101562 1359.28808594 559.204101562 1359.28808594 579.344726562 1324.30859375 c 0,28,29
 600.543945312 1289.328125 600.543945312 1289.328125 600.543945312 1246.92871094 c 0,30,31
 600.543945312 1183.328125 600.543945312 1183.328125 554.963867188 1136.68847656 c 0,32,33
 509.384765625 1092.16894531 509.384765625 1092.16894531 445.784179688 1092.16894531 c 0,34,35
 403.384765625 1092.16894531 403.384765625 1092.16894531 367.344726562 1112.30859375 c 0,36,37
 331.3046875 1133.50878906 331.3046875 1133.50878906 311.1640625 1168.48828125 c 0,38,39
 291.024414062 1204.52832031 291.024414062 1204.52832031 291.024414062 1246.92871094 c 0,20,21
1036.91377336 1545.51608352 m 1,40,-1
 1181.29627048 1471.1303186 l 1,41,-1
 434.471602393 25.5847540534 l 1,42,-1
 290.638225339 104.628381742 l 1,43,-1
 1036.91377336 1545.51608352 l 1,40,-1
EndSplineSet
EndChar

StartChar: uni066B
Encoding: 1643 1643 67
Width: 938
VWidth: 3435
GlyphClass: 2
Flags: W
LayerCount: 2
Fore
SplineSet
638.796875 639.668945312 m 1,0,-1
 758.693359375 565.4609375 l 1,1,-1
 185.013671875 -390.555664062 l 1,2,-1
 63.0546875 -309.609375 l 1,3,-1
 638.796875 639.668945312 l 1,0,-1
EndSplineSet
EndChar

StartChar: uni066C
Encoding: 1644 1644 68
Width: 539
VWidth: 3387
GlyphClass: 2
Flags: W
LayerCount: 2
Fore
SplineSet
254.901367188 302.616210938 m 0,0,1
 415.175400995 304.032893617 415.175400995 304.032893617 403.06640625 89.00390625 c 0,2,3
 388.198242188 -174.572265625 388.198242188 -174.572265625 126.916015625 -330.280273438 c 0,4,5
 77.3290087237 -359.858815448 77.3290087237 -359.858815448 55.146484375 -332.004882812 c 0,6,7
 45.6122130125 -318.045352969 45.6122130125 -318.045352969 67.6611328125 -301.541992188 c 0,8,9
 146.76953125 -243.913085938 146.76953125 -243.913085938 200.873046875 -158.330078125 c 128,-1,10
 254.9765625 -72.7470703125 254.9765625 -72.7470703125 248.471679688 -0.5205078125 c 1,11,-1
 222.151367188 3.568359375 l 1,12,13
 154.342773438 8.1044921875 154.342773438 8.1044921875 121.080078125 57.2299804688 c 128,-1,14
 87.8173828125 106.35546875 87.8173828125 106.35546875 101.057617188 173.573730469 c 128,-1,15
 114.297851562 240.791992188 114.297851562 240.791992188 160.704589844 271.899902344 c 128,-1,16
 207.111328125 303.0078125 207.111328125 303.0078125 254.901367188 302.616210938 c 0,0,1
EndSplineSet
EndChar

StartChar: afii63167
Encoding: 1645 1645 69
Width: 1734
VWidth: 3186
GlyphClass: 2
Flags: W
LayerCount: 2
Fore
SplineSet
218.536132812 1158.84375 m 1,0,-1
 714.16015625 1158.84375 l 1,1,-1
 868.931640625 1630.06054688 l 1,2,-1
 1023.70019531 1158.84375 l 1,3,-1
 1519.328125 1158.84375 l 1,4,-1
 1118.91503906 866.131835938 l 1,5,-1
 1272.1015625 395.526367188 l 1,6,-1
 868.931640625 686.861328125 l 1,7,-1
 465.758789062 395.526367188 l 1,8,-1
 618.944335938 866.131835938 l 1,9,-1
 218.536132812 1158.84375 l 1,0,-1
EndSplineSet
EndChar

StartChar: uni066E
Encoding: 1646 1646 70
Width: 1809
VWidth: 3745
GlyphClass: 2
Flags: W
AnchorPoint: "Anchor-10" 787.906 1271.55 basechar 0
AnchorPoint: "Anchor-7" 645.812 -212.49 basechar 0
LayerCount: 2
Fore
SplineSet
286.423828125 732.236328125 m 1,0,1
 253 608 253 608 253 516.235342347 c 0,2,3
 253 425 253 425 299.510742188 355.678150521 c 0,4,5
 413 189 413 189 804.015625 185.172851562 c 0,6,7
 1341.2370534 180.026468011 1341.2370534 180.026468011 1526.56835938 331.3046875 c 0,8,9
 1585 379 1585 379 1467.75878906 724.01953125 c 1,10,-1
 1550.046875 821.162109375 l 2,11,12
 1593 872 1593 872 1622.55859375 815.690429688 c 0,13,14
 1697 674 1697 674 1697.26367188 470.703125 c 0,15,16
 1697 357 1697 357 1654.35449219 267.594726562 c 0,17,18
 1526 2 1526 2 844.224609375 2 c 4,19,20
 486 2 486 2 307.02734375 100.59375 c 0,21,22
 104 213 104 213 104.250976562 457.86328125 c 0,23,24
 105 607 105 607 184.85546875 766.762695312 c 1,25,-1
 286.423828125 732.236328125 l 1,0,1
EndSplineSet
Substitution2: "'init' Initial Forms in Arabic lookup 13 subtable" uni066E.init
Substitution2: "'medi' Medial Forms in Arabic lookup 11 subtable" uni066E.medi
Substitution2: "'fina' Terminal Forms in Arabic lookup 9 subtable" uni066E.fina
EndChar

StartChar: uni066F
Encoding: 1647 1647 71
Width: 1402
VWidth: 3773
GlyphClass: 2
Flags: W
AnchorPoint: "Anchor-10" 547.298 1166.3 basechar 0
AnchorPoint: "Anchor-7" 567.936 -696.213 basechar 0
LayerCount: 2
Fore
SplineSet
981.793945312 563.5078125 m 0,0,1
 865.849609375 563.091796875 865.849609375 563.091796875 831.94140625 424.169921875 c 0,2,3
 802.576171875 301.953125 802.576171875 301.953125 899.177734375 276.470703125 c 0,4,5
 968.849609375 258.091796875 968.849609375 258.091796875 1065.14453125 272.752929688 c 0,6,7
 1125.84960938 282.091796875 1125.84960938 282.091796875 1159.3125 297.861328125 c 1,8,9
 1148.84960938 437.091796875 1148.84960938 437.091796875 1101.97070312 498.970703125 c 0,10,11
 1053.84960938 563.091796875 1053.84960938 563.091796875 981.793945312 563.5078125 c 0,0,1
1300 190 m 28,12,13
 1300 -108 1300 -108 1187.30566406 -240.540039062 c 0,14,15
 1021 -437 1021 -437 676.5 -434.5 c 0,16,17
 449 -433 449 -433 306 -343.896484375 c 0,18,19
 108 -221 108 -221 108.000976562 65.2353515625 c 0,20,21
 108 271 108 271 209.791992188 486.272460938 c 1,22,-1
 320.059570312 453.734375 l 1,23,24
 263 266 263 266 262.880859375 114.515625 c 0,25,26
 263 -258 263 -258 687.81640625 -257.944335938 c 0,27,28
 1001 -258 1001 -258 1123.20117188 -58.7724609375 c 0,29,30
 1156 -5 1156 -5 1160.0390625 103.715820312 c 1,31,32
 951 59 951 59 822.21484375 112.594726562 c 0,33,34
 694 166 694 166 694.176757812 317.1328125 c 0,35,36
 695 430 695 430 729.049804688 521.091796875 c 0,37,38
 816 752 816 752 989.713867188 752.084960938 c 0,39,40
 1106 752 1106 752 1175.00976562 665.893554688 c 0,41,42
 1300 512 1300 512 1300 190 c 28,12,13
EndSplineSet
Substitution2: "'init' Initial Forms in Arabic lookup 13 subtable" uni066F.init
Substitution2: "'medi' Medial Forms in Arabic lookup 11 subtable" uni066F.medi
Substitution2: "'fina' Terminal Forms in Arabic lookup 9 subtable" uni066F.fina
EndChar

StartChar: uni0670
Encoding: 1648 1648 72
Width: 0
VWidth: 2975
GlyphClass: 4
Flags: W
AnchorPoint: "Anchor-10" 756.062 1750.01 mark 0
AnchorPoint: "Anchor-9" 756.062 1750.01 mark 0
AnchorPoint: "Anchor-1" 744.304 2447.37 basemark 0
AnchorPoint: "Anchor-1" 756.062 1750.01 mark 0
LayerCount: 2
Fore
SplineSet
738.67578125 1809.56933594 m 1,0,-1
 684.276367188 2293.83203125 l 1,1,-1
 804.50390625 2364.63378906 l 1,2,-1
 804.50390625 1831.46679688 l 1,3,-1
 738.67578125 1809.56933594 l 1,0,-1
EndSplineSet
EndChar

StartChar: uni0674
Encoding: 1652 1652 73
Width: 802
VWidth: 2756
GlyphClass: 2
Flags: W
LayerCount: 2
Fore
SplineSet
205.618164062 1773.71875 m 1,0,-1
 226.764648438 1918.70507812 l 1,1,2
 288.693144646 1948.00458171 288.693144646 1948.00458171 336.619140625 1968.37402344 c 1,3,4
 185.59375 1999.14648438 185.59375 1999.14648438 203.297851562 2133.63964844 c 0,5,6
 235.728515625 2377.36523438 235.728515625 2377.36523438 435.756835938 2375.49902344 c 0,7,8
 531.266902741 2374.98036183 531.266902741 2374.98036183 605.873046875 2302.95019531 c 1,9,-1
 570.676757812 2222.19726562 l 1,10,11
 357.250841773 2278.42372407 357.250841773 2278.42372407 303.178710938 2167.67675781 c 0,12,13
 289.402676455 2139.46159406 289.402676455 2139.46159406 299.153320312 2117.02734375 c 0,14,15
 346.140625 2009.0078125 346.140625 2009.0078125 550.62109375 2060.33496094 c 0,16,17
 587.163085938 2069.51074219 587.163085938 2069.51074219 592.739746094 2064.77880859 c 0,18,19
 606.786782462 2052.85955201 606.786782462 2052.85955201 606.594726562 2032.3671875 c 2,20,-1
 605.750976562 1940.01269531 l 1,21,22
 496.353022275 1910.22564091 496.353022275 1910.22564091 205.618164062 1773.71875 c 1,0,-1
EndSplineSet
EndChar

StartChar: uni06A1
Encoding: 1697 1697 77
Width: 1748
VWidth: 3773
GlyphClass: 2
Flags: W
AnchorPoint: "Anchor-10" 749.706 1448.19 basechar 0
AnchorPoint: "Anchor-7" 623.293 -197.962 basechar 0
LayerCount: 2
Fore
SplineSet
1313.828125 865.401367188 m 0,0,1
 1198 865 1198 865 1163.97558594 726.063476562 c 0,2,3
 1134.71728907 603.818799784 1134.71728907 603.818799784 1231.21191406 578.364257812 c 0,4,5
 1301 560 1301 560 1397.17871094 574.646484375 c 0,6,7
 1458 584 1458 584 1491.34667969 599.754882812 c 1,8,9
 1481 739 1481 739 1434.00488281 800.864257812 c 0,10,11
 1386 865 1386 865 1313.828125 865.401367188 c 0,0,1
846.678710938 2 m 2,12,13
 477 2 477 2 305.037109375 98.587890625 c 0,14,15
 103 211 103 211 104.250976562 457.86328125 c 0,16,17
 105 607 105 607 184.85546875 766.762695312 c 1,18,-1
 286.431640625 732.233398438 l 1,19,20
 217 479 217 479 294.80859375 362.3515625 c 0,21,22
 409 193 409 193 754.01953125 179.971679688 c 0,23,24
 779 179 779 179 968.5 179 c 128,-1,25
 1158 179 1158 179 1265.01660156 197.262695312 c 0,26,27
 1479.60165068 233.931928323 1479.60165068 233.931928323 1490.0703125 378.038085938 c 2,28,29
 1492.07324219 405.609375 l 1,30,31
 1283 361 1283 361 1154.24902344 414.48828125 c 0,32,33
 1026 468 1026 468 1026.2109375 619.026367188 c 0,34,35
 1027 732 1027 732 1061.08398438 822.985351562 c 0,36,37
 1148 1054 1148 1054 1321.74804688 1053.97851562 c 0,38,39
 1438 1054 1438 1054 1507.04394531 967.787109375 c 4,40,41
 1632 813 1632 813 1637.42773438 465.728515625 c 24,42,43
 1645 2 1645 2 1051.59277344 2 c 2,44,-1
 846.678710938 2 l 2,12,13
EndSplineSet
Substitution2: "'init' Initial Forms in Arabic lookup 13 subtable" uni06A1.init
Substitution2: "'medi' Medial Forms in Arabic lookup 11 subtable" uni06A1.medi
Substitution2: "'fina' Terminal Forms in Arabic lookup 9 subtable" uni06A1.fina
EndChar

StartChar: uni06A9
Encoding: 1705 1705 78
Width: 1942
VWidth: 3745
GlyphClass: 2
Flags: W
AnchorPoint: "Anchor-10" 587.484 1460.04 basechar 0
AnchorPoint: "Anchor-7" 594.53 -238.588 basechar 0
LayerCount: 2
Fore
SplineSet
1080.33789062 1047.86328125 m 1,0,1
 1512 689 1512 689 1608.86328125 522.51171875 c 0,2,3
 1651 450 1651 450 1629.92675781 355.356445312 c 0,4,5
 1578 123 1578 123 1185.22167969 37.54296875 c 4,6,7
 1022 2 1022 2 818.87890625 2 c 0,8,9
 477 2 477 2 305.037109375 98.587890625 c 0,10,11
 103 211 103 211 104.250976562 457.86328125 c 0,12,13
 105 607 105 607 184.85546875 766.762695312 c 1,14,-1
 286.431640625 732.233398438 l 1,15,16
 217 479 217 479 294.80859375 362.3515625 c 0,17,18
 409 192 409 192 750.796875 179.991210938 c 24,19,20
 1234 163 1234 163 1429.8984375 326.056640625 c 0,21,22
 1512 395 1512 395 1482.34570312 438.306640625 c 0,23,24
 1419 531 1419 531 928.01171875 945.607421875 c 1,25,26
 942 1090 942 1090 986.477539062 1198.06347656 c 1,27,-1
 1849 1499.16210938 l 2,28,29
 1889.56086071 1512.8517863 1889.56086071 1512.8517863 1883.38574219 1471 c 2,30,-1
 1860.61230469 1316.65332031 l 1,31,-1
 1080.33789062 1047.86328125 l 1,0,1
EndSplineSet
Substitution2: "'init' Initial Forms in Arabic lookup 13 subtable" uniFB90
Substitution2: "'medi' Medial Forms in Arabic lookup 11 subtable" uniFB91
Substitution2: "'fina' Terminal Forms in Arabic lookup 9 subtable" uniFB8F
EndChar

StartChar: afii57509
Encoding: 1711 1711 79
Width: 1989
VWidth: 3749
GlyphClass: 2
Flags: W
AnchorPoint: "Anchor-10" 608.817 1493.24 basechar 0
AnchorPoint: "Anchor-7" 594.53 -235.388 basechar 0
LayerCount: 2
Fore
SplineSet
1043.47753906 1138.06347656 m 5
 1906 1439.16210938 l 6
 1946.5608607 1452.8517863 1946.5608607 1452.8517863 1940.38574219 1411 c 6
 1917.61230469 1256.65332031 l 5
 1137.33789062 987.86328125 l 5
 1605 624 1605 624 1611.95117188 434.82421875 c 4
 1618 273 1618 273 1432.97949219 152.033203125 c 4
 1204 2 1204 2 835.678710938 2 c 0
 477 2 477 2 305.037109375 98.587890625 c 0
 104 211 104 211 104.250976562 457.86328125 c 0
 105 607 105 607 184.85546875 766.762695312 c 1
 286.431640625 732.233398438 l 1
 217 479 217 479 294.80859375 362.3515625 c 0
 412 189 412 189 754.010742188 180.106445312 c 24
 1134 170 1134 170 1372.39257812 310.252929688 c 4
 1389 320 1389 320 1402.35742188 331.6953125 c 4
 1472 393 1472 393 1451.31738281 440.978515625 c 4
 1434 481 1434 481 1311.82617188 604.680664062 c 4
 1200 718 1200 718 974.115234375 895.482421875 c 5
 991 1020 991 1020 1043.47753906 1138.06347656 c 5
EndSplineSet
Refer: 274 -1 S 1.1342 0 0 1.1342 1075.09 -666.187 2
Substitution2: "'init' Initial Forms in Arabic lookup 13 subtable" uniFB94
Substitution2: "'medi' Medial Forms in Arabic lookup 11 subtable" uniFB95
Substitution2: "'fina' Terminal Forms in Arabic lookup 9 subtable" uniFB93
EndChar

StartChar: afii57514
Encoding: 1722 1722 80
Width: 1395
VWidth: 3745
GlyphClass: 2
Flags: W
LayerCount: 2
Fore
SplineSet
1194.5625 607.572265625 m 0,0,1
 1326 287 1326 287 1302.05175781 109.443359375 c 0,2,3
 1233 -402 1233 -402 666.913085938 -402.161132812 c 0,4,5
 379 -402 379 -402 237.318359375 -250.16015625 c 0,6,7
 81 -81 81 -81 111.979492188 202.323242188 c 0,8,9
 127 344 127 344 210.064453125 521.631835938 c 1,10,-1
 320.326171875 489.094726562 l 1,11,12
 259 290 259 290 260.834550513 147 c 0,13,14
 265 -225 265 -225 679.776367188 -222.57421875 c 0,15,16
 994 -221 994 -221 1113.4609375 -27.6904296875 c 0,17,18
 1171 65 1171 65 1143.74023438 185.741210938 c 0,19,20
 1126 266 1126 266 1038.72558594 478.235351562 c 1,21,-1
 1141.20410156 626.548828125 l 2,22,23
 1160 653 1160 653 1172.95703125 640.516601562 c 0,24,25
 1186 629 1186 629 1194.5625 607.572265625 c 0,0,1
EndSplineSet
Substitution2: "'init' Initial Forms in Arabic lookup 13 subtable" uni06BA.init
Substitution2: "'medi' Medial Forms in Arabic lookup 11 subtable" uni06BA.medi
Substitution2: "'fina' Terminal Forms in Arabic lookup 9 subtable" uniFB9F
EndChar

StartChar: uni06F4
Encoding: 1780 1780 87
Width: 1140
VWidth: 2927
GlyphClass: 2
Flags: W
LayerCount: 2
Fore
SplineSet
509.344726562 976.250976562 m 5,0,1
 470 1106 470 1106 512.553710938 1213.13378906 c 4,2,3
 579 1377 579 1377 770.041992188 1375.86035156 c 4,4,5
 900 1375 900 1375 996.4140625 1259.35058594 c 5,6,-1
 957.004882812 1174.83886719 l 5,7,8
 754 1252 754 1252 662.620117188 1144.87109375 c 4,9,10
 619 1093 619 1093 619.21875 1015.10644531 c 4,11,12
 620 938 620 938 688.311523438 918.014648438 c 4,13,14
 825 879 825 879 1012.62695312 938.721679688 c 5,15,-1
 1036.95507812 791.215820312 l 5,16,17
 909 730 909 730 761.049804688 732.102539062 c 4,18,19
 547 735 547 735 423.870117188 834.592773438 c 5,20,21
 531 412 531 412 517.993164062 161.5625 c 0,22,23
 515 103 515 103 505.889648438 64.064453125 c 0,24,25
 503 53 503 53 405.200195312 27.73046875 c 1,26,27
 375 530 375 530 116.642578125 1228.64257812 c 5,28,-1
 238.522460938 1377.86816406 l 5,29,-1
 247.064453125 1384.37695312 l 5,30,31
 255.978857078 1386.99379345 255.978857078 1386.99379345 261.200195312 1371.22363281 c 6,32,-1
 323.840820312 1182.02832031 l 6,33,34
 373 1035 373 1035 509.344726562 976.250976562 c 5,0,1
EndSplineSet
EndChar

StartChar: uni06F5
Encoding: 1781 1781 88
Width: 1202
VWidth: 3002
GlyphClass: 2
Flags: W
LayerCount: 2
Fore
SplineSet
645.6015625 465.672851562 m 1,0,1
 676 335 676 335 727.65234375 272.287109375 c 0,2,3
 779 209 779 209 845.6640625 209.883789062 c 0,4,5
 1047 211 1047 211 921.78125 547.450195312 c 0,6,7
 834 784 834 784 575.158203125 1051.31445312 c 5,8,9
 446 856 446 856 402.131835938 773.2734375 c 4,10,11
 199 386 199 386 257.619140625 264.333007812 c 0,12,13
 284 209 284 209 362.471679688 209.78125 c 0,14,15
 513 211 513 211 576.21875 466.798828125 c 1,16,-1
 645.6015625 465.672851562 l 1,0,1
612.801757812 215.260742188 m 1,17,18
 543 25 543 25 362.241210938 25.244140625 c 0,19,20
 117 25 117 25 114.090820312 310.327148438 c 0,21,22
 110 632 110 632 467.743164062 1171.65917969 c 5,23,-1
 422.880859375 1212.0234375 l 5,24,-1
 510.795898438 1367.62109375 l 6,25,26
 527 1396 527 1396 554.090820312 1369.24511719 c 4,27,28
 1101 828 1101 828 1101.59277344 339.73828125 c 0,29,30
 1102 25 1102 25 853.1796875 25.646484375 c 0,31,32
 691 26 691 26 612.801757812 215.260742188 c 1,17,18
EndSplineSet
EndChar

StartChar: uni06F6
Encoding: 1782 1782 89
Width: 1031
VWidth: 3202
GlyphClass: 2
Flags: W
LayerCount: 2
Fore
SplineSet
754.625976562 1179.0390625 m 1,0,1
 620 1214 620 1214 551.01953125 1213.80664062 c 0,2,3
 411 1214 411 1214 332.94921875 1115.84863281 c 0,4,5
 257 1020 257 1020 300.095703125 955.822265625 c 0,6,7
 382 833 382 833 645.96484375 830.333007812 c 0,8,9
 674 830 674 830 722.595703125 863.334960938 c 0,10,11
 872 964 872 964 916 966 c 4,12,13
 943 967 943 967 935.780273438 937.415039062 c 2,14,-1
 893.491210938 754.998046875 l 1,15,16
 699 651 699 651 484.57421875 395.983398438 c 0,17,18
 230 93 230 93 186.235351562 12.2197265625 c 1,19,-1
 112.798828125 101.709960938 l 1,20,21
 231 381 231 381 464.2421875 655.724609375 c 1,22,23
 144 703 144 703 143.892578125 1001.45117188 c 0,24,25
 144 1065 144 1065 176.423828125 1141.20703125 c 0,26,27
 291 1407 291 1407 542.040039062 1406.44433594 c 0,28,29
 687 1406 687 1406 803.365234375 1302.99707031 c 1,30,-1
 754.625976562 1179.0390625 l 1,0,1
EndSplineSet
EndChar

StartChar: uniFB8F
Encoding: 64399 64399 104
Width: 2133
VWidth: 3745
GlyphClass: 2
Flags: W
AnchorPoint: "Anchor-7" 573.197 -238.588 basechar 0
AnchorPoint: "Anchor-10" 577.484 1457.04 basechar 0
LayerCount: 2
Fore
SplineSet
1099.33789062 1047.86328125 m 1,0,1
 1378 808 1378 808 1672 494.5 c 128,-1,2
 1966.00091582 180.999023438 1966.00091582 180.999023438 2125.71289062 180.999023438 c 2,3,-1
 2145.40527344 180.999023438 l 1,4,-1
 2145.40527344 0 l 1,5,-1
 2126.13769531 0 l 2,6,7
 1894 0 1894 0 1621.57910156 319.446289062 c 1,8,9
 1606 262 1606 262 1548.19824219 202.689453125 c 0,10,11
 1355 -0 1355 -0 848.897460938 0.8798828125 c 4,12,13
 479 2 479 2 306.672851562 97.40625 c 0,14,15
 105 210 105 210 105.984375 457.84765625 c 0,16,17
 106 608 106 608 186.594726562 766.759765625 c 1,18,-1
 288.171875 732.234375 l 1,19,20
 216 480 216 480 300.622070312 356.138671875 c 0,21,22
 411 194 411 194 807.895507812 180.838867188 c 0,23,24
 1249 166 1249 166 1439.22558594 326.052734375 c 0,25,26
 1521 395 1521 395 1493.95117188 436.453125 c 0,27,28
 1453 498 1453 498 939.833007812 952.020507812 c 1,29,30
 949 1071 949 1071 1005.47753906 1198.06347656 c 1,31,-1
 1868 1499.16210938 l 2,32,33
 1908.56086071 1512.8517863 1908.56086071 1512.8517863 1902.38574219 1471 c 2,34,-1
 1879.61230469 1316.65332031 l 1,35,-1
 1099.33789062 1047.86328125 l 1,0,1
EndSplineSet
EndChar

StartChar: uniFB93
Encoding: 64403 64403 108
Width: 2110
VWidth: 3749
GlyphClass: 2
Flags: W
AnchorPoint: "Anchor-7" 594.53 -235.388 basechar 0
AnchorPoint: "Anchor-10" 608.817 1493.24 basechar 0
LayerCount: 2
Fore
SplineSet
1130.33789062 987.86328125 m 5
 1372 782 1372 782 1584.22265625 547.6796875 c 4
 1917.65779645 180.376961753 1917.65779645 180.376961753 2099.82617188 180.065429688 c 6
 2124.95214844 180.022460938 l 5
 2124.95214844 0 l 5
 2102.37109375 0 l 6
 1839 0 1839 0 1595.44726562 298.611328125 c 5
 1513 168 1513 168 1303.51269531 84.564453125 c 4
 1097 2 1097 2 818.479492188 2 c 0
 101 2 101 2 101.051757812 461.053710938 c 0
 101 613 101 613 183.321289062 773.973632812 c 1
 290.2890625 737.388671875 l 1
 223 494 223 494 289.62890625 372.852539062 c 0
 391 190 391 190 736.907226562 180.037109375 c 0
 1285 163 1285 163 1443.44628906 372.227539062 c 4
 1466 402 1466 402 1449.01269531 438.294921875 c 4
 1432 474 1432 474 1286.26855469 619.489257812 c 4
 1141 765 1141 765 973.80078125 895.725585938 c 5
 988 1009 988 1009 1036.47753906 1138.06347656 c 5
 1899 1439.16210938 l 6
 1939.5608607 1452.8517863 1939.5608607 1452.8517863 1933.38574219 1411 c 6
 1910.61230469 1256.65332031 l 5
 1130.33789062 987.86328125 l 5
EndSplineSet
Refer: 274 -1 S 1.1342 0 0 1.1342 1075.09 -666.187 2
EndChar

StartChar: uniFB94
Encoding: 64404 64404 109
Width: 1044
VWidth: 3749
GlyphClass: 2
Flags: W
AnchorPoint: "Anchor-10" 280.398 1719.11 basechar 0
AnchorPoint: "Anchor-7" 334.15 -239.938 basechar 0
LayerCount: 2
Fore
SplineSet
180.337890625 987.86328125 m 1
 661 619 661 619 667.69140625 414.615234375 c 0
 672 274 672 274 577.831054688 175.669921875 c 0
 409.24871435 0.2587890625 409.24871435 0.2587890625 28.2861328125 0.2587890625 c 2
 -15.8095703125 0.2587890625 l 1
 -15.8095703125 179.961914062 l 5
 28.306640625 179.961914062 l 6
 338 180 338 180 475.739257812 304.487304688 c 4
 536 359 536 359 520.668945312 408.97265625 c 0
 478 543 478 543 20.2587890625 890.170898438 c 1
 36 1007 36 1007 86.4775390625 1138.06347656 c 1
 949 1439.16210938 l 2
 989.560860704 1452.8517863 989.560860704 1452.8517863 983.385742188 1411 c 2
 960.612304688 1256.65332031 l 1
 180.337890625 987.86328125 l 1
EndSplineSet
Refer: 274 -1 N 1.1342 0 0 1.1342 122.298 -667.187 2
EndChar

StartChar: uniFB95
Encoding: 64405 64405 110
Width: 1135
VWidth: 3749
GlyphClass: 2
Flags: W
AnchorPoint: "Anchor-10" 252.182 1712.34 basechar 0
AnchorPoint: "Anchor-7" 367.424 -213.288 basechar 0
LayerCount: 2
Fore
SplineSet
180.337890625 987.86328125 m 1
 470 746 470 746 649.6328125 535.532226562 c 0
 953.974848528 181.029296875 953.974848528 181.029296875 1127.82617188 181.029296875 c 2
 1152.95800781 181.029296875 l 1
 1152.95800781 0.2587890625 l 1
 1114.38378906 0.2587890625 l 2
 900 0 900 0 661.083007812 295.890625 c 1
 626 208 626 208 522.217773438 126.797851562 c 0
 362.326997712 0.2587890625 362.326997712 0.2587890625 28.2861328125 0.2587890625 c 2
 -15.8095703125 0.2587890625 l 1
 -15.8095703125 179.961914062 l 5
 28.306640625 179.961914062 l 6
 339 180 339 180 473.619140625 300.232421875 c 4
 545 365 545 365 517.505859375 408.08984375 c 0
 454 510 454 510 20.0205078125 890.400390625 c 1
 31 1021 31 1021 86.4775390625 1138.06347656 c 1
 949 1439.16210938 l 2
 989.560860704 1452.8517863 989.560860704 1452.8517863 983.385742188 1411 c 2
 960.612304688 1256.65332031 l 1
 180.337890625 987.86328125 l 1
EndSplineSet
Refer: 274 -1 N 1.1342 0 0 1.1342 122.298 -667.187 2
EndChar

StartChar: uniFB9F
Encoding: 64415 64415 112
Width: 1497
VWidth: 3744
GlyphClass: 2
Flags: W
AnchorPoint: "Anchor-10" 580.655 1006.5 basechar 0
AnchorPoint: "Anchor-7" 455.87 -1007.65 basechar 0
LayerCount: 2
Fore
SplineSet
1261.33007812 279.373046875 m 0,0,1
 1313.0005404 185.999023438 1313.0005404 185.999023438 1470.828125 185.999023438 c 2,2,-1
 1510.19824219 185.999023438 l 1,3,-1
 1510.19824219 2 l 1,4,-1
 1480.578125 2 l 2,5,6
 1349 2 1349 2 1306 48 c 1,7,8
 1309 -10 1309 -10 1293 -88.0849609375 c 0,9,10
 1196 -540 1196 -540 665.975585938 -538.853515625 c 4,11,12
 457 -538 457 -538 312 -447.248046875 c 0,13,14
 114 -322 114 -322 111.693359375 -42 c 0,15,16
 110 165 110 165 209.79296875 384.94140625 c 1,17,-1
 320.0546875 352.40234375 l 1,18,19
 263 165 263 165 262.880859375 13.18359375 c 0,20,21
 263 -359 263 -359 677.813476562 -359.276367188 c 0,22,23
 993 -359 993 -359 1113.19140625 -164.387695312 c 0,24,25
 1155 -97 1155 -97 1155 -18 c 0,26,27
 1155 47 1155 47 1037.66699219 338.455078125 c 1,28,-1
 1134.31640625 484.686523438 l 1,29,30
 1159 517 1159 517 1185.24511719 455.676757812 c 0,31,32
 1261 281 1261 281 1261.33007812 279.373046875 c 0,0,1
EndSplineSet
EndChar

StartChar: uniFBE8
Encoding: 64488 64488 115
Width: 632
VWidth: 3744
GlyphClass: 2
Flags: W
AnchorPoint: "Anchor-10" 323.261 1301.53 basechar 0
AnchorPoint: "Anchor-7" 350.876 -259.541 basechar 0
LayerCount: 2
Fore
SplineSet
373.413085938 347.4609375 m 0,0,1
 373 461 373 461 294.999023438 677.424804688 c 1,2,-1
 375.5078125 770.521484375 l 1,3,4
 421 821 421 821 447.17578125 765.8515625 c 0,5,6
 528 600 528 600 524.999023438 378.788085938 c 0,7,8
 523 234 523 234 443.703125 137.951171875 c 0,9,10
 330 0 330 0 100.708007812 0 c 2,11,-1
 -13.08984375 0 l 1,12,-1
 -13.08984375 179.999023438 l 5,13,-1
 97.8056640625 179.999023438 l 6,14,15
 374 180 374 180 373.413085938 347.4609375 c 0,0,1
EndSplineSet
EndChar

StartChar: uniFBE9
Encoding: 64489 64489 116
Width: 728
VWidth: 3744
GlyphClass: 2
Flags: W
AnchorPoint: "Anchor-10" 391.618 1159.37 basechar 0
AnchorPoint: "Anchor-7" 371.317 -218.507 basechar 0
LayerCount: 2
Fore
SplineSet
109.834960938 0 m 2,0,-1
 -12.337890625 0 l 1,1,-1
 -12.337890625 179.999023438 l 1,2,-1
 85.18359375 179.999023438 l 2,3,4
 330.427576865 180.000001706 330.427576865 180.000001706 344.15625 347.38671875 c 2,5,-1
 362.440429688 570.31640625 l 1,6,-1
 486.720703125 570.369140625 l 5,7,-1
 505.733398438 350.099609375 l 2,8,9
 520.000081906 179.999023438 520.000081906 179.999023438 724.682617188 179.999023438 c 2,10,-1
 740.821289062 179.999023438 l 1,11,-1
 740.821289062 0 l 1,12,-1
 715.583007812 0 l 2,13,14
 506 0 506 0 424.059570312 130.338867188 c 1,15,16
 330 0 330 0 109.834960938 0 c 2,0,-1
EndSplineSet
EndChar

StartChar: uniFE73
Encoding: 65139 65139 124
Width: 895
VWidth: 3435
GlyphClass: 2
Flags: W
AnchorPoint: "Anchor-10" 331.315 1985.89 basechar 0
AnchorPoint: "Anchor-7" 331.315 -200.464 basechar 0
LayerCount: 2
Fore
SplineSet
419.139648438 494.073242188 m 2,0,1
 419.139648438 387.400106073 419.139648438 387.400106073 507.176269531 298.834818661 c 128,-1,2
 595.212890625 210.26953125 595.212890625 210.26953125 808.9453125 210.26953125 c 2,3,-1
 900.182617188 210.26953125 l 1,4,-1
 900.182617188 2.6162109375 l 1,5,-1
 716.444335938 2.6162109375 l 2,6,7
 492.395729159 3.06738629985 492.395729159 3.06738629985 351.803710938 137.5703125 c 0,8,9
 211.489257812 272.225285733 211.489257812 272.225285733 211.489257812 473.893554688 c 2,10,-1
 211.489257812 511.309570312 l 1,11,-1
 419.139648438 511.309570312 l 1,12,-1
 419.139648438 494.073242188 l 2,0,1
EndSplineSet
EndChar

StartChar: uniFE8E
Encoding: 65166 65166 150
Width: 561
VWidth: 3705
GlyphClass: 2
Flags: W
AnchorPoint: "Anchor-10" 205.896 1664.31 basechar 0
AnchorPoint: "Anchor-7" 270.473 -229.464 basechar 0
LayerCount: 2
Fore
SplineSet
159.518554688 884.955078125 m 4,0,1
 166 1276 166 1276 149.987304688 1429.0390625 c 5,2,-1
 252.95703125 1484.05957031 l 6,3,4
 314 1517 314 1517 317.790039062 1435.14550781 c 4,5,6
 328 1219 328 1219 320.5 980 c 4,7,8
 313 745 313 745 314.779296875 472.400390625 c 4,9,10
 316 290 316 290 355.942382812 237.354492188 c 4,11,12
 399.883878858 180.151167257 399.883878858 180.151167257 537.885742188 179.999023438 c 6,13,-1
 574.203125 179.958984375 l 5,14,-1
 574.203125 0 l 5,15,-1
 502.934570312 0 l 6,16,17
 194 0 194 0 171.728515625 349 c 4,18,19
 155.507180132 584.029619196 155.507180132 584.029619196 159.518554688 884.955078125 c 4,0,1
EndSplineSet
EndChar

StartChar: uniFEA2
Encoding: 65186 65186 170
Width: 1339
VWidth: 3739
GlyphClass: 2
Flags: W
AnchorPoint: "Anchor-10" 609.972 1252.02 basechar 0
AnchorPoint: "Anchor-7" 464.402 -843.641 basechar 0
LayerCount: 2
Fore
SplineSet
488.01171875 496.65234375 m 24,0,1
 612 572 612 572 795.495117188 608.938476562 c 1,2,3
 685 630 685 630 630.286132812 642.482421875 c 0,4,5
 415 691 415 691 345.723632812 668.673828125 c 0,6,7
 277 646 277 646 204.627929688 558.344726562 c 1,8,9
 156 576 156 576 112.594726562 605.782226562 c 1,10,11
 154 703 154 703 227.471240326 786.136798702 c 0,12,13
 301 869 301 869 404.666015625 864.3359375 c 0,14,15
 516 860 516 860 999.737304688 716.556640625 c 0,16,17
 1116 682 1116 682 1222.34667969 685.420898438 c 0,18,19
 1242.12779534 686.003765597 1242.12779534 686.003765597 1235.97753906 671.47265625 c 2,20,-1
 1164.41894531 502.40234375 l 1,21,22
 1091 494 1091 494 1017.98730469 485.309570312 c 1,23,24
 1040.002755 180.961914062 1040.002755 180.961914062 1324.82714844 180.961914062 c 6,25,-1
 1352.26269531 180.961914062 l 5,26,-1
 1352.26269531 0.2587890625 l 1,27,-1
 1335.97949219 0.2587890625 l 2,28,29
 925.049206755 3.09849248197e-05 925.049206755 3.09849248197e-05 887.879882812 423.126953125 c 2,30,-1
 884.426757812 462.436523438 l 1,31,32
 743 437 743 437 609.952148438 371.383789062 c 24,33,34
 289 214 289 214 288.989257812 -83.6806640625 c 0,35,36
 289 -436 289 -436 807.822265625 -433.583984375 c 0,37,38
 909 -433 909 -433 991.796875 -423.38671875 c 0,39,40
 1075 -413 1075 -413 1158.58300781 -403.70703125 c 1,41,42
 1176 -406 1176 -406 1160.47460938 -512.251953125 c 0,43,44
 1150 -584 1150 -584 1122.16992188 -588.37890625 c 0,45,46
 969 -613 969 -613 841.9921875 -613.255859375 c 0,47,48
 699 -613 699 -613 584.427734375 -594.079101562 c 0,49,50
 400 -564 400 -564 298.9609375 -476.314453125 c 0,51,52
 142 -340 142 -340 142.25390625 -113.3515625 c 0,53,54
 142 286 142 286 488.01171875 496.65234375 c 24,0,1
EndSplineSet
EndChar

StartChar: uniFEA3
Encoding: 65187 65187 171
Width: 1300
VWidth: 3745
GlyphClass: 2
Flags: W
AnchorPoint: "Anchor-10" 447.25 1250.14 basechar 0
AnchorPoint: "Anchor-7" 501.367 -226.896 basechar 0
LayerCount: 2
Fore
SplineSet
918.53125 426.1640625 m 1,0,1
 860 439 860 439 615 534.5 c 0,2,3
 473 590 473 590 387 590 c 0,4,5
 280 590 280 590 170 456 c 1,6,-1
 87.2333984375 496.524414062 l 1,7,-1
 96.2119140625 519.106445312 l 2,8,9
 200 779 200 779 418.768554688 777.661132812 c 0,10,11
 503 777 503 777 699.602539062 685.375 c 0,12,13
 1041 527 1041 527 1243.32226562 526.163085938 c 0,14,15
 1270.95490665 526.000265704 1270.95490665 526.000265704 1261.95605469 495.549804688 c 2,16,-1
 1217.49609375 345.10546875 l 1,17,18
 1059 341 1059 341 737.485351562 158.393554688 c 0,19,20
 458 0 458 0 162.451171875 0 c 2,21,-1
 -12.447265625 0 l 1,22,-1
 -12.447265625 179.999023438 l 5,23,-1
 195.760742188 179.999023438 l 6,24,25
 445.071324401 180.000000279 445.071324401 180.000000279 728.838867188 327.538085938 c 6,26,-1
 918.53125 426.1640625 l 1,0,1
EndSplineSet
EndChar

StartChar: uniFEA4
Encoding: 65188 65188 172
Width: 1316
VWidth: 3745
GlyphClass: 2
Flags: W
AnchorPoint: "Anchor-10" 487.542 1256.28 basechar 0
AnchorPoint: "Anchor-7" 535.822 -223.531 basechar 0
LayerCount: 2
Fore
SplineSet
879 233 m 5,0,1
 787 193 787 193 720 157 c 0,2,3
 422 0 422 0 162.451171875 0 c 2,4,-1
 -12.447265625 0 l 1,5,-1
 -12.447265625 179.999023438 l 1,6,-1
 195.760742188 179.999023438 l 2,7,8
 442.907182819 179.999999633 442.907182819 179.999999633 725 326 c 2,9,-1
 918.53125 426.1640625 l 1,10,11
 824 451 824 451 615 534.5 c 0,12,13
 476 590 476 590 390 590 c 0,14,15
 281 590 281 590 171 456 c 1,16,-1
 86.2333984375 496.286132812 l 1,17,-1
 94.2119140625 515.868164062 l 2,18,19
 201 779 201 779 418.768554688 777.661132812 c 0,20,21
 503 777 503 777 699.602539062 685.375 c 0,22,23
 1038 527 1038 527 1243.32226562 526.163085938 c 0,24,25
 1270.95490665 526.000265704 1270.95490665 526.000265704 1261.95605469 495.549804688 c 2,26,-1
 1217.49609375 345.10546875 l 1,27,28
 1115 343 1115 343 989 285.483398438 c 5,29,30
 989 180 989 180 1122.23828125 179.999023438 c 2,31,-1
 1329.60546875 179.999023438 l 1,32,-1
 1329.60546875 0 l 1,33,-1
 1139.60742188 0 l 2,34,35
 894 0 894 0 879 233 c 5,0,1
EndSplineSet
EndChar

StartChar: uniFEAA
Encoding: 65194 65194 178
Width: 1142
VWidth: 3737
GlyphClass: 2
Flags: W
AnchorPoint: "Anchor-10" 619.455 1319.65 basechar 0
AnchorPoint: "Anchor-7" 432.118 -263.355 basechar 0
LayerCount: 2
Fore
SplineSet
230.78515625 325.607421875 m 1,0,1
 230 307 230 307 230.291992188 303.686523438 c 0,2,3
 232 180 232 180 412.369140625 179.999023438 c 0,4,5
 572 180 572 180 672.318359375 242.181152344 c 0,6,7
 751 291 751 291 733.09765625 353.327148438 c 0,8,9
 729 367 729 367 725.0234375 382.133789062 c 2,10,-1
 573.29296875 877.983398438 l 1,11,-1
 671.33984375 992 l 2,12,13
 713.135422875 1041.15928219 713.135422875 1041.15928219 729.854492188 983 c 2,14,-1
 886.681640625 437.458007812 l 2,15,16
 960.000279188 180.999023438 960.000279188 180.999023438 1135.69726562 180.999023438 c 6,17,-1
 1155.53613281 180.999023438 l 5,18,-1
 1155.53613281 0 l 1,19,-1
 1131.90039062 0 l 2,20,21
 927 0 927 0 827.291992188 195.197265625 c 1,22,23
 696 -2 696 -2 411.872070312 0.154296875 c 0,24,25
 103 3 103 3 103.893554688 227.77734375 c 0,26,27
 104 258 104 258 122.610351562 336.577148438 c 1,28,-1
 230.78515625 325.607421875 l 1,0,1
EndSplineSet
EndChar

StartChar: uniFEAE
Encoding: 65198 65198 182
Width: 863
VWidth: 3744
GlyphClass: 2
Flags: W
AnchorPoint: "Anchor-10" 511.778 981.68 basechar 0
AnchorPoint: "Anchor-7" 215.631 -768.881 basechar 0
LayerCount: 2
Fore
SplineSet
29.888671875 -400.697265625 m 0,0,1
 506 -277 506 -277 540.114257812 69.5673828125 c 0,2,3
 552 188 552 188 431.522460938 417.915039062 c 1,4,5
 471 472 471 472 511.811523438 523.811523438 c 0,6,7
 572 600 572 600 612.227539062 486 c 0,8,9
 660 350 660 350 667.290039062 328.109375 c 0,10,11
 716.00032117 179.999023438 716.00032117 179.999023438 838.29296875 179.999023438 c 2,12,-1
 876.125976562 179.999023438 l 1,13,-1
 876.125976562 0 l 1,14,-1
 843.346679688 0 l 2,15,16
 762 0 762 0 690 49.8779296875 c 1,17,18
 670 -75 670 -75 616.513671875 -178.618164062 c 0,19,20
 528 -350 528 -350 343.127929688 -452.723632812 c 0,21,22
 228 -517 228 -517 141.063476562 -539.716796875 c 0,23,24
 97 -551 97 -551 72.830078125 -529.856445312 c 0,25,26
 54 -512 54 -512 22.517578125 -459.0625 c 0,27,28
 -6 -410 -6 -410 29.888671875 -400.697265625 c 0,0,1
EndSplineSet
PairPos2: "'kern' Horizontal Kerning lookup 15-1" uniFEF3 dx=70 dy=0 dh=70 dv=0 dx=0 dy=0 dh=0 dv=0
PairPos2: "'kern' Horizontal Kerning lookup 15-1" uniFB58 dx=53 dy=0 dh=53 dv=0 dx=0 dy=0 dh=0 dv=0
PairPos2: "'kern' Horizontal Kerning lookup 15-1" uniFBFE dx=70 dy=0 dh=70 dv=0 dx=0 dy=0 dh=0 dv=0
PairPos2: "'kern' Horizontal Kerning lookup 15-4" uni0621 dx=-196 dy=0 dh=-196 dv=0 dx=0 dy=0 dh=0 dv=0
PairPos2: "'kern' Horizontal Kerning lookup 15-3" uni0648 dx=-43 dy=0 dh=-43 dv=0 dx=0 dy=0 dh=0 dv=0
PairPos2: "'kern' Horizontal Kerning lookup 15-1" uni0644 dx=-43 dy=0 dh=-43 dv=0 dx=0 dy=0 dh=0 dv=0
PairPos2: "'kern' Horizontal Kerning lookup 15-1" uni0642 dx=-43 dy=0 dh=-43 dv=0 dx=0 dy=0 dh=0 dv=0
PairPos2: "'kern' Horizontal Kerning lookup 15-1" uni0632 dx=-43 dy=0 dh=-43 dv=0 dx=0 dy=0 dh=0 dv=0
PairPos2: "'kern' Horizontal Kerning lookup 15-1" uni0631 dx=-43 dy=0 dh=-43 dv=0 dx=0 dy=0 dh=0 dv=0
PairPos2: "'kern' Horizontal Kerning lookup 15-1" uniFB8A dx=-43 dy=0 dh=-43 dv=0 dx=0 dy=0 dh=0 dv=0
PairPos2: "'kern' Horizontal Kerning lookup 15-1" afii57508 dx=-43 dy=0 dh=-43 dv=0 dx=0 dy=0 dh=0 dv=0
PairPos2: "'kern' Horizontal Kerning lookup 15-1" uniFB7C dx=-128 dy=0 dh=-128 dv=0 dx=0 dy=0 dh=0 dv=0
PairPos2: "'kern' Horizontal Kerning lookup 15-1" uni06CC dx=-43 dy=0 dh=-43 dv=0 dx=0 dy=0 dh=0 dv=0
PairPos2: "'kern' Horizontal Kerning lookup 15-1" uniFEEB dx=-128 dy=0 dh=-128 dv=0 dx=0 dy=0 dh=0 dv=0
PairPos2: "'kern' Horizontal Kerning lookup 15-1" uniFEDF dx=-128 dy=0 dh=-128 dv=0 dx=0 dy=0 dh=0 dv=0
PairPos2: "'kern' Horizontal Kerning lookup 15-1" uniFB90 dx=-213 dy=0 dh=-213 dv=0 dx=0 dy=0 dh=0 dv=0
PairPos2: "'kern' Horizontal Kerning lookup 15-1" uni06A9 dx=-213 dy=0 dh=-213 dv=0 dx=0 dy=0 dh=0 dv=0
PairPos2: "'kern' Horizontal Kerning lookup 15-1" uni0649 dx=-43 dy=0 dh=-43 dv=0 dx=0 dy=0 dh=0 dv=0
PairPos2: "'kern' Horizontal Kerning lookup 15-1" uni0647 dx=-128 dy=0 dh=-128 dv=0 dx=0 dy=0 dh=0 dv=0
PairPos2: "'kern' Horizontal Kerning lookup 15-1" uniFEE7 dx=-128 dy=0 dh=-128 dv=0 dx=0 dy=0 dh=0 dv=0
PairPos2: "'kern' Horizontal Kerning lookup 15-1" uniFEE3 dx=-128 dy=0 dh=-128 dv=0 dx=0 dy=0 dh=0 dv=0
PairPos2: "'kern' Horizontal Kerning lookup 15-1" uni0645 dx=-128 dy=0 dh=-128 dv=0 dx=0 dy=0 dh=0 dv=0
PairPos2: "'kern' Horizontal Kerning lookup 15-1" uniFEDB dx=-213 dy=0 dh=-213 dv=0 dx=0 dy=0 dh=0 dv=0
PairPos2: "'kern' Horizontal Kerning lookup 15-1" uniFED7 dx=-128 dy=0 dh=-128 dv=0 dx=0 dy=0 dh=0 dv=0
PairPos2: "'kern' Horizontal Kerning lookup 15-1" uniFED3 dx=-128 dy=0 dh=-128 dv=0 dx=0 dy=0 dh=0 dv=0
PairPos2: "'kern' Horizontal Kerning lookup 15-1" uni0641 dx=-128 dy=0 dh=-128 dv=0 dx=0 dy=0 dh=0 dv=0
PairPos2: "'kern' Horizontal Kerning lookup 15-1" uniFECF dx=-128 dy=0 dh=-128 dv=0 dx=0 dy=0 dh=0 dv=0
PairPos2: "'kern' Horizontal Kerning lookup 15-1" uniFECB dx=-128 dy=0 dh=-128 dv=0 dx=0 dy=0 dh=0 dv=0
PairPos2: "'kern' Horizontal Kerning lookup 15-1" uniFEC7 dx=-128 dy=0 dh=-128 dv=0 dx=0 dy=0 dh=0 dv=0
PairPos2: "'kern' Horizontal Kerning lookup 15-1" uni0638 dx=-128 dy=0 dh=-128 dv=0 dx=0 dy=0 dh=0 dv=0
PairPos2: "'kern' Horizontal Kerning lookup 15-1" uniFEC3 dx=-128 dy=0 dh=-128 dv=0 dx=0 dy=0 dh=0 dv=0
PairPos2: "'kern' Horizontal Kerning lookup 15-1" uni0637 dx=-128 dy=0 dh=-128 dv=0 dx=0 dy=0 dh=0 dv=0
PairPos2: "'kern' Horizontal Kerning lookup 15-1" uniFEBF dx=-128 dy=0 dh=-128 dv=0 dx=0 dy=0 dh=0 dv=0
PairPos2: "'kern' Horizontal Kerning lookup 15-1" uni0636 dx=-128 dy=0 dh=-128 dv=0 dx=0 dy=0 dh=0 dv=0
PairPos2: "'kern' Horizontal Kerning lookup 15-1" uniFEBB dx=-128 dy=0 dh=-128 dv=0 dx=0 dy=0 dh=0 dv=0
PairPos2: "'kern' Horizontal Kerning lookup 15-1" uni0635 dx=-128 dy=0 dh=-128 dv=0 dx=0 dy=0 dh=0 dv=0
PairPos2: "'kern' Horizontal Kerning lookup 15-1" uniFEB7 dx=-128 dy=0 dh=-128 dv=0 dx=0 dy=0 dh=0 dv=0
PairPos2: "'kern' Horizontal Kerning lookup 15-1" uni0634 dx=-128 dy=0 dh=-128 dv=0 dx=0 dy=0 dh=0 dv=0
PairPos2: "'kern' Horizontal Kerning lookup 15-1" uniFEB3 dx=-128 dy=0 dh=-128 dv=0 dx=0 dy=0 dh=0 dv=0
PairPos2: "'kern' Horizontal Kerning lookup 15-1" uni0633 dx=-128 dy=0 dh=-128 dv=0 dx=0 dy=0 dh=0 dv=0
PairPos2: "'kern' Horizontal Kerning lookup 15-1" uni0630 dx=-128 dy=0 dh=-128 dv=0 dx=0 dy=0 dh=0 dv=0
PairPos2: "'kern' Horizontal Kerning lookup 15-1" uni062F dx=-128 dy=0 dh=-128 dv=0 dx=0 dy=0 dh=0 dv=0
PairPos2: "'kern' Horizontal Kerning lookup 15-1" uniFEA7 dx=-128 dy=0 dh=-128 dv=0 dx=0 dy=0 dh=0 dv=0
PairPos2: "'kern' Horizontal Kerning lookup 15-1" uniFEA3 dx=-128 dy=0 dh=-128 dv=0 dx=0 dy=0 dh=0 dv=0
PairPos2: "'kern' Horizontal Kerning lookup 15-1" uniFE9F dx=-128 dy=0 dh=-128 dv=0 dx=0 dy=0 dh=0 dv=0
PairPos2: "'kern' Horizontal Kerning lookup 15-1" uniFE9B dx=-128 dy=0 dh=-128 dv=0 dx=0 dy=0 dh=0 dv=0
PairPos2: "'kern' Horizontal Kerning lookup 15-1" uni062B dx=-128 dy=0 dh=-128 dv=0 dx=0 dy=0 dh=0 dv=0
PairPos2: "'kern' Horizontal Kerning lookup 15-1" uniFE97 dx=-128 dy=0 dh=-128 dv=0 dx=0 dy=0 dh=0 dv=0
PairPos2: "'kern' Horizontal Kerning lookup 15-1" uni062A dx=-128 dy=0 dh=-128 dv=0 dx=0 dy=0 dh=0 dv=0
PairPos2: "'kern' Horizontal Kerning lookup 15-1" uni0629 dx=-128 dy=0 dh=-128 dv=0 dx=0 dy=0 dh=0 dv=0
PairPos2: "'kern' Horizontal Kerning lookup 15-1" uni0628 dx=-128 dy=0 dh=-128 dv=0 dx=0 dy=0 dh=0 dv=0
PairPos2: "'kern' Horizontal Kerning lookup 15-1" uni0627 dx=-196 dy=0 dh=-196 dv=0 dx=0 dy=0 dh=0 dv=0
PairPos2: "'kern' Horizontal Kerning lookup 15-1" uni0622 dx=-196 dy=0 dh=-196 dv=0 dx=0 dy=0 dh=0 dv=0
PairPos2: "'kern' Horizontal Kerning lookup 15-1" uniFB94 dx=-235 dy=0 dh=-235 dv=0 dx=0 dy=0 dh=0 dv=0
PairPos2: "'kern' Horizontal Kerning lookup 15-1" afii57509 dx=-235 dy=0 dh=-235 dv=0 dx=0 dy=0 dh=0 dv=0
PairPos2: "'kern' Horizontal Kerning lookup 15-1" uniFB56 dx=-128 dy=0 dh=-128 dv=0 dx=0 dy=0 dh=0 dv=0
PairPos2: "'kern' Horizontal Kerning lookup 15-1" afii57506 dx=-128 dy=0 dh=-128 dv=0 dx=0 dy=0 dh=0 dv=0
EndChar

StartChar: uniFEB2
Encoding: 65202 65202 186
Width: 2508
VWidth: 3744
GlyphClass: 2
Flags: W
AnchorPoint: "Anchor-10" 654.203 979.759 basechar 0
AnchorPoint: "Anchor-7" 383.613 -784.732 basechar 0
LayerCount: 2
Fore
SplineSet
1305 49.8779296875 m 1,0,1
 1309 -14 1309 -14 1292 -92.6640625 c 0,2,3
 1193 -540 1193 -540 665.975585938 -538.853515625 c 0,4,5
 451 -538 451 -538 309 -447.232421875 c 0,6,7
 110 -319 110 -319 107.025092312 -43 c 0,8,9
 105 153 105 153 209.79296875 384.94140625 c 1,10,-1
 320.0546875 352.40234375 l 1,11,12
 263 165 263 165 262.880859375 13.18359375 c 0,13,14
 263 -359 263 -359 677.813476562 -359.276367188 c 0,15,16
 993 -359 993 -359 1113.19140625 -164.387695312 c 0,17,18
 1155 -97 1155 -97 1155 -18 c 0,19,20
 1155 47 1155 47 1037.66699219 338.455078125 c 1,21,-1
 1134.31640625 484.686523438 l 1,22,23
 1158 516 1158 516 1185.24511719 455.676757812 c 0,24,25
 1260 292 1260 292 1261.33007812 289.373046875 c 24,26,27
 1319 182 1319 182 1461.47167969 179.999023438 c 0,28,29
 1604.75375118 178.003429687 1604.75375118 178.003429687 1616.71484375 323.06640625 c 2,30,-1
 1633.06933594 521.412109375 l 5,31,-1
 1756.45996094 521.412109375 l 5,32,-1
 1772.04785156 326.885742188 l 2,33,34
 1785 171 1785 171 1941.59472656 170.5 c 0,35,36
 2089.77666689 170.000752443 2089.77666689 170.000752443 2099.21484375 327.270507812 c 2,37,-1
 2111.98828125 540.116210938 l 5,38,-1
 2240.12207031 540.116210938 l 5,39,-1
 2254.90820312 327.376953125 l 2,40,41
 2265.00006733 180.999023438 2265.00006733 180.999023438 2491.88671875 180.999023438 c 2,42,-1
 2520.92578125 180.999023438 l 1,43,-1
 2520.92578125 0 l 1,44,-1
 2486.86425781 0 l 2,45,46
 2236 0 2236 0 2177.86230469 130.819335938 c 1,47,48
 2093 -2 2093 -2 1935 -2 c 0,49,50
 1786 -2 1786 -2 1693.31152344 127.880859375 c 1,51,52
 1593 -3 1593 -3 1473.97460938 -2.015625 c 0,53,54
 1351 -1 1351 -1 1305 49.8779296875 c 1,0,1
EndSplineSet
EndChar

StartChar: uniFEB3
Encoding: 65203 65203 187
Width: 1571
VWidth: 3744
GlyphClass: 2
Flags: W
AnchorPoint: "Anchor-10" 935.148 1112.27 basechar 0
AnchorPoint: "Anchor-7" 865.32 -263.321 basechar 0
LayerCount: 2
Fore
SplineSet
1153.99316406 180.349609375 m 0,0,1
 1322 180 1322 180 1319.68847656 343.302734375 c 0,2,3
 1319 397 1319 397 1241.27441406 613.266601562 c 1,4,-1
 1321.78320312 706.36328125 l 1,5,6
 1367 757 1367 757 1393.45117188 701.693359375 c 0,7,8
 1474 536 1474 536 1471.27441406 374.629882812 c 0,9,10
 1469 232 1469 232 1389.97851562 123.79296875 c 0,11,12
 1297 -4 1297 -4 1156.98339844 -1.158203125 c 24,13,14
 978 3 978 3 908.935546875 128.845703125 c 1,15,16
 809 -3 809 -3 666.145507812 -2.966796875 c 0,17,18
 491 -2 491 -2 418.49609375 128.840820312 c 1,19,20
 334 0 334 0 112.4453125 0 c 2,21,-1
 -12.9951171875 0 l 1,22,-1
 -12.9951171875 179.999023438 l 1,23,-1
 116.655273438 179.999023438 l 2,24,25
 334.200611153 180.000000901 334.200611153 180.000000901 346.140625 325.081054688 c 2,26,-1
 362.41796875 522.864257812 l 5,27,-1
 485.999023438 522.864257812 l 1,28,-1
 501.504882812 328.895507812 l 2,29,30
 513 182 513 182 667.267578125 179.998046875 c 0,31,32
 818.837608724 178.002138405 818.837608724 178.002138405 831.208984375 326.399414062 c 2,33,-1
 847.526367188 522.129882812 l 5,34,-1
 971.010742188 522.129882812 l 1,35,-1
 986.55859375 330.216796875 l 2,36,37
 999 180 999 180 1153.99316406 180.349609375 c 0,0,1
EndSplineSet
EndChar

StartChar: uniFEB4
Encoding: 65204 65204 188
Width: 1721
VWidth: 3744
GlyphClass: 2
Flags: W
AnchorPoint: "Anchor-7" 914.254 -267.588 basechar 0
AnchorPoint: "Anchor-10" 886.536 1035.47 basechar 0
LayerCount: 2
Fore
SplineSet
1706.18945312 0 m 2,0,1
 1453 0 1453 0 1393.45410156 136.162109375 c 1,2,3
 1329 -0 1329 -0 1163.63671875 1.001953125 c 0,4,5
 1003 2 1003 2 919.23828125 129.790039062 c 1,6,7
 832 1 832 1 669 1 c 0,8,9
 513 1 513 1 424.467773438 126.46484375 c 1,10,11
 337 0 337 0 120.116210938 0 c 2,12,-1
 -13.083984375 0 l 1,13,-1
 -13.083984375 179.999023438 l 1,14,-1
 126.655273438 179.999023438 l 2,15,16
 343.970462678 179.999999867 343.970462678 179.999999867 356.147460938 326.06640625 c 2,17,-1
 372.46484375 521.797851562 l 1,18,-1
 495.950195312 521.797851562 l 5,19,-1
 511.498046875 329.87890625 l 2,20,21
 524 180 524 180 674.794921875 181.998046875 c 0,22,23
 829.112629878 184.001462207 829.112629878 184.001462207 841.20703125 327.986328125 c 2,24,-1
 857.514648438 522.129882812 l 1,25,-1
 981.021484375 522.129882812 l 5,26,-1
 996.560546875 331.802734375 l 2,27,28
 1009 177 1009 177 1176.61425781 181.349609375 c 0,29,30
 1304.91132639 184.997478744 1304.91132639 184.997478744 1314.2890625 335.2421875 c 2,31,-1
 1327.05078125 539.703125 l 1,32,-1
 1455.2109375 539.703125 l 5,33,-1
 1469.98730469 335.331054688 l 2,34,35
 1481.00006969 180.999023438 1481.00006969 180.999023438 1706.96289062 180.999023438 c 2,36,-1
 1734.88183594 180.999023438 l 1,37,-1
 1734.88183594 0 l 1,38,-1
 1706.18945312 0 l 2,0,1
EndSplineSet
EndChar

StartChar: uniFEBA
Encoding: 65210 65210 194
Width: 2681
VWidth: 3745
GlyphClass: 2
Flags: W
AnchorPoint: "Anchor-7" 551.602 -834.642 basechar 0
AnchorPoint: "Anchor-10" 664.203 978.759 basechar 0
LayerCount: 2
Fore
SplineSet
1604.34179688 177.671875 m 1,0,-1
 1915.48242188 177.671875 l 2,1,2
 2174.84863281 177.8671875 2174.84863281 177.8671875 2279.54785156 258.909179688 c 0,3,4
 2353.50097656 316.15234375 2353.50097656 316.15234375 2353.76757812 417.880859375 c 0,5,6
 2353.93359375 481.229492188 2353.93359375 481.229492188 2315 529.888671875 c 0,7,8
 2270.15722656 585.93359375 2270.15722656 585.93359375 2168.54785156 585.895507812 c 0,9,10
 1941.80273438 585.80859375 1941.80273438 585.80859375 1604.34179688 177.671875 c 1,0,-1
2162.35839844 764.534179688 m 24,11,12
 2213 767 2213 767 2254.76953125 759.770507812 c 0,13,14
 2421 730 2421 730 2482.59277344 603.299804688 c 0,15,16
 2516 535 2516 535 2516.12207031 459.299804688 c 0,17,18
 2516 434 2516 434 2513.26171875 406.409179688 c 0,19,20
 2498 270 2498 270 2411.73632812 181.623046875 c 1,21,-1
 2694.75878906 181.870117188 l 1,22,-1
 2694.75878906 0.0673828125 l 1,23,-1
 2577.39257812 0.0673828125 l 2,24,25
 2358 0 2358 0 2260.84375 80.3515625 c 1,26,27
 2105.82649635 -0.0900345628144 2105.82649635 -0.0900345628144 1823.98828125 -0.1064453125 c 2,28,-1
 1589.1875 -0.1201171875 l 2,29,30
 1368 -0 1368 -0 1305 49.8779296875 c 1,31,32
 1309 -12 1309 -12 1293 -88.0849609375 c 0,33,34
 1196 -540 1196 -540 665.975585938 -538.853515625 c 0,35,36
 464 -538 464 -538 313 -447.586914062 c 0,37,38
 107 -323 107 -323 106.844783835 -37 c 0,39,40
 107 159 107 159 209.79296875 384.94140625 c 1,41,-1
 320.0546875 352.40234375 l 1,42,43
 263 165 263 165 262.880859375 13.18359375 c 0,44,45
 263 -359 263 -359 677.813476562 -359.276367188 c 0,46,47
 993 -359 993 -359 1113.19140625 -164.387695312 c 0,48,49
 1155 -97 1155 -97 1155 -18 c 0,50,51
 1155 47 1155 47 1037.66699219 338.455078125 c 1,52,-1
 1134.31640625 484.686523438 l 1,53,54
 1159 517 1159 517 1185.24511719 455.676757812 c 0,55,56
 1261 280 1261 280 1261.33007812 279.373046875 c 24,57,58
 1321 177 1321 177 1454.56640625 180.692382812 c 1,59,60
 1812 747 1812 747 2162.35839844 764.534179688 c 24,11,12
EndSplineSet
EndChar

StartChar: uniFEBB
Encoding: 65211 65211 195
Width: 1756
VWidth: 3745
GlyphClass: 2
Flags: W
AnchorPoint: "Anchor-10" 921.956 1413.91 basechar 0
AnchorPoint: "Anchor-7" 662.342 -247.568 basechar 0
LayerCount: 2
Fore
SplineSet
719.841796875 179.698242188 m 1,0,-1
 1030.98242188 179.698242188 l 2,1,2
 1290.34863281 179.893554688 1290.34863281 179.893554688 1395.04785156 260.935546875 c 0,3,4
 1469.00097656 318.178710938 1469.00097656 318.178710938 1469.26757812 419.907226562 c 0,5,6
 1469.43359375 483.255859375 1469.43359375 483.255859375 1430.5 531.915039062 c 0,7,8
 1385.65722656 587.959960938 1385.65722656 587.959960938 1284.04785156 587.921875 c 0,9,10
 1057.30273438 587.834960938 1057.30273438 587.834960938 719.841796875 179.698242188 c 1,0,-1
349.329101562 128.564453125 m 5,11,12
 262.174429141 -0.7412109375 262.174429141 -0.7412109375 28.1640625 -0.7412109375 c 2,13,-1
 -12.998046875 -0.7412109375 l 1,14,-1
 -12.998046875 179.961914062 l 1,15,-1
 9.4033203125 179.961914062 l 2,16,17
 266.926921117 179.999989195 266.926921117 179.999989195 279.373046875 371.895507812 c 2,18,-1
 292.100585938 568.129882812 l 1,19,-1
 410.33984375 568.129882812 l 1,20,-1
 425.078125 371.979492188 l 2,21,22
 438 199 438 199 570.114257812 182.815429688 c 1,23,24
 934 762 934 762 1277.84667969 764.559570312 c 0,25,26
 1514 766 1514 766 1602.60449219 577.509765625 c 0,27,28
 1634 511 1634 511 1632.05859375 426.03515625 c 0,29,30
 1628 244 1628 244 1465.23535156 124.552734375 c 0,31,32
 1291.91847481 -2.05955618093 1291.91847481 -2.05955618093 939.477539062 -2.080078125 c 2,33,-1
 704.678710938 -2.09375 l 2,34,35
 449 -2 449 -2 349.329101562 128.564453125 c 5,11,12
EndSplineSet
EndChar

StartChar: uniFEBC
Encoding: 65212 65212 196
Width: 1795
VWidth: 3745
GlyphClass: 2
Flags: W
AnchorPoint: "Anchor-10" 940.8 1326.63 basechar 0
AnchorPoint: "Anchor-7" 678.137 -236.413 basechar 0
LayerCount: 2
Fore
SplineSet
717.44140625 179.698242188 m 1,0,-1
 1028.58203125 179.698242188 l 2,1,2
 1287.94824219 179.893554688 1287.94824219 179.893554688 1392.64746094 260.935546875 c 0,3,4
 1466.60058594 318.178710938 1466.60058594 318.178710938 1466.8671875 419.907226562 c 0,5,6
 1467.03320312 483.255859375 1467.03320312 483.255859375 1428.09960938 531.915039062 c 0,7,8
 1383.25683594 587.959960938 1383.25683594 587.959960938 1281.64746094 587.921875 c 0,9,10
 1054.90234375 587.834960938 1054.90234375 587.834960938 717.44140625 179.698242188 c 1,0,-1
702.278320312 -2.09375 m 2,11,12
 445.083774215 -2.10872587142 445.083774215 -2.10872587142 342.672851562 130.8046875 c 5,13,14
 257.168212507 -0.7412109375 257.168212507 -0.7412109375 28.1640625 -0.7412109375 c 2,15,-1
 -12.998046875 -0.7412109375 l 1,16,-1
 -12.998046875 179.961914062 l 1,17,-1
 9.4033203125 179.961914062 l 2,18,19
 264.55858106 179.999934225 264.55858106 179.999934225 278.040039062 371.889648438 c 2,20,-1
 291.827148438 568.129882812 l 1,21,-1
 409.018554688 568.129882812 l 1,22,-1
 423.74609375 371.96875 l 2,23,24
 437 199 437 199 567.713867188 182.814453125 c 1,25,26
 930 759 930 759 1288 764.416899557 c 0,27,28
 1328 765 1328 765 1367.7890625 757.470703125 c 0,29,30
 1533 728 1533 728 1595.61230469 601 c 0,31,32
 1630 532 1630 532 1629.14130136 457 c 0,33,34
 1629 431 1629 431 1626.28125 404.109375 c 0,35,36
 1611 268 1611 268 1524.75585938 179.323242188 c 1,37,-1
 1807.84863281 180.006835938 l 1,38,-1
 1807.84863281 0.09375 l 1,39,-1
 1690.48144531 0.09375 l 2,40,41
 1471 0 1471 0 1373.93554688 80.3779296875 c 1,42,43
 1214.8767099 -2.06390252582 1214.8767099 -2.06390252582 937.078125 -2.080078125 c 2,44,-1
 702.278320312 -2.09375 l 2,11,12
EndSplineSet
EndChar

StartChar: uniFEC2
Encoding: 65218 65218 202
Width: 1667
VWidth: 3745
GlyphClass: 2
Flags: W
AnchorPoint: "Anchor-10" 499.975 1612.06 basechar 0
AnchorPoint: "Anchor-7" 797.173 -236.469 basechar 0
LayerCount: 2
Fore
SplineSet
579.793945312 183.791015625 m 1,0,-1
 890.934570312 183.791015625 l 2,1,2
 1150.30078125 183.986328125 1150.30078125 183.986328125 1255 265.028320312 c 0,3,4
 1328.953125 322.271484375 1328.953125 322.271484375 1329.21972656 424 c 0,5,6
 1329.38574219 487.348632812 1329.38574219 487.348632812 1290.45214844 536.0078125 c 0,7,8
 1245.609375 592.052734375 1245.609375 592.052734375 1144 592.014648438 c 0,9,10
 917.254882812 591.927734375 917.254882812 591.927734375 579.793945312 183.791015625 c 1,0,-1
270.198242188 -0.7431640625 m 1,11,12
 112 124 112 124 106.084960938 159.323242188 c 1,13,-1
 101.7890625 159.323242188 l 1,14,-1
 101.7890625 169.323242188 l 1,15,-1
 106.607421875 169.323242188 l 1,16,17
 110.858946183 179.657149538 110.858946183 179.657149538 134.399414062 179.657226562 c 2,18,-1
 432.862304688 179.658203125 l 1,19,20
 465 234 465 234 497.756835938 288.345703125 c 1,21,22
 497 343 497 343 473.5 829 c 128,-1,23
 450 1315 450 1315 425.545898438 1429.48144531 c 5,24,-1
 551.046875 1487.52148438 l 6,25,26
 613.818261552 1516.91489891 613.818261552 1516.91489891 614.983398438 1445.04785156 c 6,27,-1
 631.059570312 453.450195312 l 1,28,29
 898 766 898 766 1146 767 c 0,30,31
 1374 768 1374 768 1462.57714844 579.588867188 c 0,32,33
 1494 513 1494 513 1492.203125 433.493164062 c 0,34,35
 1490 288 1490 288 1384.1796875 179.3828125 c 1,36,-1
 1679.48144531 180.198242188 l 1,37,-1
 1679.48144531 0.6103515625 l 1,38,-1
 1568.90429688 0.6103515625 l 2,39,40
 1339 1 1339 1 1245.00976562 77.44140625 c 1,41,42
 1090.06123854 0.030594194952 1090.06123854 0.030594194952 799.443359375 0.013671875 c 2,43,-1
 564.647460938 0 l 1,44,-1
 270.198242188 -0.7431640625 l 1,11,12
EndSplineSet
EndChar

StartChar: uniFEC3
Encoding: 65219 65219 203
Width: 1352
VWidth: 3745
GlyphClass: 2
Flags: W
AnchorPoint: "Anchor-7" 502.774 -230.068 basechar 0
AnchorPoint: "Anchor-10" 231.176 1601.33 basechar 0
LayerCount: 2
Fore
SplineSet
315.731445312 181.439453125 m 1,0,-1
 626.872070312 181.439453125 l 2,1,2
 886.23828125 181.634765625 886.23828125 181.634765625 990.9375 262.676757812 c 0,3,4
 1064.89049084 319.920140456 1064.89049084 319.920140456 1065.15722656 421.6484375 c 0,5,6
 1065.32324219 484.997070312 1065.32324219 484.997070312 1026.38964844 533.65625 c 0,7,8
 981.546875 589.701171875 981.546875 589.701171875 879.9375 589.663085938 c 0,9,10
 653.192382812 589.576171875 653.192382812 589.576171875 315.731445312 181.439453125 c 1,0,-1
233.696289062 283.015625 m 1,11,12
 191 1273 191 1273 161.510742188 1429.15136719 c 5,13,-1
 286.04296875 1486.35644531 l 6,14,15
 350.275299046 1516.12759883 350.275299046 1516.12759883 351.154296875 1460.04785156 c 6,16,-1
 367 449.09765625 l 1,17,18
 639 765 639 765 876.810546875 765.502929688 c 0,19,20
 1010 766 1010 766 1095 708.482421875 c 0,21,22
 1231 617 1231 617 1228.14257812 422.131835938 c 0,23,24
 1225 244 1225 244 1061.25537109 125.067871094 c 0,25,26
 887.562476086 -1.31836074109 887.562476086 -1.31836074109 535.381835938 -1.3388671875 c 2,27,-1
 300.579101562 -1.3525390625 l 1,28,-1
 -12.5654296875 0.1640625 l 1,29,-1
 -12.037109375 180.416015625 l 1,30,-1
 168.813476562 180.299804688 l 1,31,-1
 233.696289062 283.015625 l 1,11,12
EndSplineSet
EndChar

StartChar: uniFEC4
Encoding: 65220 65220 204
Width: 1402
VWidth: 3745
GlyphClass: 2
Flags: W
AnchorPoint: "Anchor-7" 496.374 -224.802 basechar 0
AnchorPoint: "Anchor-10" 224.776 1612 basechar 0
LayerCount: 2
Fore
SplineSet
315.731445312 181.439453125 m 1,0,-1
 626.872070312 181.439453125 l 2,1,2
 886.23828125 181.634765625 886.23828125 181.634765625 990.9375 262.676757812 c 0,3,4
 1064.89049084 319.920140456 1064.89049084 319.920140456 1065.15722656 421.6484375 c 0,5,6
 1065.32324219 484.997070312 1065.32324219 484.997070312 1026.38964844 533.65625 c 0,7,8
 981.546875 589.701171875 981.546875 589.701171875 879.9375 589.663085938 c 0,9,10
 653.192382812 589.576171875 653.192382812 589.576171875 315.731445312 181.439453125 c 1,0,-1
365.931640625 453.090820312 m 1,11,12
 636 766 636 766 874.94921875 766.194335938 c 0,13,14
 999 766 999 766 1082 713.85695569 c 0,15,16
 1160 664 1160 664 1199.33300781 574 c 0,17,18
 1223 519 1223 519 1223.18164062 444 c 0,19,20
 1223 360 1223 360 1193.02444898 288 c 0,21,22
 1167 227 1167 227 1120.15234375 180.030273438 c 1,23,-1
 1415.41992188 180.846679688 l 1,24,-1
 1415.41992188 0.2587890625 l 1,25,-1
 1304.84570312 0.2587890625 l 2,26,27
 1079 0 1079 0 984.93359375 77.0712890625 c 1,28,29
 828.724245269 -2.13983056208 828.724245269 -2.13983056208 535.374023438 -1.3388671875 c 2,30,-1
 -12.5654296875 0.1572265625 l 1,31,-1
 -12.037109375 180.416015625 l 1,32,-1
 168.798828125 180.299804688 l 1,33,-1
 232.6328125 288.0078125 l 1,34,35
 190 1273 190 1273 160.423828125 1429.13476562 c 5,36,-1
 293.044921875 1493.30273438 l 6,37,38
 348.090366033 1520.04389996 348.090366033 1520.04389996 349.9296875 1410.04785156 c 6,39,-1
 365.931640625 453.090820312 l 1,11,12
EndSplineSet
EndChar

StartChar: uniFECA
Encoding: 65226 65226 210
Width: 1323
VWidth: 3739
GlyphClass: 2
Flags: W
AnchorPoint: "Anchor-10" 606.396 1323.45 basechar 0
AnchorPoint: "Anchor-7" 497.724 -865.26 basechar 0
LayerCount: 2
Fore
SplineSet
659.94921875 587.368164062 m 1,0,1
 612.933166301 682.134711414 612.933166301 682.134711414 353.096679688 683.58203125 c 2,2,-1
 350.116210938 683.598632812 l 1,3,-1
 349.991210938 810.005859375 l 1,4,5
 454 876 454 876 749.80859375 873.9375 c 0,6,7
 1048 872 1048 872 1048.52636719 729.6796875 c 0,8,9
 1049 591 1049 591 836.918945312 477.856445312 c 1,10,11
 911.942397774 180.228515625 911.942397774 180.228515625 1288.66113281 180.228515625 c 6,12,-1
 1335.34082031 180.228515625 l 5,13,-1
 1335.34082031 0.2587890625 l 1,14,-1
 1299.81933594 0.2587890625 l 2,15,16
 779.221899065 0.000110259060648 779.221899065 0.000110259060648 728.247070312 417.190429688 c 2,17,-1
 726.598632812 430.681640625 l 1,18,19
 673 418 673 418 579.0078125 370.376953125 c 0,20,21
 259 211 259 211 258.019033417 -79 c 0,22,23
 256 -438 256 -438 800.809570312 -433.028320312 c 0,24,25
 914 -432 914 -432 982.706054688 -422.513671875 c 0,26,27
 1050 -414 1050 -414 1135.76269531 -404.5 c 1,28,29
 1141 -414 1141 -414 1139.50488281 -469.344726562 c 0,30,31
 1137 -563 1137 -563 1121.48828125 -576.024414062 c 0,32,33
 1086 -608 1086 -608 836 -613.421384646 c 0,34,35
 693 -617 693 -617 554 -594.5234375 c 0,36,37
 368 -564 368 -564 269.877929688 -477.431640625 c 0,38,39
 111 -336 111 -336 111.323242188 -112.8203125 c 0,40,41
 112 72 112 72 188.540438428 212 c 0,42,43
 294 404 294 404 507 519.383789062 c 0,44,45
 580 559 580 559 659.94921875 587.368164062 c 1,0,1
EndSplineSet
EndChar

StartChar: uniFECB
Encoding: 65227 65227 211
Width: 1110
VWidth: 3739
GlyphClass: 2
Flags: W
AnchorPoint: "Anchor-10" 525.836 1414.17 basechar 0
AnchorPoint: "Anchor-7" 478.066 -231.427 basechar 0
LayerCount: 2
Fore
SplineSet
863.728515625 628.19140625 m 5,0,1
 714 686 714 686 634.655273438 686.245117188 c 4,2,3
 437 686 437 686 322.173828125 540.424804688 c 4,4,5
 294 505 294 505 294.1875 477.553710938 c 4,6,7
 294 379 294 379 394.0546875 305.606445312 c 4,8,9
 498 228 498 228 519.029296875 227.478515625 c 4,10,11
 569.376836358 228.00393259 569.376836358 228.00393259 822.681640625 282.788085938 c 6,12,-1
 964.16015625 313.38671875 l 5,13,14
 1008.18354398 324.044434554 1008.18354398 324.044434554 1002.39550781 290.987304688 c 6,15,-1
 976.956054688 145.6953125 l 5,16,17
 584.697982161 0.2587890625 584.697982161 0.2587890625 62.5625 0.2587890625 c 2,18,-1
 -12.9169921875 0.2587890625 l 1,19,-1
 -12.9169921875 179.961914062 l 1,20,-1
 296.38671875 179.999023438 l 5,21,22
 154 287 154 287 154.623046875 451.879882812 c 4,23,24
 155 606 155 606 246 718 c 4,25,26
 393 899 393 899 654 866.462890625 c 4,27,28
 810 847 810 847 910.186523438 749.42578125 c 5,29,-1
 863.728515625 628.19140625 l 5,0,1
EndSplineSet
EndChar

StartChar: uniFECC
Encoding: 65228 65228 212
Width: 1019
VWidth: 3741
GlyphClass: 2
Flags: W
AnchorPoint: "Anchor-10" 470.738 1239.06 basechar 0
AnchorPoint: "Anchor-7" 459.112 -231.153 basechar 0
LayerCount: 2
Fore
SplineSet
655 305.572265625 m 5,0,1
 797.043414183 180.961914062 797.043414183 180.961914062 1013.73242188 180.961914062 c 2,2,-1
 1032.28515625 180.961914062 l 1,3,-1
 1032.28515625 1 l 1,4,-1
 939.689453125 1 l 2,5,6
 723 1 723 1 565.125 185.731445312 c 1,7,8
 357.28999114 0.2587890625 357.28999114 0.2587890625 122.096679688 0.2587890625 c 2,9,-1
 -13.05078125 0.2587890625 l 1,10,-1
 -13.05078125 179.961914062 l 1,11,-1
 13.5791015625 179.961914062 l 2,12,13
 365 180 365 180 492.078125 319.1796875 c 5,14,15
 440 478 440 478 175.420898438 497.96484375 c 5,16,-1
 175.319335938 613.874023438 l 5,17,18
 288 683 288 683 530 683.619140625 c 4,19,20
 678 684 678 684 767.1875 639.69140625 c 4,21,22
 842 602 842 602 835.87109375 545.641601562 c 4,23,24
 827 455 827 455 655 305.572265625 c 5,0,1
EndSplineSet
EndChar

StartChar: uniFEDA
Encoding: 65242 65242 226
Width: 2016
VWidth: 3705
GlyphClass: 2
Flags: W
AnchorPoint: "Anchor-10" 579.215 1632.87 basechar 0
AnchorPoint: "Anchor-7" 610.608 -244.552 basechar 0
LayerCount: 2
Fore
SplineSet
1646.16308594 221.909179688 m 1,0,1
 1459 1 1459 1 875.678710938 1 c 0,2,3
 486 1 486 1 307.033203125 99.5908203125 c 0,4,5
 108 209 108 209 106.384765625 456.854492188 c 0,6,7
 106 604 106 604 186.990234375 765.76171875 c 1,8,-1
 288.563476562 731.234375 l 1,9,10
 191 374 191 374 406.020507812 264.426757812 c 0,11,12
 555 188 555 188 774.018554688 180.97265625 c 0,13,14
 1290 166 1290 166 1533.9453125 319.944335938 c 0,15,16
 1572 344 1572 344 1578 401 c 128,-1,17
 1584 458 1584 458 1582.99951172 688.512207031 c 128,-1,18
 1582 919 1582 919 1565.00585938 1144.29980469 c 0,19,20
 1548 1370 1548 1370 1543.87304688 1408.42675781 c 5,21,-1
 1695.02050781 1501.45019531 l 6,22,23
 1731.86603209 1523.91830742 1731.86603209 1523.91830742 1731.89941406 1478.92480469 c 6,24,-1
 1732.58886719 549.653320312 l 2,25,26
 1732.9997812 190.19140625 1732.9997812 190.19140625 1973.01269531 190.19140625 c 2,27,-1
 2028.19726562 190.19140625 l 1,28,-1
 2028.19726562 0.12890625 l 1,29,-1
 1993.41894531 0.12890625 l 2,30,31
 1712 0 1712 0 1646.16308594 221.909179688 c 1,0,1
848.966796875 1196.08984375 m 0,32,33
 847.14453125 1150.58203125 847.14453125 1150.58203125 1004.56396484 1123.05273438 c 128,-1,34
 1161.98339844 1095.5234375 1161.98339844 1095.5234375 1162.99853516 942.706054688 c 128,-1,35
 1164.01367188 789.888671875 1164.01367188 789.888671875 1018.08007812 737.928710938 c 0,36,37
 957.23828125 716.169921875 957.23828125 716.169921875 862.77734375 719.596679688 c 128,-1,38
 768.405451073 723.019393167 768.405451073 723.019393167 669.856445312 754.34375 c 1,39,-1
 683.578125 894.89453125 l 1,40,41
 794.476195703 856.006634808 794.476195703 856.006634808 885.769347852 857.31435256 c 0,42,43
 1064.41577635 859.873351789 1064.41577635 859.873351789 1075.1953125 928.447265625 c 0,44,45
 1077.43457031 943.615234375 1077.43457031 943.615234375 1063.83007812 957.377929688 c 0,46,47
 1035.54408365 985.992878301 1035.54408365 985.992878301 939.595703125 1007.00195312 c 0,48,49
 765.928710938 1044.59570312 765.928710938 1044.59570312 770.80859375 1212.73046875 c 0,50,51
 776.073242188 1408.76367188 776.073242188 1408.76367188 1088.7578125 1435.15136719 c 0,52,53
 1098.88267734 1436 1098.88267734 1436 1104.06096757 1436 c 128,-1,54
 1109.23925781 1436 1109.23925781 1436 1111.69238281 1435.79882812 c 0,55,56
 1143.1194949 1433.20909397 1143.1194949 1433.20909397 1131.62695312 1400.31835938 c 2,57,-1
 1094.68066406 1294.578125 l 1,58,59
 850.8826937 1270.02293374 850.8826937 1270.02293374 848.966796875 1196.08984375 c 0,32,33
EndSplineSet
EndChar

StartChar: uniFEDB
Encoding: 65243 65243 227
Width: 1044
VWidth: 3745
GlyphClass: 2
Flags: W
AnchorPoint: "Anchor-10" 276.736 1613.92 basechar 0
AnchorPoint: "Anchor-7" 335.081 -261.885 basechar 0
LayerCount: 2
Fore
SplineSet
23.3369140625 950.484375 m 1,0,1
 41 1082 41 1082 86.4775390625 1198.06347656 c 1,2,-1
 949 1499.16181282 l 2,3,4
 989.560763811 1512.85175042 989.560763811 1512.85175042 983.385670128 1471 c 2,5,-1
 960.612304688 1316.65332031 l 1,6,-1
 180.337890625 1047.86328125 l 1,7,8
 704 632 704 632 708.224609375 413.499023438 c 0,9,10
 711 269 711 269 619.263671875 173.694335938 c 0,11,12
 449 0 449 0 96.552734375 0 c 2,13,-1
 -12.609375 0 l 1,14,-1
 -12.609375 179.999023438 l 5,15,-1
 96.5732421875 179.999023438 l 6,16,17
 374 180 374 180 514.095703125 297.864257812 c 4,18,19
 569 344 569 344 567.43359375 405.891601562 c 0,20,21
 564 497 564 497 23.3369140625 950.484375 c 1,0,1
EndSplineSet
EndChar

StartChar: uniFEDC
Encoding: 65244 65244 228
Width: 1211
VWidth: 3745
GlyphClass: 2
Flags: W
AnchorPoint: "Anchor-10" 254.919 1599.12 basechar 0
AnchorPoint: "Anchor-7" 404.945 -250.381 basechar 0
LayerCount: 2
Fore
SplineSet
180.337890625 1047.86328125 m 1,0,1
 473 795 473 795 759.3984375 496.854003906 c 0,2,3
 1062.74548478 180.265625 1062.74548478 180.265625 1203.55957031 180.265625 c 6,4,-1
 1225.49121094 180.265625 l 5,5,-1
 1225.49121094 0 l 1,6,-1
 1203.9765625 0 l 2,7,8
 966 0 966 0 706.791992188 315.80859375 c 1,9,10
 645 171 645 171 482.638671875 78.162109375 c 0,11,12
 346 0 346 0 95.486328125 0 c 2,13,-1
 -12.609375 0 l 1,14,-1
 -12.609375 179.999023438 l 5,15,-1
 95.5068359375 179.999023438 l 6,16,17
 370 180 370 180 513.030273438 306.399414062 c 4,18,19
 599 382 599 382 567.137695312 434.953125 c 0,20,21
 503 539 503 539 21.4775390625 952.451171875 c 1,22,23
 36 1071 36 1071 86.4775390625 1198.06347656 c 1,24,-1
 949 1499.16210938 l 2,25,26
 989.560860704 1512.8517863 989.560860704 1512.8517863 983.385742188 1471 c 2,27,-1
 960.612304688 1316.65332031 l 1,28,-1
 180.337890625 1047.86328125 l 1,0,1
EndSplineSet
EndChar

StartChar: uniFEDE
Encoding: 65246 65246 230
Width: 1449
VWidth: 3705
GlyphClass: 2
Flags: W
AnchorPoint: "Anchor-10" 581.374 1228.89 basechar 0
AnchorPoint: "Anchor-7" 542.521 -853.186 basechar 0
LayerCount: 2
Fore
SplineSet
1225.76660156 88.3427734375 m 1,0,1
 1227 -535 1227 -535 676.587890625 -535.586914062 c 0,2,3
 454 -536 454 -536 311 -445.897460938 c 0,4,5
 106 -316 106 -316 107.5390625 -27 c 0,6,7
 109 162 109 162 209.825195312 385.009765625 c 1,8,-1
 320.032226562 352.3203125 l 1,9,10
 262 161 262 161 261.076254931 21 c 0,11,12
 259 -358 259 -358 679.438476562 -355.000976562 c 0,13,14
 945 -353 945 -353 1045.31738281 -184.000976562 c 0,15,16
 1084 -118 1084 -118 1075.85490774 114 c 0,17,18
 1029 1376 1029 1376 1018.23632812 1422.83886719 c 5,19,-1
 1138 1486 l 6,20,21
 1194.69904434 1515.84160228 1194.69904434 1515.84160228 1195.85058594 1461.59667969 c 6,22,-1
 1219.19238281 362.049804688 l 2,23,24
 1223.00501124 180.76171875 1223.00501124 180.76171875 1430.6015625 180.76171875 c 2,25,-1
 1461.78125 180.76171875 l 1,26,-1
 1461.78125 0.109375 l 1,27,-1
 1443.36328125 0.109375 l 2,28,29
 1284 0 1284 0 1225.76660156 88.3427734375 c 1,0,1
EndSplineSet
EndChar

StartChar: uniFEDF
Encoding: 65247 65247 231
Width: 556
VWidth: 3705
GlyphClass: 2
Flags: W
AnchorPoint: "Anchor-10" 258.796 1612.56 basechar 0
AnchorPoint: "Anchor-7" 183.305 -251.229 basechar 0
LayerCount: 2
Fore
SplineSet
263.281783257 367 m 4,0,1
 266 415 266 415 265.431616225 485 c 4,2,3
 265 565 265 565 258.478515625 672.23046875 c 4,4,5
 222 1229 222 1229 202.827148438 1429.14941406 c 5,6,-1
 310.034179688 1480.72851562 l 6,7,8
 379.517457045 1513.77053195 379.517457045 1513.77053195 381.842773438 1440.09179688 c 6,9,-1
 410.239257812 540.3359375 l 6,10,11
 419 271 419 271 365.708007812 163.354492188 c 4,12,13
 285 0 285 0 10.892578125 0 c 6,14,-1
 -12.203125 0 l 5,15,-1
 -12.203125 179.999023438 l 5,16,-1
 16.552734375 179.999023438 l 6,17,18
 118 180 118 180 178 207.721359611 c 4,19,20
 257 244 257 244 263.281783257 367 c 4,0,1
EndSplineSet
EndChar

StartChar: uniFEE0
Encoding: 65248 65248 232
Width: 677
VWidth: 3705
GlyphClass: 2
Flags: W
AnchorPoint: "Anchor-10" 318.267 1598.21 basechar 0
AnchorPoint: "Anchor-7" 284.362 -247.795 basechar 0
LayerCount: 2
Fore
SplineSet
354.0078125 143.907226562 m 1,0,1
 243 0 243 0 67.2060546875 0 c 2,2,-1
 -12.466796875 0 l 1,3,-1
 -12.466796875 179.999023438 l 1,4,-1
 29.7373046875 179.999023438 l 2,5,6
 123 180 123 180 185 213.032174554 c 0,7,8
 273 260 273 260 288.839220833 370 c 0,9,10
 298 434 298 434 294.017803667 532 c 0,11,12
 270 1152 270 1152 258.544921875 1424.41601562 c 5,13,-1
 366.079101562 1472.35839844 l 6,14,15
 437.186523437 1503.89564371 437.186523437 1503.89564371 437.186523438 1432 c 6,16,-1
 437.186523438 610.708984375 l 2,17,18
 437 301 437 301 492.662109375 240.5859375 c 0,19,20
 548.000891971 179.999023438 548.000891971 179.999023438 652.537109375 179.999023438 c 2,21,-1
 690.873046875 179.999023438 l 1,22,-1
 690.873046875 0 l 1,23,-1
 642.051757812 0 l 2,24,25
 445 0 445 0 354.0078125 143.907226562 c 1,0,1
EndSplineSet
EndChar

StartChar: uniFEE2
Encoding: 65250 65250 234
Width: 1258
VWidth: 3782
GlyphClass: 2
Flags: W
AnchorPoint: "Anchor-10" 578.784 1171.23 basechar 0
AnchorPoint: "Anchor-7" 210.916 -827.977 basechar 0
LayerCount: 2
Fore
SplineSet
1070.47363281 92.041015625 m 1,0,1
 987 -193 987 -193 783.975585938 -193.045898438 c 0,2,3
 498 -193 498 -193 497.227539062 193.666992188 c 0,4,5
 497 280 497 280 499.407226562 309.524414062 c 1,6,7
 321 256 321 256 255.500976562 144.25390625 c 1,8,-1
 270.356445312 -479.451171875 l 6,9,10
 272 -546 272 -546 169.544921875 -648.950195312 c 4,11,12
 127.62550771 -691.379043381 127.62550771 -691.379043381 125.5 -629.165039062 c 6,13,-1
 112.159179688 -238.676757812 l 6,14,15
 110 -176 110 -176 109.885742188 -76.337890625 c 0,16,17
 110 13 110 13 117.723632812 90.7021484375 c 0,18,19
 133 244 133 244 248.178710938 360.98828125 c 0,20,21
 363 478 363 478 525.522460938 493.297851562 c 1,22,23
 547 594 547 594 570.303710938 639.526367188 c 0,24,25
 580.914299198 660.82794897 580.914299198 660.82794897 600.916015625 645.4765625 c 2,26,-1
 1107.52636719 256.651367188 l 2,27,28
 1207.00126732 179.999023438 1207.00126732 179.999023438 1257.79296875 179.999023438 c 2,29,-1
 1271.77441406 179.999023438 l 1,30,-1
 1271.77441406 0 l 1,31,-1
 1247.08691406 0 l 2,32,33
 1167 0 1167 0 1070.47363281 92.041015625 c 1,0,1
635.899414062 394.45703125 m 1,34,35
 629.208984375 310.513671875 629.208984375 310.513671875 632.67578125 163.111328125 c 0,36,37
 639.663085938 -8.662109375 639.663085938 -8.662109375 795.8828125 -9.755859375 c 0,38,39
 810.651367188 -9.7314453125 810.651367188 -9.7314453125 826.423828125 -8.291015625 c 0,40,41
 891.073242188 -2.322265625 891.073242188 -2.322265625 922.763671875 63.1689453125 c 0,42,43
 935.5234375 89.751953125 935.5234375 89.751953125 934.993652344 134.217773438 c 128,-1,44
 934.463867188 178.68359375 934.463867188 178.68359375 870.763671875 235.66015625 c 0,45,46
 793.775390625 310.771484375 793.775390625 310.771484375 635.899414062 394.45703125 c 1,34,35
EndSplineSet
EndChar

StartChar: uniFEE3
Encoding: 65251 65251 235
Width: 1023
VWidth: 3749
GlyphClass: 2
Flags: W
AnchorPoint: "Anchor-10" 543.686 1168.83 basechar 0
AnchorPoint: "Anchor-7" 529.424 -288.974 basechar 0
LayerCount: 2
Fore
SplineSet
295.989257812 179.768554688 m 1,0,1
 159 0 159 0 2.4541015625 0 c 2,2,-1
 -13.146484375 0 l 1,3,-1
 -13.146484375 179.999023438 l 1,4,-1
 11.01953125 179.999023438 l 2,5,6
 80 180 80 180 184 317 c 4,7,8
 329 508 329 508 406 588.279296875 c 4,9,10
 494 680 494 680 557.987304688 691.635742188 c 4,11,12
 700 717 700 717 790.948242188 598.036132812 c 4,13,14
 908 446 908 446 907.227539062 287.890625 c 0,15,16
 907 132 907 132 808.014648438 39.3388671875 c 0,17,18
 749 -17 749 -17 689.65625 -17.083984375 c 0,19,20
 548 -17 548 -17 295.989257812 179.768554688 c 1,0,1
396.130859375 330.145507812 m 5,21,22
 654 107 654 107 744.59375 202.744140625 c 0,23,24
 789 250 789 250 760.267927717 350 c 0,25,26
 736 435 736 435 652.348632812 494.12890625 c 4,27,28
 555 562 555 562 396.130859375 330.145507812 c 5,21,22
EndSplineSet
EndChar

StartChar: uniFEE4
Encoding: 65252 65252 236
Width: 1145
VWidth: 3749
GlyphClass: 2
Flags: W
AnchorPoint: "Anchor-10" 561.076 1150.23 basechar 0
AnchorPoint: "Anchor-7" 493.449 -300.66 basechar 0
LayerCount: 2
Fore
SplineSet
416.134765625 284.944335938 m 1,0,1
 583 140 583 140 678.0859375 139.565429688 c 0,2,3
 763 140 763 140 779.723632812 210.352539062 c 0,4,5
 799.605089748 295.594323444 799.605089748 295.594323444 735.3828125 383.169921875 c 0,6,7
 680 459 680 459 610.704101562 458.977539062 c 0,8,9
 536 459 536 459 416.134765625 284.944335938 c 1,0,1
882.565429688 100.67578125 m 1,10,11
 803 -42 803 -42 686.868164062 -41.6962890625 c 0,12,13
 537 -41 537 -41 306.024414062 139.534179688 c 1,14,15
 205 0 205 0 2.4541015625 0 c 2,16,-1
 -13.146484375 0 l 1,17,-1
 -13.146484375 179.999023438 l 1,18,-1
 31.01953125 179.999023438 l 2,19,20
 131 180 131 180 221 291 c 0,21,22
 375 479 375 479 441 548.827082645 c 0,23,24
 506 617 506 617 573.104492188 628.4765625 c 0,25,26
 693 650 693 650 772.264648438 569.344726562 c 0,27,28
 856.868534579 483.533061518 856.868534579 483.533061518 944.547851562 306.848632812 c 4,29,30
 1007 181 1007 181 1132.34765625 180.999023438 c 2,31,-1
 1158.77929688 180.999023438 l 1,32,-1
 1158.77929688 0 l 1,33,-1
 1143.44726562 0 l 2,34,35
 986 0 986 0 882.565429688 100.67578125 c 1,10,11
EndSplineSet
EndChar

StartChar: uniFEEA
Encoding: 65258 65258 242
Width: 1016
VWidth: 3733
GlyphClass: 2
Flags: W
AnchorPoint: "Anchor-10" 531.224 1276.82 basechar 0
AnchorPoint: "Anchor-7" 340.803 -220.268 basechar 0
LayerCount: 2
Fore
SplineSet
234.090820312 393.059570312 m 4,0,1
 266.279296875 325.650390625 266.279296875 325.650390625 512.857421875 330.236328125 c 6,2,-1
 655.029296875 332.8828125 l 5,3,-1
 588.43359375 633.127929688 l 5,4,5
 319.294921875 548.98046875 319.294921875 548.98046875 265.982421875 493.02734375 c 132,-1,6
 212.669921875 437.073242188 212.669921875 437.073242188 234.090820312 393.059570312 c 4,0,1
1010.32128906 0 m 2,7,8
 769 0 769 0 684.489257812 236.897460938 c 1,9,-1
 512.211914062 135.474609375 l 1,10,-1
 511.369140625 135.487304688 l 2,11,12
 416.785096225 137.124917689 416.785096225 137.124917689 314.946289062 155.552734375 c 128,-1,13
 213 174 213 174 178.864257812 187.251953125 c 0,14,15
 109 215 109 215 101.947265625 260.927734375 c 0,16,17
 81 402 81 402 106.29296875 487.627929688 c 4,18,19
 159 668 159 668 555.028320312 803.076171875 c 5,20,-1
 542.123046875 869.541015625 l 5,21,-1
 623.490234375 965.895507812 l 6,22,23
 670.235533334 1021.27905849 670.235533334 1021.27905849 687.108398438 939.86328125 c 6,24,-1
 796.974609375 409.731445312 l 6,25,26
 845 180 845 180 991.045898438 180 c 2,27,-1
 1029.39160156 180 l 1,28,-1
 1029.39160156 0 l 1,29,-1
 1010.32128906 0 l 2,7,8
EndSplineSet
EndChar

StartChar: uniFEEB
Encoding: 65259 65259 243
Width: 1234
VWidth: 3739
GlyphClass: 2
Flags: W
AnchorPoint: "Anchor-10" 526.316 1461.29 basechar 0
AnchorPoint: "Anchor-7" 573.812 -242.204 basechar 0
LayerCount: 2
Fore
SplineSet
644.173828125 288.377929688 m 5,0,1
 819 227 819 227 925.875976562 221.157226562 c 5,2,3
 1021 378 1021 378 974.174804688 472.286132812 c 4,4,5
 941 539 941 539 772.520507812 618.564453125 c 5,6,7
 779 428 779 428 644.173828125 288.377929688 c 5,0,1
502.42578125 142.095703125 m 5,8,9
 289.264871121 0.51171875 289.264871121 0.51171875 47.8837890625 0.51171875 c 6,10,-1
 -12.58984375 0.51171875 l 5,11,-1
 -12.58984375 180 l 5,12,-1
 59.1103515625 180 l 6,13,14
 252 180 252 180 347.5546875 215.177734375 c 5,15,16
 242 254 242 254 183.484149094 330.146342719 c 4,17,18
 127 404 127 404 150.268554688 513.397460938 c 4,19,20
 193 712 193 712 389.01171875 830.481445312 c 5,21,-1
 257.727539062 884.189453125 l 5,22,-1
 320.350585938 1056.64550781 l 5,23,-1
 701.23046875 876.831054688 l 5,24,25
 1184 647 1184 647 1117.86230469 347.336914062 c 4,26,27
 1093 234 1093 234 1032.71420233 153.445181017 c 4,28,29
 971 71 971 71 886.30859375 60.576171875 c 4,30,31
 806 50 806 50 502.42578125 142.095703125 c 5,8,9
505.2734375 336.993164062 m 5,32,33
 609 404 609 404 645.170898438 549.45703125 c 4,34,35
 677 676 677 676 563.578125 711.50390625 c 4,36,37
 427 754 427 754 329.875976562 600.59375 c 4,38,39
 299 552 299 552 290.076171875 523.8125 c 4,40,41
 270 458 270 458 319.830078125 419.421875 c 4,42,43
 391 366 391 366 505.2734375 336.993164062 c 5,32,33
EndSplineSet
EndChar

StartChar: uniFEEC
Encoding: 65260 65260 244
Width: 988
VWidth: 3768
GlyphClass: 2
Flags: W
AnchorPoint: "Anchor-7" 339.865 -725.584 basechar 0
AnchorPoint: "Anchor-10" 463.619 1371.17 basechar 0
LayerCount: 2
Fore
SplineSet
291.271484375 182.501953125 m 1,0,1
 592 192 592 192 622.217773438 348.270507812 c 4,2,3
 626 368 626 368 626.0546875 389.203125 c 4,4,5
 626 499 626 499 473.221679688 672.567382812 c 5,6,7
 333 453 333 453 291.271484375 182.501953125 c 1,0,1
586.017578125 -550.971679688 m 1,8,9
 217 -287 217 -287 171.772460938 0.109375 c 1,10,-1
 -12.2470703125 -0.001953125 l 1,11,-1
 -12.2470703125 180.685546875 l 1,12,-1
 164.1796875 180.375 l 1,13,14
 196 532 196 532 413.331054688 823.994140625 c 4,15,16
 472 903 472 903 530.876953125 858.517578125 c 4,17,18
 759 683 759 683 759.180664062 410.434570312 c 4,19,20
 759 249 759 249 632.439453125 121.495117188 c 0,21,22
 535 23 535 23 302.770507812 -0.92578125 c 1,23,24
 374 -181 374 -181 541.434570312 -308.951171875 c 1,25,26
 600 180 600 180 981.092773438 180 c 2,27,-1
 1001.81835938 180 l 1,28,-1
 1001.81835938 0 l 1,29,-1
 944.28515625 0 l 2,30,31
 696 0 696 0 695.977539062 -257.297851562 c 0,32,33
 696 -354 696 -354 718.635742188 -429.940429688 c 1,34,-1
 586.017578125 -550.971679688 l 1,8,9
EndSplineSet
EndChar

StartChar: uniFEEE
Encoding: 65262 65262 246
Width: 856
VWidth: 3773
GlyphClass: 2
Flags: W
AnchorPoint: "Anchor-10" 339.024 1255.41 basechar 0
AnchorPoint: "Anchor-7" 251.093 -735.899 basechar 0
LayerCount: 2
Fore
SplineSet
577.234375 1.3994140625 m 1,0,-1
 441.193359375 0.609375 l 2,1,2
 242 -1 242 -1 176.512695312 70.6064453125 c 0,3,4
 87 167 87 167 115.487304688 344.6640625 c 0,5,6
 142 509 142 509 225.919921875 605.1796875 c 0,7,8
 338 734 338 734 492.94921875 683.619140625 c 0,9,10
 608 646 608 646 674.97265625 500.303710938 c 0,11,12
 729 381 729 381 732.544921875 179.15234375 c 1,13,-1
 872.5390625 179.96875 l 1,14,-1
 872.5390625 0.30078125 l 1,15,-1
 723.0078125 1 l 17,16,17
 707 -97 707 -97 668.669921875 -176.182617188 c 0,18,19
 587.016498791 -346.875059554 587.016498791 -346.875059554 397.126953125 -450.125976562 c 0,20,21
 267 -521 267 -521 187.512695312 -539.489257812 c 0,22,23
 137 -551 137 -551 119.215820312 -530.079101562 c 0,24,25
 82 -486 82 -486 68.50390625 -459.551757812 c 0,26,27
 44 -410 44 -410 75.4892578125 -401.139648438 c 0,28,29
 525 -284 525 -284 577.234375 1.3994140625 c 1,0,-1
583.814453125 180.555664062 m 1,30,31
 569 369 569 369 515.333007812 448 c 0,32,33
 472 511 472 511 400.48046875 510.741210938 c 0,34,35
 310 511 310 511 273.943359375 402.198242188 c 0,36,37
 217 227 217 227 318.215820312 190.265625 c 0,38,39
 363 174 363 174 583.814453125 180.555664062 c 1,30,31
EndSplineSet
EndChar

StartChar: uniFEF0
Encoding: 65264 65264 248
Width: 1466
VWidth: 3745
GlyphClass: 2
Flags: W
AnchorPoint: "Anchor-10" 689.539 784.408 basechar 0
AnchorPoint: "Anchor-7" 479.513 -810.205 basechar 0
LayerCount: 2
Fore
SplineSet
325.611328125 329.465820312 m 1,0,1
 217 14 217 14 287.249023438 -151.213867188 c 0,2,3
 372 -351 372 -351 692.390625 -351.501953125 c 0,4,5
 993 -352 993 -352 1130.73242188 -215.44140625 c 28,6,7
 1214 -133 1214 -133 1112.39355469 -61.5849609375 c 4,8,9
 1042 -12 1042 -12 950.193359375 -2.484375 c 4,10,11
 857 7 857 7 845.94921875 12.671875 c 4,12,13
 835 18 835 18 838.204101562 44.79296875 c 4,14,15
 856.026992305 180.205078125 856.026992305 180.205078125 927.348632812 180.205078125 c 6,16,-1
 1478.05078125 180.205078125 l 5,17,-1
 1478.05078125 0.69921875 l 5,18,-1
 1255.70703125 0.9951171875 l 5,19,20
 1349 -67 1349 -67 1307.06738281 -190.3359375 c 4,21,22
 1279 -274 1279 -274 1220 -335.475585938 c 4,23,24
 1032 -532 1032 -532 692.004882812 -532.48046875 c 0,25,26
 368 -533 368 -533 225.939453125 -385.124023438 c 0,27,28
 73 -225 73 -225 116.545898438 53.9453125 c 0,29,30
 143 223 143 223 215.34375 359.845703125 c 1,31,-1
 325.611328125 329.465820312 l 1,0,1
EndSplineSet
EndChar

StartChar: uniFEFB
Encoding: 65275 65275 259
Width: 1217
VWidth: 3705
GlyphClass: 3
Flags: W
AnchorPoint: "Anchor-9" 951.165 1620.52 baselig 0
AnchorPoint: "Anchor-6" 920.383 -179.223 baselig 0
AnchorPoint: "Anchor-6" 283.478 -263.959 baselig 1
AnchorPoint: "Anchor-9" 163.317 1581.48 baselig 1
LayerCount: 2
Fore
SplineSet
227.23828125 -23.8408203125 m 1,0,1
 191 53 191 53 182.485351562 120.66015625 c 0,2,3
 181 132 181 132 186.702148438 132.490234375 c 0,4,5
 488 152 488 152 625.094726562 198.84765625 c 1,6,-1
 90.3798828125 1243.79101562 l 5,7,-1
 232.311523438 1347.67382812 l 5,8,-1
 744.359375 254.645507812 l 1,9,10
 900 339 900 339 917.798828125 489.8671875 c 0,11,12
 942 695 942 695 865.234375 1429.09863281 c 5,13,-1
 979.059570312 1484.37988281 l 6,14,15
 1044.75621728 1515.88309997 1044.75621728 1515.88309997 1046.89550781 1438.08007812 c 6,16,-1
 1068.72851562 644.043945312 l 2,17,18
 1078 321 1078 321 898.654785156 149.124023438 c 0,19,20
 720.011499121 -21.9889855964 720.011499121 -21.9889855964 229.836914062 -23.8310546875 c 2,21,-1
 227.23828125 -23.8408203125 l 1,0,1
EndSplineSet
LCarets2: 1 0
Ligature2: "'rlig' Required Ligatures in Arabic lookup 16 subtable" uniFEDF uniFE8E
EndChar

StartChar: uniFEFC
Encoding: 65276 65276 260
Width: 1321
VWidth: 3705
GlyphClass: 3
Flags: W
AnchorPoint: "Anchor-9" 985.282 1646.62 baselig 0
AnchorPoint: "Anchor-6" 951.695 -210.265 baselig 0
AnchorPoint: "Anchor-6" 278.932 -246.661 baselig 1
AnchorPoint: "Anchor-9" 167.839 1594.33 baselig 1
LayerCount: 2
Fore
SplineSet
1296.6796875 0 m 2,0,1
 1032 0 1032 0 971.197265625 265.041992188 c 1,2,3
 782 -25 782 -25 227.275390625 -25.8388671875 c 1,4,5
 193 49 193 49 183.658203125 107.208984375 c 0,6,7
 180 130 180 130 186.59375 130.485351562 c 0,8,9
 487 149 487 149 622.092773438 196.850585938 c 1,10,-1
 90.3798828125 1243.79101562 l 5,11,-1
 232.311523438 1347.67382812 l 5,12,-1
 741.35546875 252.651367188 l 1,13,14
 904 347 904 347 917.793945312 519.810546875 c 0,15,16
 936 735 936 735 865.23046875 1429.09472656 c 5,17,-1
 987.059570312 1491.18261719 l 6,18,19
 1044.60948007 1520.7990301 1044.60948007 1520.7990301 1047.2109375 1431.08496094 c 6,20,-1
 1072.99316406 541.95703125 l 2,21,22
 1083.0135908 180.509765625 1083.0135908 180.509765625 1297.01171875 180.509765625 c 2,23,-1
 1334.66210938 180.509765625 l 1,24,-1
 1334.66210938 0 l 1,25,-1
 1296.6796875 0 l 2,0,1
EndSplineSet
LCarets2: 1 0
Ligature2: "'rlig' Required Ligatures in Arabic lookup 16 subtable" uniFEE0 uniFE8E
EndChar

StartChar: arabic_dot
Encoding: 65536 -1 261
Width: 233
VWidth: 3243
GlyphClass: 2
Flags: W
LayerCount: 2
Fore
SplineSet
128.224922417 262.752535769 m 2,0,-1
 251.634773213 139.343659963 l 6,1,2
 260.495457557 129.930276127 260.495457557 129.930276127 249.018858176 117.783586824 c 6,3,-1
 130.684738366 -0.551511981399 l 2,4,5
 116.098369592 -14.4169133456 116.098369592 -14.4169133456 101.857950593 -0.177205656644 c 2,6,-1
 -14.3186485966 115.99939352 l 2,7,8
 -27.5535571732 129.97904538 -27.5535571732 129.97904538 -13.7353475372 144.327071589 c 2,9,-1
 104.917660803 262.980079931 l 2,10,11
 116.866515843 274.112269495 116.866515843 274.112269495 128.224922417 262.752535769 c 2,0,-1
EndSplineSet
EndChar

StartChar: arabic_2dots
Encoding: 65537 -1 262
Width: 612
VWidth: 3243
GlyphClass: 2
Flags: W
LayerCount: 2
Fore
SplineSet
469.197265625 1.3671875 m 2,0,1
 455.959960938 -12.1826171875 455.959960938 -12.1826171875 442.42578125 1.3515625 c 2,2,-1
 331.111328125 112.66796875 l 2,3,4
 317.782226562 126.221679688 317.782226562 126.221679688 331.614257812 140.053710938 c 2,5,-1
 444.680664062 253.120117188 l 2,6,7
 456 264 456 264 466.862304688 253.186523438 c 2,8,-1
 585.596679688 134.451171875 l 2,9,10
 594.561576972 126.158709131 594.561576972 126.158709131 582.696289062 114.8671875 c 2,11,-1
 469.197265625 1.3671875 l 2,0,1
165.53515625 253.181640625 m 2,12,-1
 283.888671875 134.828125 l 2,13,14
 291.908237828 125.410373439 291.908237828 125.410373439 281.313476562 114.815429688 c 2,15,-1
 167.919921875 1.419921875 l 2,16,17
 154.227664605 -11.7805130488 154.227664605 -11.7805130488 141.177734375 1.26953125 c 2,18,-1
 29.455078125 112.993164062 l 2,19,20
 16.116752009 125.887137465 16.116752009 125.887137465 30.283203125 140.053710938 c 2,21,-1
 143.349609375 253.12109375 l 2,22,23
 154 264 154 264 165.53515625 253.181640625 c 2,12,-1
EndSplineSet
EndChar

StartChar: arabic_3dots
Encoding: 65538 -1 263
Width: 590
VWidth: 3243
GlyphClass: 2
Flags: W
LayerCount: 2
Fore
SplineSet
300.868164062 444.268554688 m 6,0,-1
 412 333.13671875 l 6,1,2
 418.236816406 326.899902344 418.236816406 326.899902344 412.788085938 321.451171875 c 6,3,-1
 303.4921875 212.153320312 l 6,4,5
 295.642578125 204.3046875 295.642578125 204.3046875 287.793945312 212.153320312 c 6,6,-1
 180.5390625 319.41015625 l 6,7,8
 173.03125 326.881835938 173.03125 326.881835938 181.061523438 334.912109375 c 6,9,-1
 290.357421875 444.208984375 l 6,10,11
 295.64453125 449.495117188 295.64453125 449.495117188 300.868164062 444.268554688 c 6,0,-1
446.813476562 217.922851562 m 6,12,-1
 559 105.736328126 l 6,13,14
 564.235061384 100.501266742 564.235061384 100.501266742 558.786132812 95.0517578125 c 6,15,-1
 448.759765625 -14.986328125 l 6,16,17
 441.778536933 -22.2297815294 441.778536933 -22.2297815294 433.793945312 -14.2451171875 c 6,18,-1
 326.5703125 92.9794921875 l 6,19,20
 319.26655782 100.71759038 319.26655782 100.71759038 327.061523438 108.512695312 c 6,21,-1
 436.342773438 217.795898438 l 6,22,23
 442 223 442 223 446.813476562 217.922851562 c 6,12,-1
266.788085938 95.052734375 m 6,24,-1
 157.844726562 -13.892578125 l 6,25,26
 149.779053671 -22.2283451293 149.779053671 -22.2283451293 141.795898438 -14.2451171875 c 6,27,-1
 34.572265625 92.9794921875 l 6,28,29
 27.2675755388 100.716585259 27.2675755388 100.716585259 35.0634765625 108.512695312 c 6,30,-1
 144.328125 217.780273438 l 6,31,32
 150.578593555 222.159575585 150.578593555 222.159575585 154.787109375 217.952148438 c 6,33,-1
 266 106.768026711 l 6,34,35
 272.252448856 100.517195258 272.252448856 100.517195258 266.788085938 95.052734375 c 6,24,-1
EndSplineSet
EndChar

StartChar: arabic_3dots_a
Encoding: 65539 -1 264
Width: 636
VWidth: 3243
GlyphClass: 2
Flags: W
LayerCount: 2
Fore
SplineSet
323.868164062 -203.986328125 m 2,0,1
 318.64453125 -209.212890625 318.64453125 -209.212890625 313.357421875 -203.926757812 c 2,2,-1
 204.061523438 -94.6298828125 l 2,3,4
 196.03125 -86.599609375 196.03125 -86.599609375 203.5390625 -79.1279296875 c 2,5,-1
 310.793945312 28.12890625 l 2,6,7
 318.642578125 35.9775390625 318.642578125 35.9775390625 326.4921875 28.12890625 c 2,8,-1
 435.788085938 -81.1689453125 l 2,9,10
 441.236328125 -86.6171875 441.236328125 -86.6171875 435 -92.8544921875 c 2,11,-1
 323.868164062 -203.986328125 l 2,0,1
469.813476562 22.359375 m 2,12,13
 465 17.2822265625 465 17.2822265625 459.342773438 22.486328125 c 2,14,-1
 350.061523438 131.76953125 l 2,15,16
 342.266601562 139.564453125 342.266601562 139.564453125 349.5703125 147.302734375 c 2,17,-1
 456.793945312 254.52734375 l 2,18,19
 464.778320312 262.51171875 464.778320312 262.51171875 471.759765625 255.268554688 c 2,20,-1
 581.786132812 145.23046875 l 2,21,22
 587.235351562 139.78125 587.235351562 139.78125 582 134.545898438 c 2,23,-1
 469.813476562 22.359375 l 2,12,13
289.788085938 145.229492188 m 2,24,25
 295.252929688 139.764648438 295.252929688 139.764648438 289 133.514648438 c 2,26,-1
 177.787109375 22.330078125 l 2,27,28
 173.578125 18.123046875 173.578125 18.123046875 167.328125 22.501953125 c 2,29,-1
 58.0634765625 131.76953125 l 2,30,31
 50.267578125 139.565429688 50.267578125 139.565429688 57.572265625 147.302734375 c 2,32,-1
 164.795898438 254.52734375 l 2,33,34
 172.779296875 262.510742188 172.779296875 262.510742188 180.844726562 254.174804688 c 2,35,-1
 289.788085938 145.229492188 l 2,24,25
EndSplineSet
EndChar

StartChar: uni066E.fina
Encoding: 65540 -1 265
Width: 1972
VWidth: 3745
GlyphClass: 2
Flags: W
AnchorPoint: "Anchor-10" 1049.91 1792.78 basechar 0
AnchorPoint: "Anchor-7" 980.749 -375.569 basechar 0
LayerCount: 2
Fore
SplineSet
1959.09960938 0 m 2,0,1
 1673 0 1673 0 1618.88574219 225.639648438 c 1,2,3
 1450 2 1450 2 825.678710938 2 c 0,4,5
 477 2 477 2 305.037109375 98.587890625 c 0,6,7
 103 211 103 211 104.250976562 457.86328125 c 0,8,9
 105 607 105 607 184.85546875 766.762695312 c 1,10,-1
 286.431640625 732.233398438 l 1,11,12
 217 479 217 479 294.80859375 362.3515625 c 0,13,14
 409 193 409 193 754.010742188 184.106445312 c 0,15,16
 845 182 845 182 917.204101562 182 c 0,17,18
 969 182 969 182 1048.63964844 187.5703125 c 0,19,20
 1128 193 1128 193 1194.94433594 204.255859375 c 0,21,22
 1542.90764291 261.984677506 1542.90764291 261.984677506 1596.43261719 501.4453125 c 2,23,-1
 1613.41796875 577.434570312 l 1,24,-1
 1729.76757812 564.424804688 l 5,25,-1
 1728.31738281 528.846679688 l 6,26,27
 1713.9999598 180.999023438 1713.9999598 180.999023438 1951.35351562 180.999023438 c 2,28,-1
 1984.73828125 180.999023438 l 1,29,-1
 1984.73828125 0 l 1,30,-1
 1959.09960938 0 l 2,0,1
EndSplineSet
EndChar

StartChar: uni06A1.fina
Encoding: 65543 -1 268
Width: 1953
VWidth: 3740
GlyphClass: 2
Flags: W
AnchorPoint: "Anchor-10" 756.262 1972.83 basechar 0
AnchorPoint: "Anchor-7" 943.447 -460.558 basechar 0
LayerCount: 2
Fore
SplineSet
1613.11425781 566.622070312 m 0,0,1
 1548.84375 663.25390625 1548.84375 663.25390625 1478.84375 662.948242188 c 0,2,3
 1392.84375 663.25390625 1392.84375 663.25390625 1331.84765625 545.25390625 c 0,4,5
 1312.84375 508.25390625 1312.84375 508.25390625 1313.12011719 473.25390625 c 0,6,7
 1312.84375 414.25390625 1312.84375 414.25390625 1369.79003906 358.662109375 c 0,8,9
 1455.84375 274.25390625 1455.84375 274.25390625 1489.84375 275.99609375 c 0,10,11
 1522.84375 277.25390625 1522.84375 277.25390625 1587.43457031 357.25390625 c 0,12,13
 1643.84375 426.25390625 1643.84375 426.25390625 1643.82128906 482.42578125 c 0,14,15
 1643.84375 521.25390625 1643.84375 521.25390625 1613.11425781 566.622070312 c 0,0,1
1479.5859375 118.1484375 m 1,16,17
 1269 2 1269 2 850.6171875 2 c 0,18,19
 488 2 488 2 307.034179688 100.58984375 c 0,20,21
 105 212 105 212 104.250976562 457.857421875 c 0,22,23
 104 605 104 605 184.854492188 766.762695312 c 1,24,-1
 286.426757812 732.235351562 l 1,25,26
 217 475 217 475 294.809570312 362.350585938 c 0,27,28
 423 178 423 178 898.76171875 177.979492188 c 4,29,30
 1095 178 1095 178 1308.13378906 224.9765625 c 1,31,32
 1257 264 1257 264 1207 353 c 0,33,34
 1116 516 1116 516 1241.98242188 710.364257812 c 0,35,36
 1339 859 1339 859 1481.3125 859.458007812 c 0,37,38
 1624 859 1624 859 1728.18457031 706.915039062 c 0,39,40
 1794 610 1794 610 1794.10546875 511.21484375 c 0,41,42
 1794 462 1794 462 1778.27734375 413.373046875 c 0,43,44
 1746 314 1746 314 1631.99316406 216.904296875 c 1,45,46
 1773.00383525 180.999023438 1773.00383525 180.999023438 1944.953125 180.999023438 c 2,47,-1
 1965.49316406 180.999023438 l 1,48,-1
 1965.49316406 0 l 1,49,-1
 1929.36328125 0 l 2,50,51
 1647 0 1647 0 1479.5859375 118.1484375 c 1,16,17
EndSplineSet
EndChar

StartChar: uni06A1.init
Encoding: 65544 -1 269
Width: 841
VWidth: 3773
GlyphClass: 2
Flags: W
AnchorPoint: "Anchor-10" 487.044 2032.37 basechar 0
AnchorPoint: "Anchor-7" 404.877 -373.909 basechar 0
LayerCount: 2
Fore
SplineSet
407.944335938 863.416015625 m 4,0,1
 292 863 292 863 258.091796875 724.078125 c 4,2,3
 228.7264916 601.861676218 228.7264916 601.861676218 325.328125 576.37890625 c 4,4,5
 395 558 395 558 491.294921875 572.661132812 c 4,6,7
 552 582 552 582 585.462890625 597.76953125 c 5,8,9
 575 737 575 737 528.12109375 798.87890625 c 4,10,11
 480 863 480 863 407.944335938 863.416015625 c 4,0,1
159.006835938 179.999023438 m 2,12,13
 589.300156371 179.999023438 589.300156371 179.999023438 586.27734375 397.305664062 c 2,14,-1
 586.189453125 403.624023438 l 5,15,16
 377 359 377 359 248.365234375 412.502929688 c 4,17,18
 120 466 120 466 120.327148438 617.041015625 c 4,19,20
 121 730 121 730 155.200195312 821 c 4,21,22
 243 1052 243 1052 415.864257812 1051.99316406 c 4,23,24
 532 1052 532 1052 601.16015625 965.801757812 c 4,25,26
 726 811 726 811 731.543945312 463.743164062 c 4,27,28
 732 434 732 434 730.421875 402.600585938 c 0,29,30
 715 0 715 0 183.461914062 0 c 2,31,-1
 -12.39453125 0 l 1,32,-1
 -12.39453125 179.999023438 l 1,33,-1
 159.006835938 179.999023438 l 2,12,13
EndSplineSet
EndChar

StartChar: uni06A1.medi
Encoding: 65545 -1 270
Width: 1007
VWidth: 3740
GlyphClass: 2
Flags: W
AnchorPoint: "Anchor-10" 485.076 1478.72 basechar 0
AnchorPoint: "Anchor-7" 458.729 -209.104 basechar 0
LayerCount: 2
Fore
SplineSet
529.779296875 118.205078125 m 1,0,1
 353 0 353 0 27.548828125 0 c 2,2,-1
 -12.1591796875 0 l 1,3,-1
 -12.1591796875 179.999023438 l 1,4,-1
 27.501953125 179.999023438 l 2,5,6
 195 180 195 180 359.62890625 222.83984375 c 1,7,8
 219 331 219 331 219.399414062 490.524414062 c 0,9,10
 220 598 220 598 288.584960938 701.963867188 c 0,11,12
 393 857 393 857 533.71875 857.45703125 c 0,13,14
 675 857 675 857 779.516601562 704.924804688 c 0,15,16
 846 608 846 608 845.4453125 509.231445312 c 0,17,18
 846 338 846 338 683.403320312 214.955078125 c 1,19,20
 836.004263192 179.999023438 836.004263192 179.999023438 977.966796875 179.999023438 c 2,21,-1
 1019.83984375 179.999023438 l 1,22,-1
 1019.83984375 0 l 1,23,-1
 983.709960938 0 l 2,24,25
 719 0 719 0 529.779296875 118.205078125 c 1,0,1
666.270507812 565.368164062 m 4,26,27
 602 662 602 662 532 661.69397133 c 4,28,29
 446 662 446 662 385.004066476 544 c 4,30,31
 366 507 366 507 366.276696048 472 c 4,32,33
 366 413 366 413 422.946289062 357.408203125 c 4,34,35
 509 273 509 273 543 274.74214661 c 4,36,37
 576 276 576 276 640.590820312 356 c 4,38,39
 697 425 697 425 696.977539062 481.171875 c 4,40,41
 697 520 697 520 666.270507812 565.368164062 c 4,26,27
EndSplineSet
EndChar

StartChar: uni066F.fina
Encoding: 65546 -1 271
Width: 1443
VWidth: 3773
GlyphClass: 2
Flags: W
AnchorPoint: "Anchor-10" 470.114 754.358 basechar 0
AnchorPoint: "Anchor-7" 391.375 -884 basechar 0
LayerCount: 2
Fore
SplineSet
1303.3515625 179.395507812 m 5,0,1
 1456.30078125 180.498046875 l 1,2,-1
 1456.30078125 0.0341796875 l 1,3,-1
 1297.35351562 0.0341796875 l 1,4,5
 1256 -542 1256 -542 679.641601562 -539.853515625 c 0,6,7
 466 -539 466 -539 313 -447 c 0,8,9
 109 -323 109 -323 109.001953125 -40.263671875 c 0,10,11
 109 160 109 160 209.791992188 383.940429688 c 1,12,-1
 320.057617188 351.401367188 l 1,13,14
 263 164 263 164 262.880859375 12.18359375 c 0,15,16
 263 -360 263 -360 687.813476562 -360.276367188 c 0,17,18
 1005 -360 1005 -360 1123.14648438 -160.129882812 c 0,19,20
 1155 -106 1155 -106 1159.04101562 1.642578125 c 1,21,-1
 1023 0.8525390625 l 2,22,23
 824 -0 824 -0 758.319335938 70.849609375 c 0,24,25
 669 167 669 167 697.293945312 344.907226562 c 0,26,27
 724 509 724 509 807.7265625 605.422851562 c 0,28,29
 920 734 920 734 1074.75585938 683.862304688 c 0,30,31
 1177 650 1177 650 1245.77929688 500.546875 c 4,32,33
 1300 381 1300 381 1303.3515625 179.395507812 c 5,0,1
1165.62109375 180.798828125 m 1,34,35
 1150.80664062 369.243164062 1150.80664062 369.243164062 1097.13964844 448.243164062 c 0,36,37
 1053.80664062 511.243164062 1053.80664062 511.243164062 982.287109375 510.984375 c 0,38,39
 891.806640625 511.243164062 891.806640625 511.243164062 855.75 402.44140625 c 0,40,41
 798.806640625 227.243164062 798.806640625 227.243164062 900.022460938 190.508789062 c 0,42,43
 944.806640625 174.243164062 944.806640625 174.243164062 1165.62109375 180.798828125 c 1,34,35
EndSplineSet
EndChar

StartChar: arabic_gaf_bar
Encoding: 65550 -1 274
Width: 788
VWidth: 3131
GlyphClass: 2
Flags: W
LayerCount: 2
Fore
SplineSet
772.499369516 2071 m 6,0,-1
 755.013671875 1969.16601562 l 1,1,-1
 40.84375 1725.89257812 l 1,2,-1
 72.1240234375 1853.734375 l 1,3,-1
 756 2090.34126938 l 2,4,5
 777.072265625 2097.63183594 777.072265625 2097.63183594 772.499369516 2071 c 6,0,-1
EndSplineSet
EndChar

StartChar: guillemotleft
Encoding: 171 171 284
Width: 1316
VWidth: 3378
Flags: W
LayerCount: 2
Fore
SplineSet
488.756835938 2.0810546875 m 5,0,1
 154 464 154 464 154.20703125 505.755859375 c 4,2,3
 154 548 154 548 488.721679688 1009.74511719 c 5,4,-1
 676.290039062 1009.74511719 l 5,5,-1
 647.606445312 968.389648438 l 6,6,7
 363 558 363 558 363.396484375 505.1171875 c 4,8,9
 363.000563229 452.075456061 363.000563229 452.075456061 647.548828125 43.4794921875 c 6,10,-1
 676.37890625 2.0810546875 l 5,11,-1
 488.756835938 2.0810546875 l 5,0,1
969.298828125 2.080078125 m 5,12,13
 636 463 636 463 635.784179688 505.505859375 c 4,14,15
 636 547 636 547 969.262695312 1009.74511719 c 5,16,-1
 1156.828125 1009.74511719 l 5,17,-1
 1128.14160156 968.390625 l 6,18,19
 844 559 844 559 843.872070312 505.326171875 c 4,20,21
 844.0011674 451.51338142 844.0011674 451.51338142 1127.65136719 44.109375 c 6,22,-1
 1156.91308594 2.0810546875 l 5,23,-1
 969.298828125 2.080078125 l 5,12,13
EndSplineSet
EndChar

StartChar: guillemotright
Encoding: 187 187 285
Width: 1316
VWidth: 3378
Flags: W
LayerCount: 2
Fore
SplineSet
827.36328125 2.0810546875 m 5,0,1
 639.741210938 2.0810546875 l 5,2,-1
 668.571289062 43.4794921875 l 6,3,4
 953.119140625 452.075195312 953.119140625 452.075195312 952.723632812 505.1171875 c 4,5,6
 953.120117188 558 953.120117188 558 668.513671875 968.389648438 c 6,7,-1
 639.830078125 1009.74511719 l 5,8,-1
 827.3984375 1009.74511719 l 5,9,10
 1162.12011719 548 1162.12011719 548 1161.91308594 505.755859375 c 4,11,12
 1162.12011719 464 1162.12011719 464 827.36328125 2.0810546875 c 5,0,1
346.821289062 2.080078125 m 5,13,-1
 159.20703125 2.0810546875 l 5,14,-1
 188.46875 44.109375 l 6,15,16
 472.119140625 451.513671875 472.119140625 451.513671875 472.248046875 505.326171875 c 4,17,18
 472.120117188 559 472.120117188 559 187.978515625 968.390625 c 6,19,-1
 159.291992188 1009.74511719 l 5,20,-1
 346.857421875 1009.74511719 l 5,21,22
 680.120117188 547 680.120117188 547 680.3359375 505.505859375 c 4,23,24
 680.120117188 463 680.120117188 463 346.821289062 2.080078125 c 5,13,-1
EndSplineSet
EndChar

StartChar: exclam
Encoding: 33 33 294
Width: 676
VWidth: -1
Flags: W
LayerCount: 2
Fore
SplineSet
200 158.837890625 m 128,-1,1
 200 215.537109375 200 215.537109375 240.5 256.037109375 c 128,-1,2
 281 296.537109375 281 296.537109375 337.700195312 296.537109375 c 128,-1,3
 394.400390625 296.537109375 394.400390625 296.537109375 435.912109375 257.049804688 c 0,4,5
 475.400390625 215.537109375 475.400390625 215.537109375 475.400390625 158.837890625 c 128,-1,6
 475.400390625 102.137695312 475.400390625 102.137695312 434.900390625 61.6376953125 c 128,-1,7
 394.400390625 21.1376953125 394.400390625 21.1376953125 337.700195312 21.1376953125 c 128,-1,8
 281 21.1376953125 281 21.1376953125 240.5 61.6376953125 c 128,-1,0
 200 102.137695312 200 102.137695312 200 158.837890625 c 128,-1,1
345.767578125 1444.90722656 m 5,9,-1
 358.110351562 1444.54785156 l 6,10,11
 454.067579243 1441.99820437 454.067579243 1441.99820437 444.993164062 1298.71875 c 6,12,-1
 396.88671875 539.147460938 l 2,13,14
 395 516 395 516 341.177734375 515.6640625 c 0,15,16
 278.847572743 516.000823543 278.847572743 516.000823543 277.04296875 540.154296875 c 2,17,-1
 220.389648438 1298.42285156 l 6,18,19
 220 1310 220 1310 219.446289062 1321.57421875 c 4,20,21
 218.001087108 1444.90722656 218.001087108 1444.90722656 317.345703125 1444.90722656 c 6,22,-1
 345.767578125 1444.90722656 l 5,9,-1
EndSplineSet
EndChar

StartChar: period
Encoding: 46 46 295
Width: 676
VWidth: 3384
Flags: W
LayerCount: 2
Fore
SplineSet
200 158.837890625 m 132,-1,1
 200 215.537109375 200 215.537109375 240.5 256.037109375 c 132,-1,2
 281 296.537109375 281 296.537109375 337.700195312 296.537109375 c 132,-1,3
 394.400390625 296.537109375 394.400390625 296.537109375 435.912109375 257.049804688 c 4,4,5
 475.400390625 215.537109375 475.400390625 215.537109375 475.400390625 158.837890625 c 132,-1,6
 475.400390625 102.137695312 475.400390625 102.137695312 434.900390625 61.6376953125 c 132,-1,7
 394.400390625 21.1376953125 394.400390625 21.1376953125 337.700195312 21.1376953125 c 132,-1,8
 281 21.1376953125 281 21.1376953125 240.5 61.6376953125 c 132,-1,0
 200 102.137695312 200 102.137695312 200 158.837890625 c 132,-1,1
EndSplineSet
EndChar

StartChar: colon
Encoding: 58 58 296
Width: 676
VWidth: 3384
Flags: W
LayerCount: 2
Fore
SplineSet
200 878.837890625 m 132,-1,1
 200 935.537109375 200 935.537109375 240.5 976.037109375 c 132,-1,2
 281 1016.53710938 281 1016.53710938 337.700195312 1016.53710938 c 132,-1,3
 394.400390625 1016.53710938 394.400390625 1016.53710938 435.912109375 977.049804688 c 4,4,5
 475.400390625 935.537109375 475.400390625 935.537109375 475.400390625 878.837890625 c 132,-1,6
 475.400390625 822.137695312 475.400390625 822.137695312 434.900390625 781.637695312 c 132,-1,7
 394.400390625 741.137695312 394.400390625 741.137695312 337.700195312 741.137695312 c 132,-1,8
 281 741.137695312 281 741.137695312 240.5 781.637695312 c 132,-1,0
 200 822.137695312 200 822.137695312 200 878.837890625 c 132,-1,1
200 158.837890625 m 128,-1,10
 200 215.537109375 200 215.537109375 240.5 256.037109375 c 128,-1,11
 281 296.537109375 281 296.537109375 337.700195312 296.537109375 c 128,-1,12
 394.400390625 296.537109375 394.400390625 296.537109375 435.912109375 257.049804688 c 0,13,14
 475.400390625 215.537109375 475.400390625 215.537109375 475.400390625 158.837890625 c 128,-1,15
 475.400390625 102.137695312 475.400390625 102.137695312 434.900390625 61.6376953125 c 128,-1,16
 394.400390625 21.1376953125 394.400390625 21.1376953125 337.700195312 21.1376953125 c 128,-1,17
 281 21.1376953125 281 21.1376953125 240.5 61.6376953125 c 128,-1,9
 200 102.137695312 200 102.137695312 200 158.837890625 c 128,-1,10
EndSplineSet
EndChar

StartChar: uniFDFC
Encoding: 65020 65020 297
Width: 2787
VWidth: 3744
Flags: W
LayerCount: 2
Fore
SplineSet
2570.38964844 701.942382812 m 4,0,1
 2578 693 2578 693 2596.14111328 661.919433594 c 4,2,3
 2614 631 2614 631 2632.97558594 580.271484375 c 4,4,5
 2675 469 2675 469 2674.38834972 357 c 4,6,7
 2674 169 2674 169 2561.48730469 1.3232421875 c 4,8,9
 2440 -179 2440 -179 2118.02539062 -300.819335938 c 4,10,11
 2107 -305 2107 -305 2097.50976562 -292.598632812 c 4,12,13
 2067 -252 2067 -252 2030.29101563 -162.067871094 c 4,14,15
 2025 -149 2025 -149 2043.6328125 -143.447265625 c 4,16,17
 2267 -79 2267 -79 2390 39.54296875 c 4,18,19
 2489 135 2489 135 2516.63867188 243.708984375 c 4,20,21
 2541 343 2541 343 2414.51855469 583.911132812 c 5,22,23
 2452 654 2452 654 2509.29322582 706.789401776 c 4,24,25
 2516 713 2516 713 2522.51025391 716.530761719 c 132,-1,26
 2529 720 2529 720 2537.51855469 720.385742188 c 4,27,28
 2546 720 2546 720 2554.25195312 715.727539062 c 4,29,30
 2562 711 2562 711 2570.38964844 701.942382812 c 4,0,1
1714.25390625 265.1171875 m 5,31,-1
 1863.70214844 115.669921875 l 5,32,-1
 1714.25390625 -33.7802734375 l 5,33,-1
 1564.80566406 115.669921875 l 5,34,-1
 1714.25390625 265.1171875 l 5,31,-1
2031.78125 265.1171875 m 5,35,-1
 2181.22949219 115.669921875 l 5,36,-1
 2031.78125 -33.78125 l 5,37,-1
 1882.33398438 115.669921875 l 5,38,-1
 2031.78125 265.1171875 l 5,35,-1
1207.85644531 384.076171875 m 0,39,40
 1202.95110955 -196.045306114 1202.95110955 -196.045306114 705.8515625 -195.990234375 c 0,41,42
 504 -196 504 -196 381 -103.764648438 c 0,43,44
 224 13 224 13 220.649384967 264 c 0,45,46
 218 464 218 464 325.491210938 699.673828125 c 1,47,-1
 425.701171875 666.984375 l 1,48,49
 300 258 300 258 430.624023438 97.5830078125 c 0,50,51
 519 -11 519 -11 708.700195312 -9.4033203125 c 0,52,53
 933 -7 933 -7 1020.3203125 135.333984375 c 0,54,55
 1053 189 1053 189 1051.3828125 288.577148438 c 0,56,57
 1033 1165 1033 1165 1003.11914062 1348.56152344 c 1,58,-1
 1124.96484375 1431.19628906 l 2,59,60
 1181.97177946 1469.98080023 1181.97177946 1469.98080023 1184.16113281 1384.07226562 c 2,61,-1
 1197.91796875 844.264648438 l 2,62,63
 1208 449 1208 449 1207.85644531 384.076171875 c 0,39,40
1452.32714844 844.349609375 m 5,64,65
 1467 1220 1467 1220 1435.03417969 1362.28417969 c 5,66,-1
 1566.69140625 1448.44726562 l 6,67,68
 1613 1479 1613 1479 1621 1399 c 4,69,70
 1626 1350 1626 1350 1618.93554688 1148.33886719 c 4,71,72
 1612 941 1612 941 1614.74121094 859.815429688 c 4,73,74
 1620 684 1620 684 1651.91894531 637.948242188 c 4,75,76
 1682.78212552 591.329101562 1682.78212552 591.329101562 1825.62304688 591.329101562 c 6,77,-1
 1935.12402344 591.329101562 l 6,78,79
 2038 591 2038 591 2093.1796875 657.83203125 c 4,80,81
 2130 702 2130 702 2099.31180773 781.127067279 c 4,82,83
 2070 855 2070 855 2044.22070312 920.741210938 c 5,84,-1
 2130.90527344 1020.99804688 l 5,85,86
 2169 1074 2169 1074 2202.06738281 1002.79003906 c 4,87,88
 2305 789 2305 789 2240.99121094 606.72265625 c 4,89,90
 2173.11466435 411.330078125 2173.11466435 411.330078125 1918.01660156 411.330078125 c 6,91,-1
 1825.21191406 411.330078125 l 6,92,93
 1604 411 1604 411 1526.05859375 506.563476562 c 4,94,95
 1453 596 1453 596 1452.32714844 844.349609375 c 5,64,65
EndSplineSet
EndChar

StartChar: uniFD3E
Encoding: 64830 64830 299
Width: 1480
VWidth: 3
Flags: W
LayerCount: 2
Fore
SplineSet
579.641601562 651.709960938 m 0,0,1
 577.51171875 726.267578125 577.51171875 726.267578125 632.8984375 781.65234375 c 128,-1,2
 688.283203125 837.0390625 688.283203125 837.0390625 764.971679688 837.0390625 c 128,-1,3
 841.659179688 837.0390625 841.659179688 837.0390625 897.044921875 781.65234375 c 128,-1,4
 952.430664062 726.267578125 952.430664062 726.267578125 950.299804688 651.709960938 c 0,5,6
 952.430664062 577.153320312 952.430664062 577.153320312 897.044921875 521.766601562 c 128,-1,7
 841.659179688 466.380859375 841.659179688 466.380859375 764.971679688 466.380859375 c 128,-1,8
 688.283203125 466.380859375 688.283203125 466.380859375 632.8984375 521.766601562 c 128,-1,9
 577.51171875 577.153320312 577.51171875 577.153320312 579.641601562 651.709960938 c 0,0,1
688.919921875 651.66015625 m 0,10,11
 688 619 688 619 712.459960938 594.223632812 c 0,12,13
 737 570 737 570 770.837890625 569.7421875 c 0,14,15
 805 570 805 570 829.216796875 594.223632812 c 0,16,17
 851.759765625 616.760742188 851.759765625 616.760742188 852.756835938 651.66015625 c 0,18,19
 854 685 854 685 829.216796875 709.096679688 c 0,20,21
 805 734 805 734 770.837890625 733.578125 c 0,22,23
 737 734 737 734 712.459960938 709.096679688 c 0,24,25
 690 687 690 687 688.919921875 651.66015625 c 0,10,11
1245.04882812 239.635742188 m 2,26,27
 1244.11520941 182.643554687 1244.11520941 182.643554687 1188.04882812 182.643554688 c 2,28,-1
 964.252929688 182.643554688 l 1,29,-1
 960.485351562 178.874023438 l 1,30,31
 1040.96972656 -253.350585938 1040.96972656 -253.350585938 1252.41796875 -422.350585938 c 0,32,33
 1307.24622779 -466.021419627 1307.24622779 -466.021419627 1200.98632812 -521.557617188 c 1,34,35
 728.480414222 -381.350497722 728.480414222 -381.350497722 604.09375 145.0234375 c 1,36,-1
 567.142578125 182.643554688 l 1,37,-1
 343.361328125 182.643554688 l 2,38,39
 309.65982652 182.007825384 309.65982652 182.007825384 292.188476562 215.84765625 c 0,40,41
 286.352539062 227.155030117 286.352539062 227.155030117 286.352539062 239.643554688 c 2,42,-1
 286.352539062 463.44140625 l 1,43,-1
 128.112304688 621.678710938 l 2,44,45
 117.499023438 631.805664062 117.499023438 631.805664062 111.51171875 655.760742188 c 128,-1,46
 105.524414062 679.715820312 105.524414062 679.715820312 128.104492188 702.297851562 c 2,47,-1
 286.352539062 860.544921875 l 1,48,-1
 286.352539062 1084.33105469 l 2,49,50
 285.754882812 1111.88867188 285.754882812 1111.88867188 300.592285156 1122.35644531 c 0,51,52
 327.502812161 1141.34179688 327.502812161 1141.34179688 343.3515625 1141.34179688 c 2,53,-1
 567.1484375 1141.34179688 l 1,54,-1
 592.115234375 1166.31054688 l 1,55,56
 709.580015042 1753.43908259 709.580015042 1753.43908259 1200.59960938 1898.3125 c 0,57,58
 1237.89355469 1909.26367188 1237.89355469 1909.26367188 1254.78710938 1870.16894531 c 0,59,60
 1263.80012728 1848.8227361 1263.80012728 1848.8227361 1255.1796875 1801.59570312 c 1,61,62
 1035.1999438 1600.59460398 1035.1999438 1600.59460398 957.138671875 1148.45703125 c 1,63,-1
 964.25390625 1141.34179688 l 1,64,-1
 1188.22070312 1141.34179688 l 1,65,66
 1245.04882812 1134.79543428 1245.04882812 1134.79543428 1245.04882812 1084.34179688 c 2,67,-1
 1245.04882812 239.635742188 l 2,26,27
711.333984375 187.225585938 m 0,68,69
 779.079101562 -116.46484375 779.079101562 -116.46484375 1009.91894531 -301.510742188 c 1,70,71
 883.00390625 -64.1083984375 883.00390625 -64.1083984375 842.994140625 188.545898438 c 0,72,73
 838.358398438 217.970703125 838.358398438 217.970703125 858.870117188 238.48046875 c 2,74,-1
 900.34375 279.954101562 l 2,75,76
 917.301363854 296.642578125 917.301363854 296.642578125 940.643554688 296.642578125 c 2,77,-1
 1131.04882812 296.642578125 l 1,78,-1
 1131.04882812 1027.34277344 l 1,79,-1
 940.649414062 1027.34277344 l 2,80,81
 917.31640625 1027.05957031 917.31640625 1027.05957031 900.337890625 1044.03710938 c 2,82,-1
 855.83203125 1088.54492188 l 2,83,84
 835.192382812 1108.7734375 835.192382812 1108.7734375 839.84765625 1137.84960938 c 0,85,86
 888.05929509 1439.19289852 888.05929509 1439.19289852 1022.93554688 1687.14257812 c 1,87,88
 771.803710938 1491.68847656 771.803710938 1491.68847656 700.795898438 1127.83691406 c 0,89,90
 697.365906605 1110.33953942 697.365906605 1110.33953942 685.081054688 1098.0546875 c 2,91,-1
 631.0703125 1044.04492188 l 2,92,93
 615.091950052 1027.34277344 615.091950052 1027.34277344 590.7578125 1027.34277344 c 2,94,-1
 400.3515625 1027.34277344 l 1,95,-1
 400.3515625 836.926757812 l 2,96,97
 399.91960523 812.889317479 399.91960523 812.889317479 383.65625 796.630859375 c 2,98,-1
 249.018554688 661.993164062 l 1,99,-1
 383.655273438 527.356445312 l 2,100,101
 400.3515625 510.727539062 400.3515625 510.727539062 400.3515625 487.05078125 c 2,102,-1
 400.3515625 296.642578125 l 1,103,-1
 590.765625 296.642578125 l 2,104,105
 614.750751746 296.258031308 614.750751746 296.258031308 631.0625 279.948242188 c 2,106,-1
 696.038085938 214.974609375 l 2,107,108
 708.114257812 202.9609375 708.114257812 202.9609375 711.333984375 187.225585938 c 0,68,69
EndSplineSet
EndChar

StartChar: uniFD3F
Encoding: 64831 64831 300
Width: 1480
VWidth: 3
Flags: W
LayerCount: 2
Fore
SplineSet
524.641601562 651.709960938 m 4,0,1
 522.51171875 726.267578125 522.51171875 726.267578125 577.8984375 781.65234375 c 132,-1,2
 633.283203125 837.0390625 633.283203125 837.0390625 709.971679688 837.0390625 c 132,-1,3
 786.659179688 837.0390625 786.659179688 837.0390625 842.044921875 781.65234375 c 132,-1,4
 897.430664062 726.267578125 897.430664062 726.267578125 895.299804688 651.709960938 c 4,5,6
 897.430664062 577.153320312 897.430664062 577.153320312 842.044921875 521.766601562 c 132,-1,7
 786.659179688 466.380859375 786.659179688 466.380859375 709.971679688 466.380859375 c 132,-1,8
 633.283203125 466.380859375 633.283203125 466.380859375 577.8984375 521.766601562 c 132,-1,9
 522.51171875 577.153320312 522.51171875 577.153320312 524.641601562 651.709960938 c 4,0,1
633.919921875 651.66015625 m 4,10,11
 633 619 633 619 657.459960938 594.223632812 c 4,12,13
 682 570 682 570 715.837890625 569.7421875 c 4,14,15
 750 570 750 570 774.216796875 594.223632812 c 4,16,17
 796.759880134 616.760498026 796.759880134 616.760498026 797.756835938 651.66015625 c 4,18,19
 799 685 799 685 774.216796875 709.096679688 c 4,20,21
 750 734 750 734 715.837890625 733.578125 c 4,22,23
 682 734 682 734 657.459960938 709.096679688 c 4,24,25
 635 687 635 687 633.919921875 651.66015625 c 4,10,11
279.209960938 -521.559570312 m 1,26,27
 174.24269571 -465.909871694 174.24269571 -465.909871694 227.77734375 -422.35546875 c 0,28,29
 439.63671875 -251.1640625 439.63671875 -251.1640625 519.715820312 178.875 c 1,30,-1
 515.947265625 182.643554688 l 1,31,-1
 292.16015625 182.643554688 l 2,32,33
 255.146638501 182.049197142 255.146638501 182.049197142 239.247070312 219.541015625 c 0,34,35
 235.15234375 229.198463455 235.15234375 229.198463455 235.15234375 239.643554688 c 2,36,-1
 235.15234375 1084.33300781 l 2,37,38
 234.723632812 1108.50390625 234.723632812 1108.50390625 253.361328125 1124.95117188 c 128,-1,39
 271.9375 1141.34179688 271.9375 1141.34179688 292.15234375 1141.34179688 c 2,40,-1
 515.948242188 1141.34179688 l 1,41,-1
 523.0625 1148.45507812 l 1,42,43
 445.1050165 1601.38881866 445.1050165 1601.38881866 225.020507812 1801.59472656 c 1,44,45
 216.668864323 1848.69251936 216.668864323 1848.69251936 229.649373568 1878.97956046 c 128,-1,46
 242.629882812 1909.26660156 242.629882812 1909.26660156 279.610351562 1898.30957031 c 0,47,48
 771.368164062 1749.04882812 771.368164062 1749.04882812 887.970703125 1166.890625 c 1,49,-1
 913.068359375 1141.34179688 l 1,50,-1
 1136.85546875 1141.34179688 l 2,51,52
 1160.97265625 1141.05566406 1160.97265625 1141.05566406 1177.52539062 1122.90234375 c 0,53,54
 1193.84863281 1103.78417969 1193.84863281 1103.78417969 1193.84863281 1084.34179688 c 2,55,-1
 1193.84863281 860.544921875 l 1,56,-1
 1352.09570312 702.299804688 l 2,57,58
 1374.90820312 679.625976562 1374.90820312 679.625976562 1370.45654297 661.9453125 c 0,59,60
 1363.08738834 632.67723209 1363.08738834 632.67723209 1352.09765625 621.6875 c 2,61,-1
 1193.84863281 463.44140625 l 1,62,-1
 1193.84863281 239.63671875 l 2,63,64
 1193.35449219 202.328125 1193.35449219 202.328125 1156.57324219 186.725585938 c 0,65,66
 1146.94529234 182.643554688 1146.94529234 182.643554688 1136.84960938 182.643554688 c 2,67,-1
 913.059570312 182.643554688 l 1,68,-1
 876.106445312 145.0234375 l 1,69,70
 752.179956683 -380.764580492 752.179956683 -380.764580492 279.209960938 -521.559570312 c 1,26,27
470.313476562 -301.490234375 m 1,71,72
 701.428710938 -116.459960938 701.428710938 -116.459960938 768.87109375 187.236328125 c 0,73,74
 772.492687544 203.304210982 772.492687544 203.304210982 784.161132812 214.97265625 c 2,75,-1
 849.14453125 279.954101562 l 2,76,77
 866.102539062 296.642578125 866.102539062 296.642578125 889.443359375 296.642578125 c 2,78,-1
 1079.84960938 296.642578125 l 1,79,-1
 1079.84960938 487.043945312 l 2,80,81
 1079.53106919 510.34456986 1079.53106919 510.34456986 1096.54492188 527.35546875 c 2,82,-1
 1231.18261719 661.993164062 l 1,83,-1
 1096.54882812 796.626953125 l 2,84,85
 1079.84960938 812.924804688 1079.84960938 812.924804688 1079.84960938 836.935546875 c 2,86,-1
 1079.84960938 1027.34277344 l 1,87,-1
 889.44921875 1027.34277344 l 2,88,89
 866.116119232 1027.05966202 866.116119232 1027.05966202 849.138671875 1044.03710938 c 2,90,-1
 795.026367188 1098.14941406 l 1,91,92
 783.131011729 1112.37276229 783.131011729 1112.37276229 779.385742188 1127.94238281 c 0,93,94
 709.102735737 1497.07122473 709.102735737 1497.07122473 457.138671875 1687.37109375 c 1,95,96
 584.532833114 1451.2592705 584.532833114 1451.2592705 640.350585938 1137.86621094 c 0,97,98
 645.388911982 1109.56666285 645.388911982 1109.56666285 624.373046875 1088.54882812 c 2,99,-1
 579.870117188 1044.04492188 l 2,100,101
 563.895507812 1027.34277344 563.895507812 1027.34277344 539.557617188 1027.34277344 c 2,102,-1
 349.15234375 1027.34277344 l 1,103,-1
 349.15234375 296.642578125 l 1,104,-1
 539.565429688 296.642578125 l 2,105,106
 563.548844859 296.261702016 563.548844859 296.261702016 579.862304688 279.948242188 c 2,107,-1
 621.330078125 238.481445312 l 2,108,109
 642.134765625 217.743164062 642.134765625 217.743164062 637.204101562 188.53125 c 0,110,111
 591.569335938 -75.58203125 591.569335938 -75.58203125 470.313476562 -301.490234375 c 1,71,72
EndSplineSet
EndChar

StartChar: NameMe.303
Encoding: 65562 -1 301
Width: 556
VWidth: 3705
Flags: W
AnchorPoint: "Anchor-10" 254.76 1481.69 basechar 0
AnchorPoint: "Anchor-7" 210.877 -259.762 basechar 0
LayerCount: 2
Fore
SplineSet
263.281783257 367 m 0,0,1
 266 415 266 415 265.431616225 485 c 0,2,3
 265.090138891 562.533644093 265.090138891 562.533644093 258.478515625 672.23046875 c 4,4,5
 239 1012 239 1012 208 1352 c 5,6,-1
 315.20703125 1403.57910156 l 6,7,8
 384.925850101 1436.96449275 384.925850101 1436.96449275 387.015625 1362.94238281 c 6,9,-1
 410.239257812 540.3359375 l 2,10,11
 417.904970704 268.80801232 417.904970704 268.80801232 365.708007812 163.354492188 c 0,12,13
 285 0 285 0 10.892578125 0 c 2,14,-1
 -12.203125 0 l 1,15,-1
 -12.203125 179.999023438 l 1,16,-1
 16.552734375 179.999023438 l 2,17,18
 118 180 118 180 178 207.721359611 c 0,19,20
 257 244 257 244 263.281783257 367 c 0,0,1
EndSplineSet
EndChar

StartChar: NameMe.304
Encoding: 65563 -1 302
Width: 635
VWidth: 3705
Flags: W
LayerCount: 2
Fore
SplineSet
316.796875 138.439453125 m 5,0,1
 221 0 221 0 46.501953125 0 c 2,2,-1
 -12.50390625 0 l 1,3,-1
 -12.50390625 179.999023438 l 1,4,-1
 19.7001953125 179.999023438 l 2,5,6
 106 180 106 180 162 211.843178309 c 0,7,8
 237 254 237 254 248.876266593 346 c 0,9,10
 256 397 256 397 253.025390625 477.5234375 c 0,11,12
 242.224069007 795.405663007 242.224069007 795.405663007 219.874023438 1110.28417969 c 2,13,-1
 219.763671875 1111.83886719 l 1,14,-1
 361 1206.42147193 l 2,15,16
 397.9765625 1230.98443083 397.9765625 1230.98443083 397.9765625 1183 c 2,17,-1
 397.9765625 483.450195312 l 2,18,19
 398 262 398 262 492.798828125 209.259765625 c 0,20,21
 546.001775621 179.999023438 546.001775621 179.999023438 632.500976562 179.999023438 c 2,22,-1
 648.435546875 179.999023438 l 1,23,-1
 648.435546875 0 l 1,24,-1
 596.202148438 0 l 2,25,26
 413 0 413 0 316.796875 138.439453125 c 5,0,1
EndSplineSet
EndChar

StartChar: NameMe.306
Encoding: 65566 -1 304
Width: 579
VWidth: 3705
Flags: W
LayerCount: 2
Fore
SplineSet
184.518554688 794.955078125 m 0,0,1
 186 1142 186 1142 167.987304688 1311.0390625 c 1,2,-1
 270.95703125 1386.05957031 l 2,3,4
 331 1430 331 1430 335.790039062 1337.14550781 c 0,5,6
 346 1125 346 1125 338.5 890 c 0,7,8
 331 673 331 673 332.779296875 472.400390625 c 0,9,10
 334 304 334 304 378.942382812 242.354492188 c 0,11,12
 424.842221767 180.213605961 424.842221767 180.213605961 565.885742188 179.999023438 c 2,13,-1
 592.203125 179.958984375 l 1,14,-1
 592.203125 0 l 1,15,-1
 540.934570312 0 l 2,16,17
 257.511111111 -9.36473121271e-14 257.511111111 -9.36473121271e-14 205 278 c 4,18,19
 189.218252109 361.55043001 189.218252109 361.55043001 186.650390625 564.513671875 c 0,20,21
 184 774 184 774 184.518554688 794.955078125 c 0,0,1
EndSplineSet
EndChar

StartChar: uni06C1
Encoding: 1729 1729 305
Width: 992
VWidth: 2424
Flags: W
AnchorPoint: "Anchor-7" 420.886 -224.499 basechar 0
AnchorPoint: "Anchor-10" 539.369 1109.95 basechar 0
LayerCount: 2
Fore
SplineSet
93.4287109375 -37.748046875 m 1,0,1
 180 198 180 198 273.307617188 336.337890625 c 0,2,3
 367 475 367 475 445.051757812 533.932617188 c 128,-1,4
 523 593 523 593 602.810546875 597.865234375 c 0,5,6
 759 607 759 607 763.122070312 475.3828125 c 0,7,8
 766 390 766 390 784.286132812 278.19921875 c 0,9,10
 799.992766238 181.044744935 799.992766238 181.044744935 926.271484375 181.012695312 c 2,11,-1
 1003.2265625 180.993164062 l 1,12,-1
 1003.2265625 0 l 1,13,-1
 902.953125 0 l 2,14,15
 630 0 630 0 621.489257812 303.450195312 c 0,16,17
 619 401 619 401 610.649414062 415 c 0,18,19
 597 439 597 439 560.749865157 422 c 0,20,21
 469 380 469 380 355.046875 153.712890625 c 0,22,23
 263 -30 263 -30 233.357421875 -110.423828125 c 1,24,-1
 93.4287109375 -37.748046875 l 1,0,1
EndSplineSet
EndChar

StartChar: NameMe.65567
Encoding: 65567 -1 309
Width: 678
VWidth: 3745
Flags: W
LayerCount: 2
Fore
SplineSet
107.376953125 -35.0341796875 m 5,0,1
 169.2578125 -64.982421875 169.2578125 -64.982421875 251.616210938 -64.3681640625 c 4,2,3
 406.380859375 -63.0390625 406.380859375 -63.0390625 472.666015625 13.93359375 c 4,4,5
 497.170898438 42.70703125 497.170898438 42.70703125 467.2109375 59.427734375 c 4,6,7
 435.793945312 76.9619140625 435.793945312 76.9619140625 351.474609375 100.6015625 c 4,8,9
 265.4921875 124.239257812 265.4921875 124.239257812 297.475585938 232.400390625 c 4,10,11
 340.796875 376.446289062 340.796875 376.446289062 470.557617188 429.600585938 c 4,12,13
 541.537109375 458.614257812 541.537109375 458.614257812 625.641601562 432.522460938 c 5,14,15
 621.888671875 393.357421875 621.888671875 393.357421875 603.754882812 317.1484375 c 5,16,-1
 572.502929688 318.665039062 l 6,17,18
 481.236328125 323.09375 481.236328125 323.09375 425.071289062 266.928710938 c 4,19,20
 395.37109375 237.228515625 395.37109375 237.228515625 384.728515625 212.9375 c 5,21,-1
 514.37890625 169.752929688 l 6,22,23
 574.083007812 149.8671875 574.083007812 149.8671875 573.537109375 75.2333984375 c 132,-1,24
 572.991210938 0.6005859375 572.991210938 0.6005859375 527.80078125 -58.435546875 c 4,25,26
 438.94921875 -175.002929688 438.94921875 -175.002929688 248.9921875 -174.874023438 c 4,27,28
 147.037109375 -175.002929688 147.037109375 -175.002929688 68.328125 -142.765625 c 5,29,-1
 107.376953125 -35.0341796875 l 5,0,1
EndSplineSet
EndChar
